<?xml version="1.0" encoding="UTF-8"?>
<svg id="Layer_2" data-name="Layer 2" xmlns="http://www.w3.org/2000/svg" viewBox="0 0 296.91 264.52">
  <defs>
    <style>
      .cls-1 {
        opacity: .75;
      }
    </style>
  </defs>
  <g id="Layer_1-2" data-name="Layer 1">
    <g>
      <g class="cls-1">
        <path d="M86.36,264.52h-.56c-1.79-.71-3.73-1.92-4.95-3.91-.9-1.48-.6-3.35.53-4.63,1.54-1.76,3.84-2.74,6.18-2.75,2.58-.01,4.04,1.85,4.18,4.21.22,3.66-1.97,6.33-5.37,7.09Z"/>
        <path d="M186.19,251.22c-5.66-3.27-8.73-10.07-13.14-11.22-12.59-3.28-25.01,1.7-36.3,7.59l-4.49-6.95c-1.5-2.33-2.69-4.79-4.5-6.85-2.29-2.59-5.79-3.22-8.83-1.42-1.92,1.14-4.26,2.23-5.81,3.87l-8.8,9.28c-1.23,1.3-3.13,2.58-4.9,2.64-2.18.06-3.55-1.85-4.27-3.69,7.16-9.79,7.29-21.8-1.43-30.48l-2.42-4.57c-1.33-2.51-4.6-3.03-7.17-1.64l-9.37,5.05c-3.3,1.78-6.67-.61-7.32-2.43-.3-.83.1-2.72.62-3.39l4.68-6.06c.8-1.04,1.49-2.6,1.75-3.48-7.16-1.65-14.17-3.43-19.46-7.91-4.09-3.46-5.51-8.63-3.99-13.75.46-1.55.3-3.25-.59-4.66-.71-1.12-2.5-2.27-4.16-2.19l-7.37.37c-4.94.25-10.74-.92-11.97-5.07-.66-2.24.01-4.65,1.68-6.1,2.3-2.02,4.61-1.12,7.17-.51,7.05,1.68,20.04,0,22.93-5.58.96-1.86.33-4.42-1.08-6.03-9.09-10.4-23.8-19.59-37.1-14.08-5.58,2.31-11.78,2.53-17.32-.1-1.36-.65-2.71-2.12-3.01-3.24-.39-1.45-.2-4.09,1.09-4.84,6.68-3.87,15.34-1.83,23.22-.4,4.23.77,8.2.31,12.43.39l11.78.25c3.4.07,6.66-.75,9.67-2.17,3.33-1.57,5.6-4.49,5.72-8.3.26-8.18-2.35-8.19-6.84-13.41-3.54-4.12-7.24-9.63-2.98-12.6,2.62-1.82,5.65-2.15,8.74-1.51l11.08,2.31c3.13.65,7.41.58,10-1.68,7.85-6.84,9.52-22.05.24-28.48-4.83-3.35-10.17-5.76-13.45-9.3-3.04-3.29-1.61-6.95,1.87-10.17,10.98,1,13.15,14.46,23.12,20.48,2.59,1.56,5.13,2.96,8.15,3.58,7.16,1.46,14.55.29,20.68-3.77,2.61-1.73,5.41-4.04,6.45-7.09,1.17-3.42-1.25-11.05-.89-18.24.23-4.54,3.85-8.77,8.59-8.34,3.1.28,5.18,3.7,5.61,6.54,1.01,6.63,0,12.89,3.17,16.7,1.88,2.26,4.54,2.09,7.09,2.68,5.71,1.33,11.39,1.28,16.47-1.94l10.06-6.37c2.45-1.56,4.85-3.31,7.73-4.07,1.5-.4,3.95,1.45,4.65,2.65.97,1.68.38,3.79-.64,5.29l-5.6,8.17c-.9,1.31-1.29,3.5-.03,4.57,1.71,1.45,4.05,1.58,6.2,1.99,4.78.92,9.4.46,13.53-2.24,2.69-1.76,5.14-3.9,7.18-6.5,3.03-3.89,5.86-8.03,7.63-12.64,1.21-3.15,1.91-6.31,3.38-9.21,1.44-2.35,3.84-3.58,6.34-2.29,3.39,4.44,4.09,9.99,2.59,15.36s-4.89,9.91-8.74,14.13c-2.4,2.63-2.33,6.79-1.04,9.96,2.24,5.49,7.39,10.96,8.03,15.1,1.18,7.66,1.03,16.83,4.83,22.98,1.26,2.04,3.66,2.5,5.58,1.08,1.67-1.22,3.17-2.83,4.38-4.54,1.92-2.7,4.96-3.91,8.21-2.92,1.82.55,3.53,1.68,4.64,3.21,1.3,1.8.98,4.12-.89,5.41s-4.11,1.85-6.35,2.29c-3.13.62-5.26,3.29-4.82,6.52.78,5.68,5.3,10.41,11.04,11.13,3.16,1.47,6.35,2.16,9.84,2.32l10.62,1.01c3.53.93,6.46,2.75,7.95,6.09.11,4-2.74,6.69-6.78,6.78l-9.96-1.43c-4.93-.71-12.46-.67-15.71,1.85-8.36,6.5,3.88,28.25,14.32,35.99l15.96,11.83c2.09,1.55,3.66,4.12,3.14,6.7-.68,3.42-4.06,5.13-7.08,5.38-3.75.3-5.94-2.06-7.84-5.1l-6.08-7.52c-2.34-2.89-5.04-5.19-8.25-7.07-5.58-3.27-12.82-2.76-17.33,2-2.5,2.64-3.28,6.29-3.84,9.8l-1.79,11.2c-.54,3.35-2.75,6.5-5.85,7.92s-4.33,4.28-2.81,7.47c1.29,2.7,3.39,5.05,5.57,7.26l8.46,8.69c3.83,1.42,5.99,5.22,4.41,9.04-.72,1.32-2.01,2.54-3.22,2.74-1.5.24-3.19-.44-4.18-1.64-4.28-5.2-8.41-10.26-13.2-15.01-3.28-3.25-6.91-5.82-10.93-7.87-5.65-2.88-11.81-1.04-15.15,4.27-3.37,5.36-3.61,11.52-3.42,17.79-1.19,3.6-6.7,4.13-9.76,2.36Z"/>
        <path d="M274.84,99.08c-2.74,1.03-5.41,1.44-8.51,1.5.31-2.63,1.93-5.01,4.3-6.4l8.4-4.91c2.37-1.38,4.69-2.82,6.4-4.95,1.57-1.96,3.88-3.4,6.49-2.52,3.33,1.12,5.5,4.82,4.87,8.31-.9,5.01-6.66,3.2-11,4.83l-10.96,4.13Z"/>
        <path d="M51.06,233.66c-2.95,2.28-6.3,3.23-9.7,2.22-2.37-2.78-2.4-6.31-.19-9.14,4.5-5.23,13.42-8.67,20.7-9.59l-5.94,10.6c-1.22,2.19-3.02,4.05-4.87,5.9Z"/>
        <path d="M234.01,6.25c-.04,6.45-3.67,15.33-5,12.87l-1.94-3.58c-2.92-5.39.36-15.21,3.67-15.53,1.64-.16,3.28,3.78,3.26,6.24Z"/>
      </g>
      <path d="M175.56,74.96l9.08,5.64c2.09,1.3,4.79,1.04,6.59-.63l3.34-3.09c.49-.45,1.06-.81,1.68-1.06l5.27-2.11c1.3-.52,2.76-.52,4.06,0l2.73,1.09c2.1.84,3.46,2.88,3.44,5.14l-.1,9.05c0,.54-.09,1.07-.25,1.58l-2.42,7.71c-.31,1-.33,2.07-.06,3.08l2.7,9.89c.12.43.29.85.51,1.24l3.89,6.92c.47.84,1.16,1.54,1.98,2.03l10.4,6.14c2.11,1.24,3.13,3.74,2.5,6.11l-2.03,7.66c-.04.15-.07.3-.1.45l-1.31,7.42c-.19,1.1-.72,2.12-1.52,2.92l-3.09,3.09c-.77.77-1.3,1.76-1.5,2.83l-1.55,8.03c-.22,1.16-.81,2.21-1.68,3l-7.73,7.05c-1.51,1.38-2.12,3.48-1.6,5.45l.26.96c1.12,4.18-2.84,7.94-6.96,6.61l-2.98-.96c-2.75-.89-5.72.52-6.77,3.22l-1.79,4.59c-.13.33-.29.64-.47.94l-4.3,6.81c-1.21,1.91-3.47,2.89-5.69,2.44l-8.45-1.69c-2.53-.51-5.07.83-6.09,3.2l-3.61,8.39c-.9,2.09-3.01,3.41-5.29,3.3l-6.93-.34c-.36-.02-.72-.07-1.08-.16l-10.28-2.6c-1.41-.36-2.62-1.26-3.36-2.51l-11.1-18.71c-.71-1.19-1.84-2.07-3.17-2.46l-10.76-3.14c-.24-.07-.47-.15-.69-.25l-4.37-1.94c-.16-.07-.32-.14-.49-.19l-.67-.22c-2.37-.79-3.9-3.09-3.72-5.58l.4-5.63c.22-3.07-2.13-5.71-5.2-5.85l-7.23-.34c-4.14-.19-6.57-4.73-4.43-8.28l2.41-4.01c1.59-2.64.68-6.07-2.01-7.58l-5.3-2.98c-4.3-2.42-3.45-8.85,1.33-10.06l9.15-2.33c3.75-.95,5.35-5.39,3.07-8.51l-2.36-3.25c-2.1-2.89-.91-6.99,2.42-8.3l4.07-1.6c2.55-1,3.97-3.74,3.31-6.4l-1.04-4.22c-.88-3.54,1.9-6.93,5.54-6.77l.67.03c2.96.13,5.49-2.12,5.69-5.08l.8-11.5c.24-3.49,3.66-5.86,7.01-4.86l8.19,2.44c.67.2,1.37.27,2.06.2l12.05-1.11c1.25-.11,2.49.2,3.53.9l9.87,6.58c2,1.33,4.63,1.2,6.49-.31l8.68-7.07c1.81-1.47,4.35-1.64,6.34-.41Z"/>
    </g>
  </g>
</svg>