<?xml version="1.0" encoding="UTF-8"?>
<svg id="Layer_2" data-name="Layer 2" xmlns="http://www.w3.org/2000/svg" viewBox="0 0 248.25 250.04">
  <defs>
    <style>
      .cls-1 {
        fill: #0d0e0f;
      }

      .cls-2 {
        fill: #0c0e0f;
      }

      .cls-3 {
        fill: #0e0f10;
      }

      .cls-4 {
        fill: #fbfbfb;
      }

      .cls-5 {
        fill: #ea1d23;
      }

      .cls-6 {
        fill: #e01119;
      }

      .cls-7 {
        fill: #1e1e20;
      }

      .cls-8 {
        fill: #e1191e;
      }

      .cls-9 {
        fill: #fdfdfd;
      }
    </style>
  </defs>
  <g id="Layer_1-2" data-name="Layer 1">
    <g>
      <path class="cls-7" d="M149.55,247.14c-19.71,4.52-40.04,3.78-59.26-2.36s-36.41-16.22-51.38-30.24c-8.93-8.36-16.59-17.98-22.78-28.51-5.35-9.09-9.22-18.67-11.84-28.86-2.1-8.17-3.58-16.26-4.07-24.71-.83-14.29.74-28.28,4.71-42,2.64-9.12,6.2-17.82,10.84-26.11,6.85-12.22,15.61-23.04,26.07-32.37,7.94-7.08,16.63-13.23,26.09-18.16C89.33,2.67,113.66-1.98,137.72.77c14.64,1.68,28.95,5.96,42.07,12.59,28.25,14.27,50.21,39.75,60.97,69.39,3.19,8.8,5.36,17.82,6.55,27.07,1.12,8.69,1.19,17.24.49,25.96-.6,7.49-2.07,14.6-3.98,21.84-5.76,21.87-18.19,41.37-34.42,56.95s-37.25,27.38-59.86,32.57ZM119.82,29.37c-.08.07-.09.23-.04.3s.22.13.39.13h2.55c.22,0,.38-.08.48-.27h2.7c-.08.17.07.26.32.26h3.16c.17,0,.33-.05.39-.13.05-.06.05-.22.11-.29,4.76-.06,9.36-.73,14.08-1.47l7.1-1.19,6.24-20.53c-14.7-4.23-29.69-5.64-44.83-4.13-7.4.77-14.55,2.15-21.55,4.16l6.08,20.53c7.56,1.3,15.12,2.36,22.83,2.64ZM151.33,213.18c5.17-1.6,9.75-3.66,14.44-6.13,12.86-6.8,23.86-16.38,32.18-28.32,2.39-3.43,4.56-6.75,6.44-10.49,2.68-5.32,4.94-10.7,6.7-16.43,5.73-18.62,5.62-37.51-.41-56.03-1.36-4.19-3.03-8.02-4.95-11.98-9.2-19-24.08-33.4-42.93-42.77-18.07-8.98-38.56-11.39-58.19-6.73-4.34,1.03-8.47,2.22-12.64,3.86-28.41,11.17-48.83,34.7-56.23,64.29-3.01,12.02-3.34,24.26-1.36,36.49,3.51,21.58,14.03,40.93,30.25,55.48,4.92,4.41,10.12,8.08,15.83,11.34,8.98,5.13,18.6,8.46,28.82,10.18,5.65.95,11.17,1.66,16.92,1.44,8.61-.33,16.82-1.63,25.11-4.19ZM221.75,97.77l20.28-6.38c-2.71-9.91-6.68-19.15-11.77-27.93-5.89-10.12-12.93-19.35-21.4-27.55l-14.5,14.95c1.99,5.32,4.12,10.36,6.56,15.44,3.38,6.86,7.09,13.32,11.56,19.52l9.26,11.94ZM37.22,84.02c7.15-10.26,12.62-21.24,16.88-32.96l-14.65-14.9c-7.76,7.33-14.3,15.49-19.84,24.52-5.91,9.54-10.46,19.74-13.35,30.68l20.46,6.48c3.59-4.58,7.1-8.98,10.5-13.82ZM54.01,198.01l-4.42-11.04c-4-9.23-8.73-17.93-14.5-26.17l-8.39-10.94-21.07,6.52c1.86,8.02,4.59,15.49,8.28,22.7,6.47,12.75,15.07,24.18,25.45,34.02l14.65-15.07ZM209.05,213.02c15.9-15.45,28.32-35.16,33.58-56.73l-20.28-6.43-6.11,7.73c-6.73,8.65-12.25,17.93-16.64,27.99l-4.96,12.48,14.41,14.96ZM140.23,247.56c5.9-.9,11.37-2.21,16.97-3.82l-6.06-20.41-14.28-1.97c-8.62-.89-17.03-.87-25.65,0l-14.1,1.92-6.02,20.39c16.03,4.86,32.54,6.28,49.15,3.88Z"/>
      <path class="cls-1" d="M151.33,213.18c-8.29,2.57-16.5,3.87-25.11,4.19-5.75.22-11.26-.49-16.92-1.44-10.22-1.72-19.85-5.04-28.82-10.18-5.71-3.27-10.92-6.93-15.83-11.34-16.22-14.55-26.74-33.9-30.25-55.48-1.99-12.22-1.65-24.47,1.36-36.49,7.4-29.6,27.82-53.12,56.23-64.29,4.17-1.64,8.29-2.82,12.64-3.86,19.63-4.66,40.11-2.26,58.19,6.73,18.85,9.37,33.73,23.77,42.93,42.77,1.92,3.96,3.58,7.79,4.95,11.98,6.03,18.52,6.13,37.41.41,56.03-1.76,5.73-4.02,11.11-6.7,16.43-1.88,3.75-4.05,7.06-6.44,10.49-8.32,11.93-19.32,21.51-32.18,28.32-4.68,2.48-9.27,4.53-14.44,6.13ZM137.33,39.81l.91-5.93c-3.39-.54-6.66-.9-10.05-1.06-2.63-.17-5.15-.21-7.85.04l.25,5.95c5.63-.35,11.07.09,16.73,1ZM108.9,40.16l-1.02-5.76c-6.05,1.17-11.78,2.77-17.36,5.13l2.06,5.46c5.38-2.17,10.67-3.72,16.32-4.83ZM164.41,49.29l2.77-5.18c-5.3-2.94-10.67-5.49-16.55-7.27l-1.64,5.74c5.43,1.78,10.44,3.96,15.42,6.71ZM180.61,187c11.78-10.94,20.2-25.06,24.44-40.6,1.89-6.91,2.84-13.88,2.99-21.04.15-7.41-.86-14.62-2.68-21.74-4.65-18.22-15.15-34.26-30.05-45.73-15.18-11.69-33.32-18.35-52.61-18.09-7,.09-13.58,1.23-20.29,3.1-11.05,3.07-21.26,8.53-30.18,15.71-12.91,10.38-22.34,24.23-27.47,39.97-3.8,11.68-5,23.97-3.36,36.19,2.22,16.44,8.52,30.88,18.98,43.69,12.46,15.25,29.79,25.82,49.21,29.48,26.01,4.9,51.71-3,71.02-20.94ZM82.05,50.28l-2.75-5.15c-5.47,3.12-10.4,6.7-15.02,10.87l3.72,4.51c4.38-3.95,9.03-7.22,14.05-10.22ZM186.81,67.07l4.22-4.01c-4.14-4.5-8.37-8.46-13.23-11.99l-3.31,4.75c4.58,3.43,8.46,7.22,12.32,11.25ZM50.39,82.66c2.84-5,5.89-9.52,9.55-13.76l-4.44-3.84c-3.92,4.71-7.3,9.46-10.18,14.87l5.07,2.73ZM207.63,89.4c-2.48-5.64-5.24-11-8.75-16.18l-4.65,3.36c3.25,4.79,5.88,9.75,8.09,15.06l5.3-2.24ZM40.63,110.75c.97-6.03,2.49-11.42,4.52-16.94l-5.34-1.96c-2.31,5.9-3.9,11.8-4.85,18.12l5.67.79ZM214.55,119.87c-.4-6.18-1.21-11.96-2.7-17.78l-5.57,1.42c1.43,5.48,2.21,10.95,2.56,16.58l5.7-.21ZM41.33,141.14c-1.21-6.05-1.72-11.85-1.71-17.88l-5.71.04c-.15,6.36.45,12.61,1.8,19.04l5.62-1.2ZM210.63,151.37c1.77-5.98,2.97-11.66,3.53-17.76l-5.68-.56c-.65,5.68-1.71,11.06-3.36,16.49l5.5,1.82ZM52.06,168.78c-3.09-5.15-5.43-10.15-7.4-15.64l-5.39,2.03c1.98,5.99,4.66,11.44,7.85,16.88l4.94-3.27ZM205.78,163.79l-5.27-2.52c-2.44,5.14-5.24,9.77-8.5,14.34l4.58,3.73c3.7-4.87,6.7-10,9.19-15.55ZM67.9,196.26l3.71-4.8c-4.58-3.7-8.56-7.83-12.36-12.44l-4.52,3.87c3.94,5.06,8.32,9.4,13.17,13.36ZM174.27,201.04c5.22-3.45,9.66-7.26,13.89-11.53l-4.13-4.38c-4.06,4.07-8.33,7.56-12.98,10.85l3.22,5.07ZM95.98,211.79l1.79-5.67c-5.77-1.98-10.98-4.51-16.17-7.52l-2.93,5.19c5.56,3.36,11.15,6.09,17.31,7.99ZM156.69,210.52l5.17-2.49-2.29-5.39c-5.54,2.59-11.14,4.56-17.06,5.92l1.23,5.84c4.51-.91,8.71-2.28,12.94-3.89ZM129.39,216.31l-.35-5.91c-6.22.51-12.17.04-18.33-.94l-1.02,5.62c3.11.78,6.08,1.13,9.21,1.33,3.52.23,6.92.34,10.48-.11Z"/>
      <path class="cls-1" d="M129.87,29.37c-.07.07-.07.23-.11.29-.06.08-.21.13-.39.13h-3.16c-.25,0-.4-.1-.32-.25.78,0,1.46-.14,2.24-.15l1.75-.02Z"/>
      <path class="cls-1" d="M123.18,29.53c-.09.19-.26.26-.48.26h-2.55c-.17,0-.34-.06-.39-.13s-.04-.23.04-.3l1.99.02c.46.21.89.14,1.38.15Z"/>
      <path class="cls-7" d="M180.61,187c-19.31,17.94-45.01,25.84-71.02,20.94-19.41-3.66-36.75-14.22-49.21-29.48-10.46-12.81-16.76-27.25-18.98-43.69-1.65-12.23-.45-24.51,3.36-36.19,5.13-15.75,14.55-29.59,27.47-39.97,8.92-7.18,19.13-12.63,30.18-15.71,6.71-1.87,13.29-3,20.29-3.1,19.29-.26,37.43,6.4,52.61,18.09,14.9,11.47,25.4,27.52,30.05,45.73,1.82,7.12,2.83,14.32,2.68,21.74-.15,7.16-1.1,14.14-2.99,21.04-4.24,15.54-12.67,29.66-24.44,40.6ZM143.72,200.51c21.38-5.79,38.87-20.06,48.89-39.66,6.29-12.31,9.65-25.98,9.12-39.88-.68-17.68-7.6-34.79-19.44-47.92-8.76-9.72-19.85-17.12-32.04-21.74-18.92-7.17-39.09-6.42-57.4,2.12-10.39,4.85-19.65,11.93-27.08,20.66-11.71,13.76-18.34,31.28-18.62,49.38-.14,9.24,1.61,18.23,4.63,26.9,3.65,10.47,9.56,19.84,17.15,27.91,10.22,10.88,23.4,18.66,37.87,22.41,12.11,3.13,24.71,3.13,36.91-.18Z"/>
      <path class="cls-1" d="M92.73,151.44c-3.95.72-7.94.66-11.8.03-2.13-.35-3.53-2.05-3.53-4.24l.02-33.1c0-2.29,1.51-3.92,3.67-4.31,3.86-.69,7.76-.69,11.66-.04,2.06.34,3.57,2.01,3.57,4.23l.03,32.98c0,2.25-1.32,4.02-3.62,4.44ZM88.67,145.66v-30.48c-.01-1.17-.83-1.79-1.89-1.79-.94,0-1.79.55-1.79,1.64l-.03,30.71c0,1.34.73,2.13,1.92,2.09,1.1-.04,1.79-.76,1.79-2.17Z"/>
      <path class="cls-1" d="M147.94,151.45l-.05-16.66c0-.95-.43-1.9-1.2-2.33s-1.59-.39-2.44-.3l-.02,14.49c0,1.67.23,3.18.64,4.81h-8.68s.38-3.63.38-3.63v-32.44s-.4-5.5-.4-5.5l15,.12c2.49.02,4.35,1.78,4.35,4.24v11.24c0,2.48-1.78,3.84-4.3,4.5,2.55.38,4.31,1.8,4.31,4.25l.03,13.46c.06,1.33.35,2.49.76,3.77h-8.39ZM147.9,125.47l.02-9.29c0-.79-.51-1.63-1.19-1.89-.83-.32-1.67-.28-2.47-.2v14.01c.76.12,1.65.16,2.43-.26s1.21-1.36,1.21-2.38Z"/>
      <path class="cls-1" d="M181.46,138.99l-5.17.02-.98,7.85c-.2,1.56-.3,3.01-.18,4.6h-5.15s1.43-9.12,1.43-9.12l4.28-29.87-.02-2.55,9.91-.04.62,5.63,4.08,31.11.8,4.84h-8.56s-.04-2.98-.04-2.98l-1.01-9.48ZM181.06,134.97l-2.19-18.02-2.2,18.16c1.55.03,2.94.22,4.39-.14Z"/>
      <path class="cls-1" d="M131.97,131.69c-1.84-.57-3.47-.51-5.17-.37l.02,15.81c2.3.1,4.43,0,6.7-.44v4.74s-14.84,0-14.84,0c.35-1.87.4-3.54.4-5.46v-31.87s-.44-4.22-.44-4.22h14.24s0,4.16,0,4.16l-1.7-.3-4.37.02v13.71c1.77.08,3.36.12,5.15-.42v4.63Z"/>
      <path class="cls-1" d="M111.32,147.12c0,1.63.17,2.85.47,4.33h-8.57s.42-4.42.42-4.42v-32.55c-1.69-.16-3.11-.36-4.66.22l-.02-4.8h17.12s.01,4.87.01,4.87c-1.12-.46-2.05-.56-3.09-.36l-1.67.12v32.6Z"/>
      <path class="cls-1" d="M74.89,146.64l.02,4.8h-14.64s.41-3.79.41-3.79v-32.91c.01-1.72-.2-3.18-.48-4.84h8.7c-.43,1.87-.54,3.53-.54,5.46v31.74c2.19.05,4.18-.07,6.52-.47Z"/>
      <path class="cls-1" d="M167.28,151.44l-8.56.02.35-4.02v-33.31s-.5-4.22-.5-4.22h8.78s-.53,4.22-.53,4.22v32.69c0,1.6.14,2.91.46,4.62Z"/>
      <path class="cls-1" d="M186.69,158.34h-121.36c-.13-.93-.14-1.81,0-2.76h121.36s0,2.76,0,2.76Z"/>
      <path class="cls-5" d="M85.25,82.76l.08-3.11h2.21s-2.25,17.62-2.25,17.62l-4.09.03-1.2-10.59-1.21,10.54-3.99.03-2.48-17.62,3.82.02c.02,2.14.32,4.15.56,6.27l.83,7.32,1.03-10.18.14-3.44,3.86.03,1.5,12.9,1.19-9.82Z"/>
      <polygon class="cls-7" points="186.82 104.59 134.22 104.61 134.22 101.88 186.82 101.87 186.82 104.59"/>
      <path class="cls-7" d="M66.02,101.92c-.14.41.36.4.45-.04h54.32c.12,1.03.1,1.88,0,2.71h-55.42s.02-2.71.02-2.71c.23-.04.39.06.63.04Z"/>
      <path class="cls-5" d="M97.22,95.51c0,2.35-3.98,2.22-6.87,1.87-.86-.1-1.84-.73-1.84-1.67l-.03-14.17c0-.98.65-1.76,1.64-1.91,1.8-.26,3.67-.26,5.47,0,1.04.15,1.66.88,1.66,1.92v13.97ZM93.77,94.98v-13.03c0-.54-.43-.78-.84-.81-.29-.02-.92.1-.92.63v13.51c0,.47.68.57.94.54.32-.03.82-.2.82-.84Z"/>
      <path class="cls-5" d="M123.43,97.24l-7.08.07.07-4.09v-9.17s-.12-4.4-.12-4.4l6.78.05c1.12,0,2.03.7,2.03,1.87v14.11c-.07.89-.68,1.56-1.69,1.57ZM121.65,95.01v-13.04c0-.68-1.47-.92-1.76-.44v13.97c.36.44,1.76.23,1.76-.49Z"/>
      <path class="cls-5" d="M104.06,97.29v-6.79c0-.55-.15-.99-.51-1.23-.32-.22-1.06-.37-1.29-.05v6.49s.26,1.56.26,1.56h-3.9s.16-2.39.16-2.39v-12.29s-.24-2.95-.24-2.95l7.18.09c1.02.01,1.79.75,1.8,1.76l.02,4.55c0,1.24-.87,1.87-2.07,2.09,1.22.25,2.07.75,2.07,1.87v4.47s.29,2.79.29,2.79l-3.77.04ZM103.97,86.58c.1-1.63.17-3.19-.05-4.7-.09-.58-1.2-.63-1.66-.48v5.92c.56.28,1.66.05,1.71-.74Z"/>
      <path class="cls-5" d="M155.06,97.26l-.06-6.76c0-.48-.11-.93-.4-1.16-.33-.27-.75-.43-1.34-.3v6.25s.19,1.97.19,1.97h-3.8s.1-5.11.1-5.11l-.02-11-.15-1.54,7.04.1c1.15.02,1.84.89,1.84,2.01l.02,4.18c0,1.28-.71,1.9-1.94,2.22,1.25.31,1.94.88,1.94,1.97v4.99c-.01.74.06,1.38.29,2.14l-3.72.03ZM154.95,86.43v-4.44c-.02-.63-1.29-.89-1.65-.47l-.02,5.8c.75.27,1.67-.11,1.67-.89Z"/>
      <path class="cls-5" d="M181.21,95.44c-.16,2.92-5.11,1.97-8.67,1.88v-6.55s3.12,0,3.12,0l.04,4.31c0,.54.56.72.92.75.47.05,1.11-.16,1.11-.77l.04-3.72c0-.63-.38-1.15-.93-1.37l-2.96-1.21c-.83-.34-1.31-1.1-1.31-2.01v-5.22c-.06-1.08.72-1.83,1.79-1.94,2.32-.24,4.58-.09,6.86.12l-.07,6.32-3.09.02-.07-4.3c0-.51-.61-.62-.96-.62-.41,0-1.02.17-1.02.74v3.45c-.02.87.48,1.42,1.26,1.74l3.08,1.28c.5.21.83.67.83,1.25l.02,5.84Z"/>
      <path class="cls-5" d="M140.8,95.31c-.04,2.97-5.11,2.24-8.62,1.89v-6.39s3.07-.05,3.07-.05l.03,3.98c0,.74.41,1.11,1.06,1.11s1.01-.4,1.01-1.16v-3.34c0-.69-.38-1.14-.98-1.39l-2.93-1.23c-.77-.32-1.22-1.09-1.22-1.97v-5.21c.07-2.95,4.89-2.05,8.5-1.85v6.35s-3.12,0-3.12,0l-.04-4.3c0-.46-.51-.57-.81-.6s-1.02,0-1.04.49l-.1,3.67c-.02.77.37,1.38,1.06,1.67l3.05,1.32c.72.31,1.12.99,1.12,1.8l-.02,5.22Z"/>
      <path class="cls-5" d="M168.48,88.73v6.71c1.02.18,1.94.1,3.03-.08l-.04,1.9h-6.76c.18-.49.29-.84.29-1.33v-13.97c0-.91-.05-1.68-.3-2.36l6.53.07v1.66s-2.8-.02-2.8-.02l.02,5.86c.81.1,1.53,0,2.44-.14v1.86s-2.4-.15-2.4-.15Z"/>
      <path class="cls-5" d="M145.73,88.74l-.04,6.7c1.06.2,1.98.03,3.05-.11l-.02,1.92-6.58.03.1-6.36v-7.72c.01-1.21.05-2.34-.18-3.55h6.42s.02,1.69.02,1.69l-2.81-.03v5.83c.83.09,1.55.03,2.43-.13l.02,1.84-2.41-.1Z"/>
      <path class="cls-5" d="M115.52,95.32l-.04,1.98-6.48-.05.07-15.29c0-.83-.03-1.5-.24-2.31h3.83s-.16,5.44-.16,5.44l.02,10.35c.99.16,1.82.05,2.99-.11Z"/>
      <polygon class="cls-5" points="163.63 97.24 159.78 97.28 159.97 95.3 159.97 81.96 159.78 79.65 163.64 79.65 163.44 82.38 163.46 94.88 163.63 97.24"/>
      <path class="cls-7" d="M127.6,106.85c-.01.69-2.89,1.05-3.9.15l-.1-6.85c0-.57.41-1.07.95-1.07l2.3.02c.46,0,.89.47.88,1.01l-.13,6.74ZM126.07,106.27v-5.96c0-.35-.32-.46-.54-.38-.12.04-.3.14-.3.41v5.8c0,.26.19.38.3.44.12.07.55.05.55-.31Z"/>
      <path class="cls-1" d="M130.02,102.58l.9.04c.19,0,.28.54.13.71-.13.15-.55.19-1.02.06l-.03,4h-1.79s.04-8.31.04-8.31h2.96c.08.29.11.49.02.89-.47-.05-.78-.07-1.27,0l.05,2.61Z"/>
      <path class="cls-1" d="M66.46,101.88c-.09.44-.59.45-.45.04l.45-.04Z"/>
      <g>
        <path class="cls-4" d="M35.09,160.79l-8.39-10.94-21.07,6.52c1.86,8.02,4.59,15.49,8.28,22.7,6.47,12.75,15.07,24.18,25.45,34.02l14.65-15.07-4.42-11.04c-4-9.23-8.73-17.93-14.5-26.17Z"/>
        <path class="cls-4" d="M119.82,29.37l1.99.02c.46.21.89.14,1.38.15h2.7c.78.02,1.46-.13,2.24-.14l1.75-.02c4.76-.06,9.36-.73,14.08-1.47l7.1-1.19,6.24-20.53c-14.7-4.23-29.69-5.64-44.83-4.13-7.4.77-14.55,2.15-21.55,4.16l6.08,20.53c7.56,1.3,15.12,2.36,22.83,2.64Z"/>
        <path class="cls-4" d="M222.35,149.86l-6.11,7.73c-6.73,8.65-12.25,17.93-16.64,27.99l-4.96,12.48,14.41,14.96c15.9-15.45,28.32-35.16,33.58-56.73l-20.28-6.43Z"/>
        <path class="cls-4" d="M136.86,221.36c-8.62-.89-17.03-.87-25.65,0l-14.1,1.92-6.02,20.39c16.03,4.86,32.54,6.28,49.15,3.88,5.9-.9,11.37-2.21,16.97-3.82l-6.07-20.41-14.28-1.97Z"/>
        <path class="cls-4" d="M37.22,84.02c7.15-10.26,12.62-21.24,16.88-32.96l-14.65-14.9c-7.76,7.33-14.3,15.49-19.84,24.52-5.91,9.54-10.46,19.74-13.35,30.68l20.46,6.48c3.59-4.58,7.1-8.98,10.5-13.82Z"/>
        <path class="cls-4" d="M212.49,85.83l9.26,11.94,20.28-6.38c-2.71-9.91-6.68-19.15-11.77-27.93-5.89-10.12-12.93-19.35-21.4-27.55l-14.5,14.95c1.99,5.32,4.12,10.36,6.56,15.44,3.38,6.86,7.09,13.32,11.56,19.52Z"/>
        <path class="cls-4" d="M110.71,209.47l-1.02,5.62c3.11.78,6.08,1.13,9.21,1.33,3.52.23,6.92.34,10.48-.11l-.35-5.91c-6.22.51-12.17.04-18.33-.94Z"/>
        <path class="cls-4" d="M142.52,208.57l1.23,5.84c4.51-.91,8.71-2.28,12.94-3.89l5.17-2.49-2.29-5.39c-5.54,2.59-11.14,4.56-17.06,5.92Z"/>
        <path class="cls-4" d="M97.78,206.12c-5.77-1.98-10.98-4.51-16.17-7.52l-2.93,5.19c5.56,3.36,11.15,6.09,17.31,7.99l1.79-5.67Z"/>
        <path class="cls-4" d="M59.25,179.03l-4.52,3.87c3.94,5.05,8.32,9.4,13.17,13.36l3.71-4.8c-4.58-3.7-8.56-7.83-12.36-12.44Z"/>
        <path class="cls-4" d="M35.71,142.34l5.62-1.2c-1.21-6.05-1.72-11.85-1.71-17.88l-5.71.04c-.15,6.36.45,12.61,1.8,19.04Z"/>
        <path class="cls-4" d="M171.06,195.98l3.22,5.07c5.22-3.45,9.66-7.26,13.89-11.53l-4.13-4.38c-4.06,4.07-8.33,7.56-12.98,10.85Z"/>
        <path class="cls-4" d="M82.05,50.28l-2.75-5.15c-5.47,3.12-10.4,6.7-15.02,10.87l3.72,4.51c4.38-3.95,9.03-7.22,14.05-10.22Z"/>
        <path class="cls-4" d="M52.06,168.78c-3.09-5.15-5.43-10.15-7.4-15.64l-5.39,2.03c1.98,5.99,4.66,11.44,7.85,16.88l4.94-3.27Z"/>
        <path class="cls-4" d="M45.15,93.81l-5.34-1.96c-2.31,5.9-3.9,11.8-4.85,18.12l5.67.79c.97-6.03,2.49-11.42,4.52-16.94Z"/>
        <path class="cls-4" d="M205.78,163.79l-5.27-2.52c-2.44,5.14-5.24,9.77-8.5,14.34l4.58,3.73c3.7-4.87,6.7-10,9.19-15.55Z"/>
        <path class="cls-4" d="M137.33,39.81l.91-5.93c-3.39-.54-6.66-.9-10.05-1.06-2.63-.17-5.15-.21-7.85.04l.25,5.95c5.63-.35,11.07.09,16.73,1Z"/>
        <path class="cls-4" d="M148.99,42.59c5.43,1.78,10.44,3.96,15.42,6.71l2.77-5.18c-5.3-2.94-10.67-5.49-16.55-7.27l-1.64,5.74Z"/>
        <path class="cls-4" d="M108.9,40.16l-1.02-5.76c-6.05,1.17-11.78,2.77-17.36,5.13l2.06,5.46c5.38-2.17,10.67-3.72,16.32-4.83Z"/>
        <path class="cls-4" d="M50.39,82.66c2.84-5,5.89-9.52,9.55-13.76l-4.44-3.84c-3.92,4.71-7.3,9.46-10.18,14.87l5.07,2.73Z"/>
        <path class="cls-4" d="M207.63,89.4c-2.48-5.64-5.24-11-8.75-16.18l-4.65,3.36c3.25,4.79,5.88,9.75,8.09,15.06l5.3-2.24Z"/>
        <path class="cls-4" d="M205.12,149.55l5.5,1.82c1.77-5.98,2.97-11.66,3.53-17.76l-5.68-.56c-.65,5.68-1.71,11.06-3.36,16.49Z"/>
        <path class="cls-4" d="M186.81,67.07l4.22-4.01c-4.14-4.5-8.37-8.46-13.23-11.99l-3.31,4.75c4.58,3.43,8.46,7.22,12.32,11.25Z"/>
        <path class="cls-4" d="M211.86,102.09l-5.57,1.42c1.43,5.48,2.21,10.95,2.56,16.58l5.7-.21c-.4-6.18-1.21-11.96-2.7-17.78Z"/>
        <path class="cls-4" d="M86.78,113.4c-.94,0-1.79.55-1.79,1.64l-.03,30.71c0,1.34.73,2.13,1.92,2.09,1.1-.04,1.79-.76,1.79-2.17v-30.48c-.01-1.17-.83-1.79-1.89-1.79Z"/>
        <path class="cls-4" d="M146.68,127.84c.77-.41,1.21-1.36,1.21-2.38l.02-9.29c0-.79-.51-1.63-1.19-1.89-.83-.32-1.67-.28-2.47-.2v14.01c.76.12,1.65.16,2.43-.26Z"/>
        <path class="cls-4" d="M176.67,135.1c1.55.03,2.94.22,4.39-.14l-2.19-18.02-2.2,18.16Z"/>
        <path class="cls-4" d="M92.95,95.82c.32-.03.82-.2.82-.84v-13.03c0-.54-.43-.78-.84-.81-.29-.02-.92.1-.92.63v13.51c0,.47.68.57.94.54Z"/>
        <path class="cls-4" d="M121.65,95.01v-13.04c0-.68-1.47-.92-1.76-.44v13.97c.36.44,1.76.23,1.76-.49Z"/>
        <path class="cls-4" d="M103.97,86.58c.1-1.63.17-3.19-.05-4.7-.09-.58-1.2-.63-1.66-.48v5.92c.56.28,1.66.05,1.71-.74Z"/>
        <path class="cls-4" d="M154.95,86.43v-4.44c-.02-.63-1.29-.89-1.65-.47l-.02,5.8c.75.27,1.67-.11,1.67-.89Z"/>
        <path class="cls-4" d="M125.52,106.57c.12.07.55.05.55-.31v-5.96c0-.35-.32-.46-.54-.38-.12.04-.3.14-.3.41v5.8c0,.26.19.38.3.44Z"/>
        <path class="cls-4" d="M192.61,160.85c6.29-12.31,9.65-25.98,9.12-39.88-.68-17.68-7.6-34.79-19.44-47.92-8.76-9.72-19.85-17.12-32.04-21.74-18.92-7.17-39.09-6.42-57.4,2.12-10.39,4.85-19.65,11.93-27.08,20.66-11.71,13.76-18.34,31.28-18.62,49.38-.14,9.24,1.61,18.23,4.63,26.9,3.65,10.47,9.56,19.84,17.15,27.91,10.22,10.88,23.4,18.66,37.87,22.41,12.11,3.13,24.71,3.13,36.91-.18,21.38-5.79,38.87-20.06,48.89-39.66ZM191.07,151.44h-8.56s-.04-2.98-.04-2.98l-1.01-9.48-5.17.02-.98,7.85c-.2,1.56-.3,3.01-.18,4.6h-5.15s1.43-9.12,1.43-9.12l4.28-29.87-.02-2.55,9.91-.04.62,5.63,4.08,31.11.8,4.84ZM186.82,101.87v2.72s-52.6.02-52.6.02v-2.73s52.6,0,52.6,0ZM167.28,151.44l-8.56.02.35-4.02v-33.31s-.5-4.22-.5-4.22h8.78s-.53,4.22-.53,4.22v32.69c0,1.6.14,2.91.46,4.62ZM144.88,151.44h-8.68s.38-3.63.38-3.63v-32.44s-.4-5.5-.4-5.5l15,.12c2.49.02,4.35,1.78,4.35,4.24v11.24c0,2.48-1.78,3.84-4.3,4.5,2.55.38,4.31,1.8,4.31,4.25l.03,13.46c.06,1.33.35,2.49.76,3.77h-8.39s-.05-16.66-.05-16.66c0-.95-.43-1.9-1.2-2.33-.76-.42-1.59-.39-2.44-.3l-.02,14.49c0,1.67.23,3.18.64,4.81ZM172.56,90.76h3.1s.04,4.32.04,4.32c0,.54.56.72.92.75.47.05,1.11-.16,1.11-.77l.04-3.72c0-.63-.38-1.15-.93-1.37l-2.96-1.21c-.83-.34-1.31-1.1-1.31-2.01v-5.22c-.06-1.08.72-1.83,1.79-1.94,2.32-.24,4.58-.09,6.86.12l-.07,6.32-3.09.02-.07-4.3c0-.51-.61-.62-.96-.62-.41,0-1.02.17-1.02.74v3.45c-.02.87.48,1.42,1.26,1.74l3.08,1.28c.5.21.83.67.83,1.25l.02,5.84c-.16,2.92-5.11,1.97-8.67,1.88v-6.55ZM171.22,79.67v1.66s-2.8-.02-2.8-.02l.02,5.86c.81.1,1.53,0,2.44-.14v1.86s-2.4-.15-2.4-.15v6.71c1.02.18,1.94.1,3.03-.08l-.04,1.9h-6.76c.18-.49.29-.84.29-1.33v-13.97c0-.91-.05-1.68-.3-2.36l6.53.07ZM163.64,79.65l-.2,2.73.02,12.5.17,2.36-3.85.04.2-1.98v-13.34s-.2-2.31-.2-2.31h3.87ZM156.63,79.73c1.15.02,1.84.89,1.84,2.01l.02,4.18c0,1.28-.71,1.9-1.94,2.22,1.25.31,1.94.88,1.94,1.97v4.99c-.01.74.06,1.38.29,2.14l-3.72.03-.05-6.76c0-.48-.11-.93-.4-1.16-.33-.27-.75-.43-1.34-.3v6.25s.19,1.97.19,1.97h-3.8s.1-5.11.1-5.11l-.02-11-.15-1.54,7.04.1ZM148.47,79.65l.02,1.69-2.81-.03v5.83c.83.09,1.55.03,2.43-.13l.02,1.84-2.41-.1-.04,6.7c1.06.2,1.98.03,3.05-.11l-.02,1.92-6.58.03.1-6.36v-7.72c.01-1.21.05-2.34-.18-3.55h6.42ZM132.19,90.81l3.07-.05.03,3.98c0,.74.41,1.11,1.06,1.11.64,0,1.01-.4,1.01-1.16v-3.34c0-.69-.38-1.14-.98-1.39l-2.93-1.23c-.77-.32-1.22-1.09-1.22-1.97v-5.21c.07-2.95,4.89-2.05,8.5-1.85v6.35s-3.12,0-3.12,0l-.04-4.3c0-.46-.51-.57-.81-.6-.3-.02-1.02,0-1.04.49l-.1,3.67c-.02.77.37,1.38,1.06,1.67l3.05,1.32c.72.31,1.12.99,1.12,1.8l-.02,5.22c-.04,2.97-5.11,2.24-8.62,1.89v-6.39ZM119.07,114.11l-.43-4.22h14.24s0,4.16,0,4.16l-1.7-.3-4.37.02v13.71c1.77.08,3.36.12,5.15-.42v4.63c-1.84-.57-3.47-.51-5.17-.37l.02,15.81c2.29.1,4.43,0,6.7-.44v4.74s-14.84,0-14.84,0c.35-1.87.4-3.54.4-5.46v-31.87ZM128.26,99.08h2.96c.08.29.11.49.02.89-.47-.04-.78-.07-1.27,0l.05,2.61.9.04c.19,0,.28.54.13.71-.13.15-.55.19-1.02.06l-.03,4h-1.79s.04-8.31.04-8.31ZM127.73,100.11l-.13,6.74c-.01.69-2.89,1.05-3.9.15l-.1-6.85c0-.57.41-1.07.95-1.07l2.3.02c.46,0,.89.47.88,1.01ZM123.09,79.69c1.12,0,2.03.7,2.03,1.87v14.11c-.07.89-.68,1.56-1.69,1.57l-7.08.07.07-4.09v-9.17s-.12-4.4-.12-4.4l6.78.05ZM112.67,79.66l-.16,5.43.02,10.35c.99.16,1.82.05,2.99-.11l-.04,1.98-6.48-.05.07-15.29c0-.83-.03-1.5-.24-2.31h3.83ZM105.72,79.73c1.02.01,1.79.75,1.8,1.76l.02,4.55c0,1.24-.87,1.87-2.07,2.09,1.22.25,2.07.75,2.07,1.87v4.47s.29,2.79.29,2.79l-3.77.04v-6.79c0-.55-.15-.99-.51-1.23-.32-.22-1.06-.37-1.29-.05v6.49s.26,1.56.26,1.56h-3.9s.16-2.39.16-2.39v-12.29s-.24-2.95-.24-2.95l7.18.09ZM90.11,79.63c1.8-.26,3.67-.26,5.47,0,1.04.15,1.66.88,1.66,1.92v13.97c-.02,2.35-3.99,2.22-6.88,1.87-.86-.1-1.84-.73-1.84-1.67l-.03-14.17c0-.98.65-1.76,1.64-1.91ZM76.15,79.67c.02,2.14.32,4.15.56,6.27l.83,7.32,1.03-10.18.14-3.44,3.86.03,1.5,12.9,1.19-9.82.08-3.11h2.21s-2.24,17.62-2.24,17.62l-4.09.03-1.2-10.59-1.21,10.54-3.99.03-2.48-17.62,3.82.02ZM65.39,101.88c.23-.04.39.06.63.04l.45-.04h54.32c.12,1.03.1,1.88,0,2.71h-55.42s.02-2.71.02-2.71ZM111.78,151.45h-8.57s.42-4.42.42-4.42v-32.55c-1.69-.16-3.11-.36-4.66.22l-.02-4.8h17.12s.01,4.87.01,4.87c-1.12-.46-2.05-.56-3.09-.36l-1.67.12v32.6c0,1.63.17,2.85.47,4.33ZM96.35,147c0,2.25-1.32,4.02-3.62,4.44-3.95.72-7.94.66-11.8.03-2.13-.35-3.53-2.05-3.53-4.24l.02-33.1c0-2.29,1.51-3.92,3.67-4.31,3.86-.69,7.76-.69,11.66-.04,2.06.34,3.57,2.01,3.57,4.23l.03,32.98ZM60.21,109.91h8.7c-.43,1.87-.54,3.53-.54,5.46v31.74c2.19.05,4.18-.07,6.52-.47l.02,4.8h-14.64s.41-3.79.41-3.79v-32.91c.01-1.72-.2-3.18-.48-4.84ZM65.33,158.34c-.13-.93-.14-1.81,0-2.76h121.36s0,2.76,0,2.76h-121.36Z"/>
      </g>
      <path class="cls-8" d="M86.3,165.97c.08.27.11.57,0,.85-.07.21-.27.33-.47.31-.22-.03-.37-.19-.4-.42-.02-.19.03-.37.12-.54.05-.11.11-.21.12-.34-.27-.09-.44-.48-.37-.53.06-.04.29.16.56.14l-.15-.34s0-.03,0-.04c.02-.05.3.18.54.15-.11-.46-.63-.69-1.08-.66-.02-.05,0-.09.01-.13.15-.28.57-.3.9-.22.14-.5.6-.98,1.03-1.28.02,0,.04.01.04.03l-.1.73c.22-.12.88-.54.93-.51.05.03-.08.39-.15.56.3-.09.55-.23.84-.37,0,.22-.1.39-.2.57.23-.06.43-.17.65-.26.01-.02.07-.01.07,0-.03.19-.11.36-.21.53.23-.02.63-.22.67-.19.06.04-.18.41-.31.55.24.05.61-.06.64-.03.05.06-.26.4-.46.49.2.06.57.27.53.37-.03.09-.13.15-.21.19-.27.14-.57.17-.86.11l-.12-.03c-.06-.01-.07-.02-.11-.05-.13-.09-.28-.16-.4-.27h-.02c.1.3.34.63.54.88l.48.59c.38.47.67.99.86,1.56.15.43.23.86.32,1.31l.12.62c.08.41.35.75.73.94.1.05.2.13.31.15.14.02.27-.1.34-.21.18-.27.32-.55.48-.83.19-.34.39-.65.63-.95.86-1.07,2.36-1.67,3.57-.86.6.4,1.03,1.07,1.33,1.72l.03.08c.63,1.5.52,3.13-.08,4.62l-.04.1c-.35.81-.84,1.55-1.49,2.15-.2.18-.38.35-.63.48.35-.53.66-1.05.8-1.67-.15.23-.3.45-.53.62-.02.01-.03.02-.04.01-.01,0-.02-.02-.01-.04.13-.42.21-.84.2-1.29-.01-.68-.19-1.33-.51-1.92-.1-.18-.18-.35-.34-.5.23.5.42.99.52,1.54.11.64.08,1.37-.3,1.89-.11.15-.23.28-.41.35.28-1.04.16-2.18-.34-3.11-.32-.6-.85-1.1-1.55-1.2.44.2.84.42,1.12.84.32.48.54,1.03.61,1.6.04.33-.01.64-.12.94l-.05.11c-.21.49-.54.76-.52.64.07-.35.12-.69.08-1.06-.06-.62-.27-1.22-.6-1.75-.13-.2-.26-.39-.46-.54.13.23.28.43.38.67.34.8.3,1.77-.2,2.49-.07.11-.14.21-.27.28.08-.38.14-.72.12-1.09s-.07-.71-.2-1.05c-.02,1.22-.73,2.52-1.75,3.22.4-.8.53-1.62.37-2.45-.09.07-.17.11-.27.14-.19.06-.35.1-.53,0l.18.38c.12.25.23.58.07.79-.03.04-.07.07-.06.13.02.11-.05.17-.12.24-.17.17-.3.39-.41.6.06.19.27.17.46.21-.18.15-.41.19-.62.12l-.11.26c-.07.16.02.37.15.34v-.24c.25.05.49.11.74.2.26.09.46.28.6.51l.25.51c.41.82.87.73,1.27,1.1l.52.49s.02.03,0,.05-.02.03-.05.02l-.28-.06c-.25-.05-.49-.11-.73-.2l-.67-.23.17.34s0,.03,0,.04-.03.03-.04.02l-.53-.17c-.16-.05-.29.09-.62,0l-.24-.06-.48-.15.26.44c-.26.02-.54-.15-.77-.09-.22.06-.43.08-.65,0-.2-.06-.39-.12-.6-.14l-.55-.06c-.15-.02-.26.05-.34.18-.06.04-.17.04-.25.05-.39.04-.76-.04-1.13-.12-.16,0-.33.1-.5.08-.27-.03-.52-.03-.8-.04.21-.25.62-.34.71-.43.21-.19.23-.49.56-.76l.43-.34c-.08,0-.16.05-.22.02-.07-.03-.1-.03-.17.01l-.36.24c-.18.19-.3.41-.42.63-.07.13-.22.23-.36.26-.07.02-.14-.02-.21-.02-.15.07-.29.15-.45.18h-.33c-.16,0-.42.16-.48.14-.01,0-.02-.03,0-.05l.26-.34c.15-.19.47-.28.67-.43l.24-.53c.17-.37.46-.4.51-.6.03-.12.08-.22.17-.31l.13-.1.36-.19c.02-.08.03-.19.09-.24s.05-.08.07-.16c.02-.12.11-.25.21-.32.07-.05.17-.03.24-.02l.31.05c.33-.03.64-.15.9-.35l.95-1.06.21-.26s0-.06-.02-.08l-.22-.32c-.66-.2-1.27-.64-1.73-1.16-.37-.41-.82-.98-1.06-1.47l-.15-.29-.14-.34c-.14-.39-.23-.77-.27-1.18-.14-1.37.11-2.66.59-3.94.31-.17.37-.59.29-.94l.16-.16c-.07,0-.12.02-.18.06l-.11-.18-.02.02ZM87.58,166.55l-.02-.18c.02-.08.04-.15.03-.25l.2.12c.14.08.28.16.44.18-.15-.16-.26-.34-.34-.53l.21.05-.16-.29.13.05c-.05-.1-.1-.18-.13-.28.04,0,.06.02.1.03-.05-.14-.11-.26-.2-.39l.09.02c-.03-.07-.1-.11-.13-.17-.02-.04-.02-.08-.07-.1s-.09-.07-.13-.11c-.04-.04-.11-.05-.17-.08l.24-.16-.51.09.3-.3c-.21.07-.38.18-.57.28-.12.07-.24.1-.39.07l.16.14c.06.05.1.03.15,0,.15-.06.33-.06.48-.02.25.07.41.23.49.47.06.18.01.38-.12.52-.12.13-.32.2-.5.15l-.32.15c-.1.07-.14.2-.18.32l.12-.05.05.42c.06-.17.1-.33.2-.5.06.06.07.12.1.2.03-.08.05-.15.09-.22.1.16.22.28.33.41v-.02ZM86.34,164.81c-.02-.16-.12-.24-.21-.33,0-.07-.04-.11-.1-.13-.2-.08-.42-.07-.6.05.17-.01.31.04.45.1.18.08.33.18.46.31ZM87.13,164.98s0,.06.03.08c.06.03.12-.07.14-.03,0,.02,0,.04,0,.06-.04.09-.15.1-.22.06-.08-.05-.1-.15-.05-.24l-.2.03c.11.07.04.23.23.31.2.08.27-.09.41-.06-.1-.2-.31-.33-.35-.21ZM85.93,165.24s-.04,0-.02.02l.02-.02ZM85.93,165.24l-.02.02c.04.09.1.16.15.26-.17.08-.35.06-.51,0h-.02c.07.11.17.14.29.15.25.03.48-.12.54-.36-.17.03-.31,0-.44-.06ZM87.44,165.37s0-.06-.01-.07c-.02-.01-.04-.02-.07,0-.09.07-.19.11-.31.09.07.13.3.07.39-.02ZM88.32,165.35s-.02,0-.02,0h.02ZM85.55,165.5s-.04,0-.02.02l.02-.02ZM85.95,165.9l-.11.48c.11-.14.17-.32.11-.48ZM86.31,165.94s-.05-.02-.02,0h.02ZM87.59,166.57v.02s.01-.01,0-.02ZM89.79,168.05l-.21-.45c-.19-.33-.42-.64-.74-.86.23.32.45.62.61.95v.02s0,.03-.02,0h-.01s-.25-.18-.25-.18v.02c.14.2.28.41.38.64,0,0,0,0,0,.02,0,.01-.02.02-.02,0h0c-.11-.07-.21-.16-.36-.2.35.44.62.93.77,1.49-.17-.13-.28-.31-.48-.42l.24.55.19.46s0,0,.02.02c0,.02-.02.02-.03,0,0,0,0,0-.01-.01l-.46-.35c.25.46.61.85,1.08,1.12-.22-.37-.41-.72-.55-1.13l.33.34c-.05-.42-.15-.8-.32-1.16-.1-.2-.23-.37-.34-.56l.32.23c-.08-.25-.22-.44-.35-.65.09.02.13.08.2.11v-.02ZM89.15,167.54s-.03.02,0,.02v-.02ZM87.08,169.92c-.15-.18-.26-.37-.35-.59-.2-.51-.23-1.04-.12-1.59-.12.19-.17.4-.21.63-.14.77.23,1.46.88,1.89-.02-.12-.06-.21-.05-.33.25.38.53.64.96.81l-.12-.28s0,0,0-.02c0-.02.02-.02.02,0h0c.26.29.58.49.95.6l-.11-.22s0-.01-.01-.02c0-.02.02-.02.03,0h0c.33.27.57.4,1.01.47-.11-.08-.19-.16-.28-.25l-.22-.22c0,.08.05.12.05.17,0,0,0,.01.01.02,0,.01-.02.02-.03,0,0,0,0,0-.01,0-.4-.24-.7-.57-.97-.96,0,.26.1.49.21.7,0,0,0,0,.02.01,0,.02-.02.03-.03.01,0,0,0-.01-.01-.01-.42-.24-.69-.63-.93-1.05-.03.26.04.48.12.72-.39-.25-.65-.74-.79-1.16-.07.23-.04.45,0,.66,0,0,0,0,0,.02,0,.02-.02.02-.02,0h-.01ZM89.17,168.02h0s0,.02,0,.02h0s0-.02,0-.02ZM89.8,168.07v.02s.01-.02,0-.02ZM97.65,170.72c-.12-.41-.34-.72-.59-1.02-.45-.49-1.06-.8-1.72-.81.56.16,1.03.42,1.45.8.34.31.6.66.86,1.03ZM89.47,169.09h0s0,.02,0,.02h0s0-.02,0-.02ZM95.95,170.18c.32.18.57.42.8.69s.41.56.6.87c-.08-.37-.25-.69-.46-1-.45-.64-1.15-1.05-1.93-1.13-.73-.07-1.3.14-1.83.66.4-.2.79-.37,1.23-.42.55-.06,1.1.06,1.59.33ZM90.28,170.11h0s0,.02,0,.02h0s0-.02,0-.02ZM87.09,172.8s.03-.04.05-.05l-.21-.26s.04-.04.08-.06l-.19-.18s.06-.05.12-.06l-.19-.16s.05-.05.03-.07c-.02-.02-.08-.04-.08-.08,0-.03.07-.04.11-.04l-.17-.18s.08-.03.13-.05l-.18-.16s.07-.03.11-.04l-.13-.14s.08-.02.12-.02c0-.04-.05-.05-.06-.07l-.11-.17c.06-.01.09,0,.13,0l-.06-.1c-.01-.06-.05-.1-.1-.14.03-.04.08-.04.13-.04l-.1-.13.02-.04s-.03-.03-.04-.04l-.24-.29.11.34c-.07,0-.12-.03-.19-.04l.17.28h-.18s.17.19.17.19l-.15.04.19.22c-.07.01-.12.02-.17.05l.2.2-.16.07.23.22-.14.08.25.2-.13.06.23.2s-.06.05-.09.07l.18.12s-.03.08-.05.1l.21.15-.06.06c.07.04.13.06.2.12l-.05.06c.1.05.16.13.26.2-.03-.08-.05-.11-.06-.17l-.13-.24ZM87.59,172.26c.12.01.21.12.34.06-.53-.21-.75-.86-.88-1.39-.04-.18-.05-.36-.07-.54-.07.45-.03.9.12,1.32.03.08.05.14.07.22.07.23.2.43.34.62.14.14.29.23.45.33.17,0,.34.04.53,0-.36-.08-.68-.29-.91-.61ZM97.41,174.48c0,.09-.04.16,0,.24.06-.55.02-1.08-.12-1.6-.23-.84-.73-1.72-1.49-2.17-.27-.16-.56-.25-.86-.3-.79-.14-1.52.04-2.12.57.31-.09.55-.23.84-.29.84-.25,1.92-.05,2.54.58.77.79,1.15,1.88,1.2,2.97ZM88.66,171.7c-.26-.15-.45-.35-.65-.6.14.42.47.7.85.91.23.12.44.27.7.31.26.09.54.08.8,0l-.42-.08c-.29-.06-.56-.15-.81-.3-.18-.11-.33-.25-.48-.4-.02.06.02.1.03.15,0,0,0,.01,0,.02,0,.01-.02.02-.02,0,0,0,0,0,0,0ZM87.45,171.21s-.02.01,0,.03v-.03ZM87.46,171.23h-.01s.09.22.09.22c.05.2.13.38.24.55.32.47.81.84,1.38.9l.53-.04c.38.24.85.38,1.27.22-.33-.05-.62-.13-.92-.25l.15-.05c-.12-.01-.21-.01-.32-.04-.31-.1-.58-.27-.82-.47h-.02c.14.25.35.39.58.56-.3-.04-.56-.14-.83-.25-.39-.16-.74-.41-1-.74-.06-.08-.12-.16-.14-.24,0,0,0,0-.02-.02.01.03.04,0,.02-.01l.02.02.14.11c.18.11.36.19.58.22-.35-.16-.66-.38-.91-.67ZM90.36,171.46s-.02.02,0,.03v-.03ZM90.37,171.47v.03c.28.37.54.76.77,1.18.55,1.03.95,2.15.97,3.33.17-1-.11-2.14-.57-3.05-.27-.55-.64-1.19-1.17-1.49ZM98.05,173.55c.07-.33.05-.64,0-.96-.08-.38-.19-.74-.39-1.07l.15.68c.1.45.17.88.23,1.35ZM92.4,172.53c-.22-.37-.52-.66-.9-.86-.05-.03-.11-.03-.17-.04.34.27.6.6.83.96.39.61.64,1.28.72,2v.44c.17-.86-.03-1.75-.49-2.5ZM96.96,175.35c.09-.42.07-.83,0-1.25-.11-.44-.26-.85-.51-1.23-.21-.32-.5-.56-.84-.75-.59-.33-1.43-.5-2.08-.33.81.06,1.64.23,2.31.7.18.12.33.25.45.43.19.27.31.55.41.86.17.51.26,1.03.26,1.57ZM89.03,172.24s-.02.01-.01.02v-.02ZM91.56,174.29l-.36-.03c-.25-.02-.48-.08-.73-.16l.27-.11c-.22.01-.4.03-.62,0v-.06s-.29-.02-.29-.02c-.29-.08-.57-.18-.84-.34.14-.01.27.02.42-.02-.47-.11-.9-.29-1.3-.56-.09,0-.16-.02-.26-.05l.18.22c.13.15.29.26.47.34l.31.13c.09.04.18.05.26.11l-.18.03c.26.2.55.33.88.36h.46s-.02.03-.04.05l.2.1c.35.2.79.21,1.16.02ZM90.95,173.93l.23-.08c-.33-.04-.63-.14-.95-.3l.17-.05-.35-.03c-.42-.03-.79-.17-1.17-.4.1.16.28.24.45.32.18.09.37.13.58.12.2.13.4.22.63.27.13.03.25.05.36.1-.02.02-.02.05,0,.05,0,0,.04,0,.05,0ZM92.48,175.73c.19-.67.14-1.42-.2-2.06.09.38.14.73.16,1.1.02.32.07.63.04.96ZM93.63,174.55c-.03-.28-.13-.52-.3-.73.11.25.21.49.3.73ZM89.11,174.54s-.04,0-.02.02l.02-.02ZM89.12,174.54l-.02.02c.07.12.16.23.26.33l.38.43-.22-.09h-.01c.27.42.66.72,1.12.89,0,0,0-.01.01-.01-.18-.12-.36-.25-.51-.43h.21c-.1-.05-.2-.1-.28-.19.07-.02.12.01.17,0l-.36-.23.13-.02c-.12-.06-.23-.1-.3-.2h.16c-.26-.14-.5-.31-.73-.49ZM89.5,175.23h.02s-.02,0-.02,0ZM88.65,178.13c-.1-.03-.27.07-.31.12-.09.13-.14.27-.14.42.1-.21.3-.22.35-.41.07.01.13,0,.19-.04.11-.06.26-.09.39-.08h.25c.21.03.42-.04.52-.22l.38-.67.33-.66s-.07-.07-.1-.09l-.43-.31c-.07-.05-.13-.11-.2-.13-.03.1-.06.22-.15.27l-.28.16c-.19.15-.36.3-.51.49.05.17.21.16.24.19.05.05-.23.15-.48.06l-.17.31c-.04.07.06.15.13.16.22.04.48-.06.63.07.09.08.13.21.15.33-.06,0-.13,0-.17-.02-.06-.04-.1-.11-.18-.12-.17-.04-.33.03-.44.18ZM90.64,176.13h.03s-.02.02-.03,0ZM87.14,177.79c-.19.03-.31-.08-.46-.09.02.13-.18.09-.21.26.1-.05.19-.07.28-.01.15-.16.35-.08.39-.16ZM87.02,178.25c.25-.04.48-.1.68-.25.11-.09.34.06.54-.1-.15.01-.27.03-.4-.03-.03-.01-.08-.03-.11,0l-.3.16c-.13.05-.27.05-.4-.02-.03.07-.08.09-.13.14-.1.09-.16.24-.15.38.06-.1.13-.25.27-.27ZM86.61,178.72l-.04-.23c0-.14.09-.26.17-.36-.03-.04-.04-.07-.04-.11l-.14.1c-.1.07-.15.17-.15.29,0,.15.07.28.21.32ZM88.71,178.89c-.04-.15.06-.24.21-.28l.38-.12c-.07,0-.15-.05-.22-.04-.14.02-.28.04-.42,0-.06.05-.14.07-.19.14.09,0,.16-.04.24.02l-.16.14c-.12.11-.21.27-.17.44.01.07.08.14.13.16-.07-.33.13-.26.2-.45ZM88.83,179.31c.07-.17.22-.37.39-.37.14,0,.27-.06.38-.16.27.11.46-.1.56-.04s.21.08.32.07c.09-.01.13.04.18.08.06.04.07.07.1.12.09.12.16.24.19.4.18-.3.03-.41,0-.52-.03-.09-.06-.2-.16-.24l-.31-.14s-.04.06-.01.07c.15.1.33.11.43.34.01.02-.03.04-.05.03l-.04-.02s-.08-.11-.14-.14c-.19-.11-.36-.08-.55-.19-.04-.02-.23.19-.52.07-.16.11-.36.19-.51.07-.05.07-.11.1-.19.13,0,.14-.1.26-.06.45ZM91.73,180.17l-.17-.27c-.05-.11-.12-.21-.23-.26-.14-.07-.22-.19-.24-.34l-.1.21c.02.13.15.21.26.25.14.06.21.14.28.27.04.07.13.11.19.16v-.03ZM89.62,180.32l-.69-.39c-.25-.16-.53-.17-.81-.09-.07.02-.13.02-.2.06-.22.12-.43.23-.63.4l.48-.16c.19-.06.38-.12.57-.12s.38.09.58.14l.68.18s.01-.02.01-.02ZM91.74,180.18v.03s.03-.01,0-.03ZM89.65,180.33h-.03s.01.01.03,0Z"/>
      <path class="cls-3" d="M112.59,170.11s-.08.14-.14.15c-.07,0-.14-.1-.15-.15-.01-.05.01-.07.03-.09.03-.03.06,0,.11,0,.03,0,.07-.04.11-.01.03.02.06.05.04.11Z"/>
      <path class="cls-3" d="M112.15,166.54c-.02.06-.07.06-.11.09v.48c0,.45-.19,1.01-.6,1.25-.08.04-.16.04-.25.03-.26-.01-.5.12-.67.32-.28.35-.22.71-.33,1.03-.15.44-.44.67-.54,1.25l-.05.48c-.01.11.04.23.14.29.33.18.72.21,1.11.17l-.04.17c-.04.15-.07.3-.14.44-.09.2-.2.45-.04.61.09.08.2.05.3,0-.02.07-.05.14-.1.18-.2.18-.49.15-.67-.06-.03.18-.09.32-.22.42-.09.07-.2.12-.32.1.16-.15.26-.33.24-.54-.01-.14-.07-.26-.11-.39-.07-.21-.07-.41-.03-.65-.12.17-.13.38-.09.58.03.16.02.32-.07.46-.1.15-.26.25-.45.22.27-.18.34-.49.19-.76-.1-.19-.1-.4-.03-.6.06-.18.07-.36.03-.55l-.08-.4c-.08-.39.06-.77.35-1.05.23-.22.38-.48.4-.8l.03-.42c.02-.3.17-.56.41-.73l.28-.17c.46-.29.54-.61.55-1.14s.16-.95.64-1.2c-.26.03-.46.21-.58.43-.11.2-.16.42-.17.65-.02.5-.06.85-.53,1.14l-.24.15c-.24.15-.39.4-.45.68-.09.46.05.78-.39,1.24l-.13.14c-.25.26-.36.61-.31.97.02.17.06.32.11.48.11.36,0,.72-.27.97-.14.13-.21.32-.19.52-.15-.11-.17-.29-.14-.46-.21.14-.48.17-.69.03.05-.02.1-.02.15-.04.3-.08.47-.35.41-.66-.06-.33-.31-.58-.38-1.08-.05-.41.1-.81.41-1.08.11-.1.23-.17.35-.25.23-.15.33-.4.27-.67-.03-.13-.05-.26-.07-.4-.05-.44.15-.85.53-1.09.31-.2.63-.23.84-.41.16-.14.23-.34.23-.55l-.02-.42c.01-.51.33-.95.83-1.03.16-.02.31-.08.45-.17.08-.06.17-.09.27-.09.16,0,.32.02.48.07.08.03.14.08.19.14.06.09.03.19-.01.27.1.11.2.25.17.41,0,.02.02.05.03.05.02,0,.03-.02.06-.04,0,.04-.03.05-.05.08.08.17.39.19.43.27.02.03.01.08-.01.1l-.11.11s0,.1.03.12c.03.02.05.04.06.07l-.02.09s.05.05.04.08c-.02.08-.06.08-.07.12-.02.06.1.08.1.19,0,.14-.12.21-.27.24l-.26.05c-.11.23-.16.53-.08.76.04.11.15.18.27.16.19-.03.39-.2.73-.2h.36c.13,0,.26-.04.36-.13l.22-.18c.13-.11.26-.21.42-.28.04-.02.09-.04.11-.08l.26-.55c.11-.22.21-.44.35-.64s.31-.4.48-.59c.05-.06.09-.12.1-.21-.13-.16-.15-.36-.09-.56.05-.16.07-.34,0-.49-.02-.05-.04-.1-.01-.14.03-.04.09-.05.14-.03.11.05.16.17.16.3,0,.08-.02.15.02.24.27-.16.03-.51.13-.82.02-.05.06-.08.11-.09s.1.04.11.09l.06.36s.03.03.02,0c.09-.08.06-.24.2-.38.05-.05.12-.05.17,0,.03,0,.08-.03.12,0,.03.02.05.06.04.1l-.06.21s.09-.04.13-.02c.04.02.05.08.03.12l-.21.45c-.07.23-.18.43-.34.6l-.28.29c-.14.2-.23.42-.3.65l-.17.52c-.19.6-.43,1.05-.92,1.45-.24.2-.49.37-.76.53l-.5.3.18.16c.08.07.26.06.27.21.03.37-.1.82-.45,1-.01.16-.04.32-.09.47l-.18.49c-.08.23-.09.47-.03.7.05.17.14.31.25.45l.33.44c0,.16-.12.33-.25.42-.3.2-.7.15-.95-.11l-.14.17c-.28.26-.71.26-.98-.03-.14.12-.33.15-.49.07-.14-.08-.24-.21-.26-.37.05-.17.12-.31.2-.47.14-.24.28-.51.29-.79.28-.09.55-.14.83-.17.32-.02.61-.07.85-.28.11-.1.22-.19.31-.31.05-.06.07-.14.03-.15-.01,0-.03,0-.04.01-.11.17-.38.44-.55.51s-.36.1-.55.11c-.3.02-.58.07-.87.16-.36.11-.72.2-1.1.26h-.08c-.31.05-.82,0-1.08-.12-.07-.03-.1-.17-.09-.24l.06-.27c.04-.62.36-.87.53-1.32.13-.35.08-.68.3-1.01.18-.26.48-.38.79-.31l.4.09c-.3.31-.44.69-.31,1.1-.07.03-.12.06-.17.11.11.37.26.73.52,1.02.15.03.32,0,.46-.02l.19-.19c.07-.08.15-.13.26-.17-.05-.04-.09-.08-.1-.13,0-.04.01-.08.04-.1.03-.03.07,0,.11,0,.03,0,.08-.04.12,0,.06.04.04.12,0,.18.24,0,.31-.23.44-.21.04,0,.08.05.08.1,0,.07-.02.14-.08.19l-.14.12c.1.02.18-.02.25-.08l.32-.24c.08-.06.14-.01.21.01.04.01.1-.02.14.03.03.04.04.09,0,.14l.05.09c.03-.12.06-.23.06-.35-.05,0-.09,0-.13-.04.2-.05.34-.16.45-.33s.15-.38.14-.58c0-.15-.18-.13-.26-.22l-.11-.12-.3-.23c-.19-.14-.33-.32-.39-.55-.02-.09-.1-.13-.18-.1l-.26.1c-.22-.01-.4-.2-.43-.42s0-.43.07-.65c-.18-.04-.43-.12-.49-.28.17.1.33.16.52.17s.5.01.55-.12c.04-.11-.13-.12-.08-.26l-.23-.06c.12-.07.16-.17.25-.22-.03-.03-.06-.06-.06-.1-.01-.1.12-.14.13-.24-.26-.1-.46-.16-.49-.45-.02-.22-.19-.39-.4-.41-.08,0-.14.04-.17.11l-.08.11c0,.21-.16.28-.14.39.02.13-.03.23-.09.33-.05.1,0,.21.06.31-.1-.01-.14-.11-.16-.2-.04,0-.14.05-.14.11,0,.12.12.22.23.25h.12ZM117.33,164.4c0-.05,0-.08.02-.12l.11-.24c.05-.11.08-.23.15-.34-.04-.01-.05,0-.07.03-.09.09-.1.2-.15.3s-.11.2-.12.32c-.08-.04-.15-.04-.23-.03-.05-.07,0-.16-.01-.24l-.04-.2-.02-.2c-.05.07-.04.15-.04.23l.02.3c.01.15-.05.28-.19.34-.03.01-.06,0-.09-.04-.04.09.08.16.11.32.04-.07.02-.14-.01-.22.11-.04.18-.11.22-.23.07.05.12.02.18.02h.15ZM117.5,164.46l.11-.21.12-.24c-.09-.04-.13.14-.19.22-.05.07-.07.14-.1.22-.03.07-.1.13-.07.22l.12-.2ZM116.62,164.31c.04-.15-.05-.31-.12-.29-.04.01.08.16.12.29ZM111.01,165.77c.2-.42.57-.59,1.03-.61-.24-.07-.49-.04-.71.08-.35.19-.5.62-.44,1.02.03-.17.05-.32.13-.48ZM113.39,166.51c-.03-.06-.09-.04-.16.02.06.02.12.02.16-.02ZM111.58,167.55v-.33c.01-.14.05-.26.09-.4-.15.16-.19.37-.19.57,0,.24-.06.45-.19.65.19-.1.26-.3.3-.49ZM108.6,172.44c.21-.16.25-.43.22-.66-.02-.13-.07-.24-.13-.37-.09-.21-.15-.42-.15-.65.01-.36.2-.68.49-.89.13-.09.24-.18.34-.3.26-.34.12-.68.14-1.06.02-.33.18-.63.44-.84s.52-.27.7-.43c.12-.1.22-.24.23-.4-.06.09-.1.19-.18.26-.1.09-.23.16-.36.21-.38.15-.72.35-.87.75-.07.19-.1.39-.07.59l.04.32c.03.27-.08.53-.3.68l-.23.16c-.41.28-.62.76-.51,1.25s.46.79.17,1.36ZM113.22,170.36c-.1.1-.22.16-.35.18-.15.03-.28.11-.38.22l-.14.16c-.21.05-.42.05-.64.04l-.16-.2c-.05.05-.08.11-.12.17-.04,0-.09,0-.13,0-.18-.03-.35-.04-.55-.03.18-.22.32-.45.45-.69.04-.07.04-.09-.02-.21-.13.31-.3.58-.52.83-.03.03-.05.09-.1.11-.16.06-.32.12-.42.28.05,0,.09-.01.13-.03.25-.11.52-.17.79-.15l.58.05c.25.02.5,0,.73-.09.11-.04.19-.29.51-.39.2-.06.29-.13.43-.31-.04-.01-.07.03-.1.06ZM113.03,170.75c.26.08.45-.07.66-.23l.2-.16c-.07-.01-.12.04-.17.07l-.32.23c-.15.08-.34.03-.36.1ZM113.72,170.71l.33-.33c-.08-.01-.13.03-.17.08-.13.13-.25.25-.41.35,0,0-.02.03-.01.04.03.03.19-.07.26-.15ZM113.84,170.84l.22-.25s.01-.04,0-.04c-.01,0-.04,0-.05,0-.14.16-.29.31-.46.43,0,0-.01.03,0,.04.02.03.22-.1.3-.19ZM109.71,172.2h0s0,.01,0,.01h0s0-.01,0-.01ZM110.59,173.3c-.31-.12-.36-.48-.29-.82-.1.17-.14.38-.07.56.06.15.19.28.36.26Z"/>
      <path class="cls-3" d="M107.56,180.14l.29-.41c.29.08.58.08.87-.02.17-.05.32-.13.47-.22.25-.14.5-.2.8-.24-.28-.07-.55,0-.8.1l-.39.17c-.27.09-.56.12-.84.03.3-.45.73-.8,1.25-.88.13-.02.26.03.39.06.34.13.73.25,1.1.2l-.56-.19c-.21-.07-.41-.12-.62-.17-.14-.04-.25-.16-.37-.25.22.03.43,0,.63-.11.24-.12.52-.11.75.02l.17.1c.38.28.87.33,1.33.22.29.2.65.26.99.16.22.22.51.32.83.31l.28-.03c-.47.34-1.02.53-1.6.59-.41.04-.83-.11-1.12-.41.05.2.19.34.36.44h-.53c-.43,0-.83.1-1.19.33l-.36.23c-.2.13-.4.25-.61.36-.51.25-1.07.36-1.64.31-.28-.02-.56-.07-.83-.19.4-.07.72-.23.97-.53ZM108.89,180.28l.32-.26c.26-.21.54-.36.87-.43-.33-.03-.63.09-.89.27l-.37.29c-.3.23-.65.34-1.04.37.4.09.79-.02,1.12-.24Z"/>
      <path class="cls-3" d="M114.55,175.49c-.35,0-.66-.13-.89-.39-.22.3-.56.47-.93.45l-.35-.3c-.22-.19-.41-.39-.57-.64.5.18,1.01.06,1.25-.42.17.2.39.33.65.36.32.03.63-.09.83-.35.23.19.53.26.83.18.06.23.1.46.13.7-.23.28-.58.43-.95.42Z"/>
      <path class="cls-3" d="M111.54,174.06c.22.1.45.11.66,0-.22.02-.43-.02-.6-.15l-.13-.13c-.03-.21-.05-.42,0-.64.07.16.19.27.32.32.17.06.34.03.48-.07.34.32.87.27,1.13-.12.19.16.43.23.66.2.31-.03.56-.23.67-.53.24.36.44.75.56,1.16-.28.08-.57,0-.78-.17-.12.15-.26.26-.43.32-.4.14-.83-.02-1.06-.38-.23.55-.83.72-1.36.5l-.13-.32Z"/>
      <path class="cls-3" d="M114.55,177.01c.21.21.5.3.81.24-.05.13-.07.28-.14.38-.24.21-.56.27-.87.23-.22-.03-.4-.14-.57-.26-.17.04-.38.1-.57.03.17-.31.24-.65.18-1,.16-.04.29-.12.4-.26.41.31.98.24,1.27-.19.14.09.29.16.46.15-.01.21-.04.41-.09.62-.26.16-.59.16-.87.03l-.02.02ZM114.56,176.99s-.03,0-.03.01h.03Z"/>
      <path class="cls-3" d="M110.43,178.06c-.19-.08-.37-.11-.56-.05l-.23.09c-.26.11-.55.11-.8-.02-.2-.17-.36-.36-.51-.58-.13-.2-.24-.41-.32-.65.18.14.38.17.58.06.39.38.96.41,1.44.17l.15.42c.06.2.14.36.25.56Z"/>
      <path class="cls-3" d="M114.52,178.68c-.47.27-1.09.23-1.48-.14-.26.09-.54.08-.79-.05.35-.14.63-.37.84-.68.22.08.45.07.67-.02.12.11.25.19.4.24.3.1.61.07.9-.07-.14.27-.31.5-.53.71Z"/>
      <path class="cls-3" d="M113.77,176.16c-.12.13-.26.23-.44.25-.08-.24-.22-.44-.39-.64.3-.03.56-.17.73-.41.39.38.96.47,1.44.23.16-.08.28-.19.4-.34.03.29.03.57.03.86-.19.03-.35-.03-.5-.14-.11.15-.24.25-.4.32-.29.12-.61.08-.88-.12Z"/>
      <path class="cls-3" d="M109.98,176.96c-.48.22-1.04.11-1.4-.27-.18.12-.41.1-.56-.04l-.12-.12-.18-.6c.25.17.55.18.8,0,.26.21.6.29.93.18.23.23.41.51.54.84Z"/>
      <path class="cls-3" d="M108.49,175.74c-.18.12-.38.15-.58.08-.13-.04-.24-.12-.33-.22-.1-.23-.24-.42-.42-.6.13-.04.24-.03.35,0,.63.17,1.3.51,1.78.97-.29.05-.58-.03-.8-.23Z"/>
      <path class="cls-3" d="M112.53,165.78l.17-.12c-.07-.01-.08.05-.15.08,0-.08.09-.12.18-.16-.09-.04-.2-.02-.29.03-.03.02-.05.04-.09.04.16-.24.5-.17.46-.09,0,.01-.02.02-.05.03l.05.06s.04-.04.07-.04l-.05.11c0,.06.01.09.04.12.01.01.01.05.05.07h-.09c-.08.01-.16.01-.24-.04h.15s-.06-.06-.08-.1c-.06.05-.11.07-.18.07,0-.02.02-.03.03-.04l-.02-.02s-.02-.02,0-.02c.01-.01.02-.02.03-.02.01,0,.02.01,0,.02h-.02s.02.03.02.03Z"/>
      <path class="cls-3" d="M112.29,169.81c-.02.07-.09.16-.16.17-.07-.01-.13-.09-.16-.15s0-.1.03-.13c.04-.04.09,0,.13,0,.04,0,.08-.04.12-.01.03.02.06.05.04.12Z"/>
      <path class="cls-3" d="M112.22,170.37c-.02.06-.08.14-.14.16-.06,0-.13-.08-.16-.13s0-.09.02-.12c.04-.04.08,0,.12,0,.04,0,.07-.04.11,0,.03.02.06.05.04.11Z"/>
      <path class="cls-3" d="M112.91,169.74c-.02.06-.08.15-.15.17-.06-.01-.13-.09-.15-.15-.02-.05,0-.1.03-.12.04-.03.08,0,.13,0,.04,0,.07-.03.11,0,.02.01.06.05.04.11Z"/>
      <path class="cls-3" d="M113.53,169.89c-.11-.01-.21-.19-.13-.26.04-.03.08,0,.12,0s.08-.04.12,0c.03.02.06.07.04.12-.02.05-.08.14-.14.14Z"/>
      <path class="cls-3" d="M114.36,169.67c-.02.06-.09.15-.15.17-.12-.05-.2-.18-.13-.26.04-.04.08,0,.13,0,.03,0,.07-.04.11,0,.03.02.06.05.04.11Z"/>
      <path class="cls-3" d="M111.87,170.07c-.01.05-.07.15-.14.16s-.14-.09-.16-.15c-.01-.05,0-.09.03-.11.04-.03.07,0,.12,0,.03,0,.07-.04.1-.02.02.02.06.04.05.11Z"/>
      <path class="cls-3" d="M114.01,169.38c-.02.07-.08.13-.15.17-.12-.07-.2-.19-.13-.26.04-.04.08-.01.13,0,.03,0,.07-.04.11,0,.02.02.05.06.04.11Z"/>
      <path class="cls-3" d="M114.02,170.03c-.02.05-.08.14-.15.14-.08,0-.15-.1-.16-.17,0-.05.02-.07.05-.09.03-.02.07.02.11.01.03,0,.08-.03.11,0,.02.02.05.05.03.11Z"/>
      <path class="cls-3" d="M114.61,169.33c-.02.06-.08.13-.13.15-.06-.01-.12-.09-.14-.14-.02-.05,0-.09.02-.11.04-.04.08,0,.12,0,.03,0,.07-.04.11-.01.02.02.05.06.03.11Z"/>
      <path class="cls-3" d="M113.09,170.16c-.06.01-.13-.08-.15-.13s0-.08.03-.1c.04-.03.08,0,.11,0,.04,0,.07-.03.11,0,.04.03.05.06.03.11-.02.04-.06.12-.13.14Z"/>
      <path class="cls-3" d="M113.2,169.62s-.07-.1-.1-.15l-.09-.14c.1.03.17.09.24.15l-.05.14Z"/>
      <path class="cls-6" d="M134,174.31c-.26-.31-.49-.62-.69-.97-.29-.49-.49-1-.32-1.57.14-.46.43-.84.82-1.12.17-.12.34-.19.54-.23.63.32,1.26.52,1.96.33.25-.07.48-.17.7-.31.27-.08.54-.03.77.12.64.41.82,1.22.5,1.89s-.87,1.14-1.56,1.37-1.64.7-2.03,1.35l-.22-.31-.47-.56Z"/>
      <path class="cls-6" d="M130.96,170.93c-.1-.19-.16-.38-.22-.58-.11-.36-.2-.72-.34-1.07-.22-.55-.61-1.13-1.2-1.27-.07-.02-.13,0-.18-.04.03,0,.05-.02.07-.04.11-.11.21-.23.31-.35l.19-.23.23-.28c.33-.39.82-.92,1.28-1.1.15-.06.31-.07.46-.01.14.24.33.45.56.6.2.13.35.29.46.51.1.2.16.4.21.62l.17.72c.08.34.19.65.35.96.19.36.45.66.8.9-.35.14-.65.36-.89.66-.2.15-.39.28-.61.38-.61.3-1.33.24-1.66-.39Z"/>
      <path class="cls-6" d="M141.52,169.3c-.35.78-.82,1.38-1.69,1.6-.54.14-1.09.08-1.59-.17-.11-.15-.25-.25-.41-.36.28-.07.54-.19.78-.35.67-.45,1.21-1.21,1.42-1.99l.15-.57.16-.46c.36-.45.93-.63,1.48-.41.33.13.6.38.82.66l.1.14s-.05.05-.09.07c-.33.2-.65.73-.81,1.09l-.34.75Z"/>
      <path class="cls-6" d="M137.29,170.23c.4-.38.65-.91.75-1.45l.15-.77c.13-.68.27-1.22.84-1.67.2-.16.38-.35.5-.57.01-.02,0-.04,0-.07.54-.24,1.1-.16,1.6.13-.57.26-.95.93-1.12,1.51l-.23.79c-.19.56-.5,1.05-.93,1.45-.25.23-.52.41-.84.54-.23.08-.46.13-.74.12Z"/>
      <path class="cls-6" d="M136.74,170.38c-.33.17-.67.27-1.05.26l.08-.34c.18-.62.39-1.22.66-1.81.14-.31.29-.59.5-.85.3-.37.68-.67,1.12-.83l.42-.15-.16.28c-.12.27-.21.54-.26.83l-.19.95c-.06.28-.14.54-.27.79-.19.38-.48.67-.86.88Z"/>
      <path class="cls-6" d="M134.86,169.17l-.44-.97c-.17-.37-.34-.71-.48-1.11.73.41,1.5.61,2.3.33.28-.09.51-.23.77-.38l-.52.91c-.2.36-.35.73-.5,1.12-.17.45-.32.89-.44,1.35-.27-.41-.5-.82-.7-1.26Z"/>
      <path class="cls-6" d="M135.47,170.63c-.44-.08-.86-.25-1.23-.49-.3-.19-.53-.45-.71-.75-.13-.22-.21-.44-.29-.68-.08-.25-.13-.5-.19-.76l-.15-.59c-.05-.18-.12-.34-.22-.5l.35.11c.32.13.59.34.81.62l.28.42c.12.22.22.44.32.67.14.32.28.62.43.93.17.36.38.68.6,1.03Z"/>
      <path class="cls-6" d="M133.62,165.93c-.28-.08-.54-.2-.8-.33-.37-.19-.65-.44-.57-.88.03-.13.09-.24.13-.36.02-.04.02-.04.05-.07.14-.17.3-.31.5-.41.61-.31,1.26-.21,1.89.04-.17.12-.31.25-.44.39-.11.13-.24.22-.41.28-.17.06-.33.13-.46.25-.17.16-.26.38-.22.6.04.19.16.33.31.48Z"/>
      <path class="cls-6" d="M136.2,167.26c-.37.13-.74.15-1.12.08-.49-.09-.93-.3-1.33-.59-.17-.24-.39-.42-.63-.59l-.32-.21c-.11-.09-.22-.18-.3-.32.29.16.56.3.87.41.86.32,1.76.5,2.68.53.5.02.98-.05,1.46-.2l-.26.25c-.3.29-.65.5-1.05.64Z"/>
      <path class="cls-6" d="M138.36,165.8c.18-.18.29-.4.33-.65.04-.26-.08-.48-.32-.58-.19-.08-.39-.08-.6-.06-.06,0-.14-.03-.19-.04-.03,0-.05-.06-.06-.09l.13-.09c.06-.04.16-.05.21-.11.02-.02.03-.01.06-.02.19-.06.37-.1.57-.07.35.05.67.25.86.55.22.33.22.74.01,1.07-.15.24-.35.43-.59.58-.2.13-.41.21-.64.29-.34.12-.64.29-.92.51.18-.31.4-.56.65-.8l.51-.5Z"/>
      <path class="cls-6" d="M135.75,164.53c-.25-.08-.49-.14-.74-.14-.08,0-.14.02-.21.03h-.08c-.07.02-.14.02-.2.06-.01,0-.03,0-.05-.01.22-.23.46-.43.75-.56,0-.03.03-.04.05-.02.24-.09.48-.15.75-.14.57.03,1.1.35,1.39.84.09.15.15.32.12.49-.03.21-.18.38-.38.47.13-.28-.07-.51-.29-.69-.33-.22-.71-.33-1.12-.32Z"/>
      <path class="cls-6" d="M133.81,167.26c-.24-.23-.51-.39-.82-.51l-.47-.18c-.54-.21-1.14-.89-.76-1.42l.19-.19s.08,0,.11-.02c.06.69.4,1.04.97,1.38.35.22.63.52.77.94Z"/>
      <path class="cls-6" d="M135.47,165.19c.22.14.55.08.55-.08,0-.04-.04-.07-.07-.1-.09-.06-.18-.07-.27,0-.02.02-.02.07-.02.09-.04.02-.09,0-.11-.03-.02-.03-.03-.08,0-.12.08-.1.22-.14.34-.1.15.05.32.15.3.28,0,.04-.03.08-.08.1-.32.16-.66.19-.97,0-.12-.07-.14-.22-.06-.33.07-.09.16-.14.27-.17.45-.16,1.08,0,1.46.28.09.07.17.16.21.28.07.2-.18.37-.35.39l-.32.04c-.18-.28.14-.54-.05-.77s-.62-.34-.85-.09c-.09.1-.09.25.03.32Z"/>
      <path class="cls-6" d="M136.51,166.38c-.46.03-.89,0-1.33-.07.2-.34.67-.4,1.05-.41.29,0,.56-.06.84-.15l-.22.22c-.13.13-.24.25-.34.41Z"/>
      <path class="cls-6" d="M137.77,166.02c-.2.19-.72.3-1.02.34.13-.17.27-.31.42-.46.25-.26.52-.5.55-.88.28.29.33.73.05,1Z"/>
      <path class="cls-6" d="M135.5,165.51c-.33.14-.74.12-1.02-.11-.21-.17-.22-.47-.02-.64.23-.2.54-.24.84-.17-.28.1-.48.29-.42.55.06.25.35.33.62.37Z"/>
      <path class="cls-6" d="M134.94,166.26c-.25-.03-.48-.07-.71-.15-.11-.04-.2-.14-.3-.2l-.19-.13c-.16-.1-.26-.27-.27-.47,0-.27.27-.48.54-.55-.12.15-.21.31-.21.51,0,.24.14.43.33.56.08.05.14.11.23.14.22,0,.43.09.58.29Z"/>
      <path class="cls-6" d="M138.12,165.78l.02-.25c-.02-.22-.1-.42-.24-.58l-.22-.25c.19-.02.36-.03.53,0,.22.05.34.24.29.46s-.19.43-.37.61Z"/>
      <path class="cls-6" d="M134.47,165.82c-.3-.09-.55-.32-.5-.62.03-.16.12-.3.25-.41-.13.25-.07.53.14.7.13.12.29.19.48.23-.12.05-.24.07-.38.09Z"/>
      <path class="cls-6" d="M135.19,166.03l-.27-.03-.15-.07c.2-.13.42-.2.65-.25.19-.04.38-.05.55.08l-.36.06c-.15.03-.29.1-.42.21Z"/>
      <path class="cls-6" d="M135.79,165.19l-.07-.07c.02-.05.1-.07.14-.02.03.04-.02.11-.07.09Z"/>
      <path class="cls-6" d="M134.39,176.94l-.33-.16c.13.13.28.21.44.29l.28.44-.42-.15c.15.12.32.2.5.27l.25.48s.03.04.04.04.06,0,.06-.04l.3-1.08c.05-.16-.02-.25,0-.39.16-.23.28-.47.37-.74.19-.54.3-1.09.3-1.67l.26-.11.28-.1v.93s-.19.7-.19.7l-.17.58s.11.03.16,0c.29-.29.6-.56.93-.82l.64-.02c.31,0,.61-.06.89-.16-.46.04-.88.05-1.33.03.36-.27.72-.51,1.1-.72.5,0,.98-.04,1.46-.21-.4.05-.79.1-1.19.08.38-.2.75-.35,1.13-.5.44-.18.9-.4,1.21-.79-.25.19-.51.37-.81.49l-.65.27.27-.58c-.19.2-.31.43-.46.65-.33.13-.64.27-.96.44.06-.23.17-.43.26-.66-.19.23-.31.49-.44.75-.74.41-1.4.92-2.02,1.52l.31-.78.26-.6s.02-.02.03-.02c.04,0,.03.08.07.11.1-.24.22-.47.38-.67.05.05.03.08.06.14.14-.25.29-.5.51-.72.05.07.02.13.04.2l.31-.39c.07-.09.15-.16.26-.23.02.1,0,.18,0,.27l.34-.35c.09-.09.2-.16.32-.21.02.05,0,.1-.02.16l.19-.09s.04.07.03.12c.18-.13.35-.26.57-.34l-.04.3.37-.24s.02.07.03.12c.17-.13.31-.27.49-.38l-.07.31.35-.23s.04.05.04.09c.27-.15.5-.33.76-.52-.02.28-.15.51-.29.73h.14c-.09.18-.23.3-.37.44l.14.02c.09.01-.35.42-.48.53l.24.05c-.09.15-.21.26-.32.38-.02.02-.02.05-.04.06l-.15.11s.07.09.03.12l-.15.13s-.02.02-.02.03c0,.03.05.03.06.06.04.09-.45.31-.65.38.06.03.13.04.19.09-.22.14-.45.23-.71.29.06.05.11.05.15.12-.25.12-.51.18-.78.21.03.04.07.05.08.1-.33.13-.68.14-1.03.1-.19-.02-.37-.04-.56-.03-.41.02-.79.18-1.1.46-.18.16-.35.34-.42.58-.14.42-.18.86-.2,1.29l-.22.09c-.12.36-.18.73-.2,1.11-.33.3-.69.61-1.09.77-.02-.04,0-.06.01-.09.22-.44.56-1.17.64-1.63.03-.19-.05-.36-.23-.44l-.34-.14-.2-.11s.06-.04.09-.06c-.18-.09-.35-.18-.47-.34.05-.04.09-.03.14-.05-.17-.14-.32-.27-.41-.47l.16-.02c-.14-.18-.24-.36-.33-.57.08-.02.14.02.2.02-.1-.17-.19-.32-.23-.5.04-.02.07,0,.1.01l.02-.02c-.05-.19-.1-.38-.1-.58,0-.02.01-.07.03-.06l.42.45s.01-.06.04-.08l.29.41c.02-.05.02-.09.06-.11l.25.4s.08-.07.09-.07c.05,0,.19.32.25.47.05,0,.06-.04.09-.07.09.2.15.39.15.62.03-.02.04-.04.08-.04.02.13.06.26.03.38l-.07.43c-.15-.32-.35-.61-.54-.92-.04-.13,0-.29-.07-.43v.32c-.25-.3-.45-.61-.67-.95.06.24.2.45.34.64l.18.25s0,0,0,0c.02.01,0,.03-.01.01h0ZM133.56,175.87h-.02s.03.02.02,0Z"/>
      <path class="cls-2" d="M156.61,179.76l-.16-.08c.12-.07.22-.14.32-.24l-.11-.07s-.04-.05-.02-.08c.07-.14.12-.27.16-.43.04-.17-.12-.55-.22-.74l-.3-.6c-.17-.34-.25-.69-.32-1.06l-.23-.35c-.23-.36-.3-.8,0-1.14.12-.13.24-.23.39-.33.37-.38.75-.73,1.16-1.07l.59-.49c.03-.12.06-.24.14-.34-.23-.23-.38-.52-.46-.84-.19.09-.36.23-.51.38-.03.03-.08.02-.1,0l-.28-.33s-.02-.06,0-.08l.3-.48c.13-.25.23-.52.26-.81-.06.06-.14.11-.21.14-.11.18-.23.35-.46.32-.25.19-.54.4-.77.14-.08-.09-.17-.17-.26-.25-.44-.35-.61-.56-.91-1.02l-.61-.94c-.17-.02-.28-.11-.39-.25l-.32.41c-.07.09-.21.09-.31.05-.2-.08-.36-.22-.49-.4-.05-.07-.08-.2-.02-.28l.51-.68c-.07-.18-.08-.36.1-.42,0-.1.06-.19.17-.21,0-.13.09-.19.2-.21.03-.07.09-.14.16-.15.08-.01.15.03.21.09.11-.16.2-.27.39-.26l.34-.44c.05-.07,0-.12.05-.15.02,0,.05,0,.07.03.05.07.11.11.17.16.12.08.19.08.19.13,0,.02-.03.05-.05.05h-.07s-.32.45-.32.45c.04.1.1.2.09.3,0,.12-.1.2-.16.3.05.09.12.19.14.29l.1.5c.01.06.03.15.07.2.13.15.28.27.43.39l.56.47c.02-.1.11-.15.17-.2,0-.1,0-.2.06-.27.05-.06.12-.1.2-.09l.08-.29c.04-.14-.21-.84.59-1.13.11-.04.2-.13.27-.21v-.28c-.1.09-.21.14-.34.14-.18,0-.29-.13-.3-.31-.06.01-.12.02-.16,0-.03-.02-.05-.08-.07-.12-.04,0-.09,0-.11-.03-.06-.04-.02-.14-.05-.16-.04-.03-.2.06-.31-.07-.06-.08-.04-.17,0-.25.06-.12.07-.26,0-.37-.1-.07-.16-.15-.24-.24l.09.2c-.07,0-.1-.05-.15-.08-.1-.07-.19-.16-.21-.29-.02-.13.01-.26.09-.37-.03-.12,0-.24.05-.35.05-.07.12-.13.18-.19.1-.24.29-.4.55-.46.12-.08.25-.15.39-.17.18-.03.36.01.49.14.31-.24.73-.08.91.25.1.08.17.17.23.28.12.2.16.41.18.63.02.2.1.37.27.49-.04.07-.09.08-.18.1l.2.25c.23-.05.43,0,.61.15l.51.1h.58c.22-.05.44-.01.63.08.16.08.28.19.4.32l.27.28c.19.05.36.1.53.17.12-.06.24-.04.35.04l.21.18c.26,0,.5.16.56.41l.39.33c.09.08.11.2.09.31-.02.11-.01.2.02.3.18.57.23,1.15.16,1.74l-.07.61c-.01.09,0,.17.03.25.15.51.28,1.15.02,1.62l-.23.32s-.07.06-.1.06c-.04,0-.08-.02-.12-.05l-.09.1s-.1.04-.15,0c-.1.09-.2.16-.28.09-.03-.03-.04-.08-.04-.12-.05,0-.1,0-.13-.02-.11-.07-.06-.29.06-.42.06-.06.1-.13.12-.22.05-.15.08-.29.05-.45-.06.05-.11.11-.15.18-.1.19-.28.37-.47.3l-.02.02.19.35c.15.29.53.58.78,1.12.13.27.17.56.17.86v.45c0,.17.07.34.14.5.01.02-.01.07-.03.08-.02,0-.07,0-.1,0l-.04.11s-.07.05-.1.04l-.05-.03s-.01.11-.05.14c-.02.02-.07,0-.09-.01-.24-.21-.28-.6-.27-.92,0-.21,0-.4-.03-.6-.05-.22-.15-.41-.27-.59-.1-.26-.16-.52-.18-.8l-.05-.35c-.07-.29-.27-.52-.52-.67l-.09.12c.09-.02.13-.02.18.03.22.2.34.48.36.78.02.24.07.45.14.68.12.37.17.75.15,1.14l-.03.58c-.02.37.11.8.4,1.04.01,0,.03.04.03.05,0,.04-.08.07-.18.04l-.04.07s-.06-.03-.12-.02c-.02,0,.03.12,0,.12h-.07s-.02.01-.02.01c0,.03,0,.08-.01.11-.17-.02-.33-.21-.42-.36-.22-.39-.26-.85-.16-1.29l.08-.35c.07-.28.03-.58-.06-.85-.11.24-.22.43-.35.64-.27.4-.56.77-.86,1.14l-.23.31c-.05.07-.08.21-.01.28.17.15.34.28.49.46.16.2.29.41.38.65l.22.67c.06.18.12.35.2.52l.3.46.23.34s-.04.08-.06.09c.04.12.04.22.03.33l-.02.18c-.24.12-.48.18-.73.24l-.18-.14s-.06.02-.07.04l-.08.09c-.12.14-.25.25-.43.31-.34.11-.71.13-1.06.05-.13-.03-.25-.08-.34-.17-.03-.03-.02-.11,0-.16.07.08.14.13.24.17.32.11.66.12.99.04.22-.05.41-.15.58-.3.09-.08.18-.14.29-.19h.12c.2-.03.38-.09.55-.2l.1-.1c-.05.01-.11.03-.16.05-.2.09-.41.13-.62.16-.24.04-.38.35-.79.46-.29.08-.59.09-.88.02-.14-.03-.29-.09-.38-.19-.03-.14.11-.26.24-.26h.3c.05,0,.1.07.16.04l-.12-.06c.11-.06.21-.14.31-.23l-.12-.09c-.07-.05.13-.23.19-.42.05-.16-.03-.32-.14-.43-.3-.31-.54-.64-.77-1-.09-.15-.2-.27-.35-.37-.32-.22-.58-.57-.56-.97,0-.13.06-.25.1-.37l.18-.61.24-.72c.09-.28.13-.55.17-.84l.07-.57c-.1.14-.13.31-.16.47l-.09.55-.08.33-.22.17c-.44.34-.93.6-1.44.83-.02.08.01.14.07.2.3.34.48.66.56,1.12l.06.56c.02.16.02.32.06.48.05.19.15.36.24.53l.21.38c.04.07-.01.09,0,.15l.03.25-.02.26c-.25.12-.5.19-.76.24l-.2-.17c.06-.05.12-.09.2-.09.23-.02.45-.08.65-.2l.09-.08s-.08,0-.11.02c-.22.11-.45.14-.68.18-.21.04-.39.33-.69.44-.27.1-.56.13-.85.08-.13-.02-.28-.07-.36-.17-.06-.13.06-.29.2-.31.1-.01.21-.02.3.01l.2.08.02-.02ZM157.83,166.99l-.2-.08c.15.49.54.45.67,1.03l.1.45c.04.2.12.37.24.55.06-.37.07-.74.07-1.12,0-.19.04-.37.11-.54.16-.34.21-.69.07-1.05.04,0,.07,0,.1-.01-.14-.04-.25-.07-.34-.17l-.2-.2c0,.13.03.25-.05.37-.07-.21-.15-.4-.31-.56,0,.15-.04.28-.12.41h-.06s-.01-.13-.13-.29c-.07-.1-.12-.2-.16-.32-.03.08-.11.13-.18.11-.01,0-.03-.02-.03-.03,0-.05.13-.06.13-.18v-.26c-.01-.08-.05-.17-.11-.23-.07-.07-.17-.07-.23,0-.08.08-.08.2-.03.3.05.11.08.22.08.35-.05.04-.1.06-.16.09-.03-.23-.15-.39-.3-.54-.17-.16-.25-.39-.21-.62-.1.07-.19.13-.29.21-.1.08-.18.05-.3.17-.04.05-.08.09-.14.12l-.22.11c.01.2.05.38.21.49.19.13.2.39.08.59-.03.04,0,.1.03.13.04.02.09,0,.12-.03.05-.06.1-.07.18-.08l-.02-.12s.1.03.1.07c0,.04-.02.09-.06.11l-.08.04c.06.06.07.1.09.19l.28-.16s.02-.03.02-.04l-.03-.04s.11-.02.15,0c.02,0,.04.06.03.07-.01,0-.04.01-.06.02-.05.08-.15.18-.23.24-.01,0,0,.05,0,.05.06.02.11-.05.15-.02s.06.09.07.13c0,.11.08.18.2.18.31,0,.58-.56.65-.88.04.22-.01.42-.11.61.17.09.31.19.44.32.02.02.04.06.01.08ZM161.7,171.1l-.09-.44c-.03-.17.03-.29.17-.41-.22.06-.39.19-.57.31-.31.22-.56.49-.78.8-.02.03-.06.06-.1.05-.02,0-.06-.03-.08-.05-.14-.19-.28-.35-.45-.51l-.3-.24s-.05-.09-.05-.12l.06-.45c.03-.26.02-.51-.06-.77l-.21-.7c-.1-.34-.16-.67-.17-1.04-.08.07-.07.18-.15.25-.03-.19.08-.37.24-.46.24-.14.54.05.78.2-.06-.26-.15-.48-.26-.7s-.24-.44-.4-.63l-.18-.11c-.09-.05-.18-.09-.29-.07.16.1.25.23.28.41.04.3,0,.59-.13.86-.08.16-.12.32-.12.51,0,.37,0,.72-.06,1.08-.08.61-.28,1.04-.24,1.71.03.54.15,1.15.46,1.59.23.33.59.51.98.58l.37-.11c-.21-.06-.47-.36-.38-.44.07-.06.25.09.35.18l.21.19c.19-.07.37-.16.55-.27-.1-.06-.16-.15-.18-.27.14,0,.23.08.32.17l.17-.12.18-.16c.12-.26.15-.54.11-.83ZM161.14,168.31c.13.07.25.13.39.16.03-.49.22-1.01.55-1.37-.15-.07-.31-.1-.47-.15-.11-.08-.2-.2-.3-.29-.23-.23-.5-.42-.83-.4-.06,0-.1.03-.12.08-.06.12-.08.25-.08.39.02.25.07.48.14.72.15.51.35,1.08.75,1.43v-.39c-.2-.09-.35-.3-.32-.53.09.14.16.25.28.34ZM158.34,172.27l.16.18c.11.12.21.23.27.38.11.26.33.45.62.49-.09-.16-.17-.29-.07-.44-.02-.19-.14-.33-.27-.45-.51-.51-.66-1.5-.63-2.2.01-.22.05-.43.09-.64l.08-.41-.13-.23c-.11-.2-.19-.41-.24-.64l-.08-.38c-.04-.2-.16-.35-.32-.47-.2-.17-.34-.39-.37-.64l-.13-.07c-.03.09-.04.18-.04.28,0,.31-.06.6-.2.88.11-.02.2-.07.29-.13.17-.12.37-.19.53-.06.1.08.16.19.16.32l-.13-.17c-.1-.13-.28-.14-.41-.05l-.07.05c-.08.49-.06.97.02,1.45l.09.56c.03.26,0,.52-.02.78-.04.51.01,1.02.21,1.5.16.4.48.68.88.8l.02-.02-.16-.26c-.09-.12-.15-.25-.19-.38h0s.01-.02.01-.02v.02ZM153.25,167.62c.12-.07.01-.2.08-.24l.07.08c.11-.04.05-.12.07-.21.15.07.07-.08.18-.15l-.02-.1s-.02-.03-.02-.04c-.04-.03-.11.06-.14.18-.04-.02-.09-.03-.12-.01-.02.01-.04.06-.05.09v.11c-.06-.01-.09-.01-.12.01-.06.05,0,.14-.04.18-.04,0-.09,0-.11.02-.05.05-.02.2.04.23.13,0,.04-.13.08-.22l.09.08ZM162.39,168.27c.15-.3.42-.61.75-.71-.09-.14-.24-.22-.4-.21-.06.02-.13.05-.17.1l-.25.32c.02-.2.12-.38.29-.49l-.15-.13c-.07-.06-.17-.06-.25,0-.23.16-.4.54-.49.82-.07.22-.1.44-.08.67.01.11.1.21.22.18-.01-.09-.02-.17.02-.26.08.02.05.19.16.3.08.07.22.04.27-.05-.08-.17-.01-.38.07-.55ZM156.03,171.14c.2-.07.37-.18.49-.35.2-.28-.11-.97-.47-1.13.07.16.15.33.07.49-.12-.28-.24-.52-.44-.72-.15-.14-.3-.26-.45-.39-.18-.15-.34-.29-.51-.45-.05-.05-.09-.12-.1-.19l-.09-.47c-.02-.12-.06-.24-.13-.33-.06-.08-.12-.17-.19-.23-.09-.07-.2-.11-.29-.19-.05.03-.05.09-.04.14.02.11.12.13.19.2.08.07.11.22.12.33l-.04.12s-.04.07-.07.1l-.4.52.05.08c.09.14.24.19.4.14.02.04,0,.07-.03.1l.44.67c.14.22.27.43.42.64s.33.39.54.55c.13.11.25.21.37.34.04.04.1.09.17.06ZM157.19,169.98l-.06-.8c-.02-.4,0-.79.07-1.19l-.2.02s-.08-.05-.06-.09c.1-.17.16-.35.19-.56-.09.06-.17.11-.27.15-.37.14-.5.47-.43.86,0,.06,0,.11-.01.16l-.09.3c.38.28.64.72.85,1.15ZM152.77,168.29c.2.17.38.31.58.46l.66-.83-.46-.37-.13.04c-.01.07-.07.14-.15.14,0,.1-.09.17-.18.16l-.32.41ZM163.25,172.69l.12-.28c0,.16-.03.31-.11.44l-.14.22s-.07.08-.04.14c.19-.13.33-.31.38-.53l.11-.45c.06.27-.02.5-.14.76.21-.18.27-.45.33-.71.03.2-.02.39-.11.56-.03.06-.06.11-.05.18.29-.27.39-.6.36-.98-.02-.32-.1-.61-.18-.91-.03-.11-.01-.23,0-.34l.07-.59c.06-.53,0-1.05-.17-1.56-.04-.13-.06-.25-.03-.38.02-.08,0-.17-.07-.22l-.42-.33c-.3.1-.52.39-.66.66-.05.11-.08.21-.09.33l.24.15.07.9c.04.29.1.56.18.84l.12.44c.02.07.03.17,0,.24-.05.12-.26.21-.3.53-.02.13-.06.25-.13.36l-.17.25c.04.05.11.05.17.01.09-.05.14-.14.19-.23.07-.13.23-.31.35-.27.08.2.06.41,0,.61-.04.12-.09.22-.17.31-.06.07-.1.15-.08.24l.14-.13c.09-.08.17-.17.24-.27ZM161.68,168.95l.42.91c.18.32-.11.63-.33.91l.07.4c.02.24,0,.47-.08.71.13.06.2.17.24.31l.09.06.18.18c0-.06.02-.11.06-.14.12-.11.23-.36.26-.52.05-.42.36-.46.31-.64l-.13-.47c-.1-.36-.19-.71-.21-1.08l-.04-.63s-.06-.04-.07-.04c-.04.04-.08.08-.13.1-.14.08-.29.04-.4-.07-.08.03-.16.03-.22,0l-.02.02ZM156.87,170.59l.04-.29c.08.06.08.15.1.24.21-.14.15-.43.04-.65-.13-.26-.3-.51-.5-.73-.09-.11-.29-.27-.38-.24-.07.02-.09.13-.07.22.1.04.2.08.25.21l-.2-.07c-.06-.02-.13-.02-.18.03-.04.03-.07.11-.05.17.11.02.2.05.29.12.27.2.45.5.51.83.03.16,0,.29-.06.45.11-.06.2-.16.22-.28ZM161.68,168.94h.01s-.01,0-.01,0ZM159.04,176.19l.29-.97c.1-.34.2-.66.24-1.01l.1-.76c-.09.16-.12.32-.15.5-.07.39-.15.76-.26,1.14l-.2.68-.15.54c-.05.2-.04.41.04.6.07.16.17.28.29.4l.36.37c.3.38.57.78.84,1.19.1.16.17.35.14.53-.02.13-.13.22-.19.34l.11.07s.07,0,.09,0c.58.22,1.11.11,1.62-.22l-.21-.31c-.16-.23-.3-.46-.4-.73l-.21-.62-.19-.48c-.09-.19-.22-.35-.36-.5l-.38-.34c-.1-.17-.08-.37.04-.52l.35-.46c.21-.27.37-.56.52-.86.3-.61.47-1.37.18-2l.05.41c.07.6-.12,1.2-.39,1.73-.18.36-.4.68-.63,1l-.19.3c-.08.16-.06.34.07.47l.32.33c.17.17.3.37.4.59.12.27.21.53.3.82.13.44.35.83.66,1.17l-.33.14-.28-.74-.21-.55c-.21-.52-.5-.98-.87-1.4-.28-.31-.39-.62-.32-1.04.04-.24.13-.45.21-.68l.27-.76c.14-.39.26-1.03.18-1.43l.37-.17c.06.53,0,1.03-.16,1.52l-.3.73c-.1.25-.24.48-.32.75l.27-.5c.43-.81.78-1.59.55-2.52.17-.1.32-.21.47-.33l.1-.03c.16.19.24.44.25.69s.05.5.14.75l.11.46c.01-.14-.01-.27-.05-.4-.08-.29-.1-.57-.11-.87,0-.28-.1-.55-.3-.74-.12,0-.14-.18-.28-.3l-.08.06c.09.08.13.16.17.27-.17.14-.34.25-.54.36-.5.26-1.04.43-1.61.4v.08c.44.07.87-.05,1.29-.21-.02.48-.11.93-.25,1.39l-.3.87c-.07.19-.13.38-.16.58-.07.36.02.71.24,1l.36.47c.26.34.46.7.61,1.1l.17.45c.1.26.19.5.32.75-.13.05-.26.08-.4.09,0-.67-.24-1.29-.59-1.84-.18-.28-.38-.52-.6-.77-.29-.35-.52-.69-.43-1.16l.16-.56c.13-.42.25-.83.35-1.25l.13-.71c.01-.07.01-.14,0-.22-.05.05-.07.11-.08.18-.14.73-.32,1.43-.55,2.14l-.11.42c-.08.49.1.81.4,1.17l.28.33c.44.53.79,1.15.91,1.84l.08.45c-.15.02-.27,0-.4-.02l.08-.42c.02-.28-.13-.65-.27-.9-.19-.33-.4-.64-.66-.91l-.39-.41c-.1-.1-.19-.21-.26-.33-.1-.18-.13-.38-.07-.58l.12-.4c.12-.39.25-.76.34-1.15s.17-.79.22-1.2c0-.04,0-.08-.02-.13-.08.19-.12.38-.16.58-.08.43-.16.86-.3,1.28l-.28.88c-.16.49,0,.81.35,1.15.47.47.99,1.09,1.2,1.72.08.23.09.46.03.71l-.02.11-.3-.08.12-.24c.09-.19.01-.44-.11-.61l-.46-.68-.4-.52-.15-.16c-.24-.24-.55-.47-.57-.87,0-.14.02-.29.07-.43ZM160.1,172.33v-.02s0,.02,0,.02ZM160.12,172.32l-.02.02c.05.08.11.15.21.17-.05-.08-.13-.14-.2-.19ZM160.33,172.51h0s0,.01,0,.01h0s0-.01,0-.01ZM162.37,172.56h.02s-.02,0-.02,0ZM159.7,172.81l-.31-.13.07.16.24-.03ZM156.77,174.3c.26-.24.53-.46.81-.69.17-.13.31-.26.46-.42l.15-.34-.06-.03-.15.32-.59.5c-.4.32-.77.65-1.11,1.03,0,.01.04.04.05.03l.04-.04.4-.37ZM158.67,172.95h.01s-.01,0-.01,0ZM156.65,174.94c.3-.31.6-.58.93-.85.22-.18.43-.37.62-.58.12-.15.21-.3.26-.48l-.02-.04s-.03.02-.03.03c-.1.24-.24.43-.43.6l-.6.51c-.21.18-.43.36-.61.57l-.17.2.06.03ZM158.13,178.53c-.12-.21-.15-.44-.17-.67l-.08-.69c-.05-.28-.16-.53-.32-.75-.05-.06-.08-.13-.14-.17.1.2.21.37.28.58.09.26.12.52.16.79l.06.52c.02.17.06.34.15.48l.32.53-.29.11-.12-.34c-.1-.27-.17-.54-.24-.82l-.17-.74c-.08-.34-.18-.65-.31-.97-.12-.3-.18-.57,0-.85.08-.13.2-.23.31-.33l.73-.65c.17-.18.33-.34.45-.57-.18.2-.34.38-.54.56l-.66.57c-.12.1-.22.21-.31.34-.13.17-.18.38-.15.59l.09.35c.17.47.3.94.41,1.44s.21.98.46,1.43c-.13.05-.26.07-.4.07v-.14c-.02-.28-.06-.54-.13-.81-.12-.48-.28-.94-.44-1.41-.1-.28-.19-.54-.24-.83-.07-.35,0-.7.23-.98.14-.18.29-.32.46-.48l.64-.6c.24-.22.55-.63.58-.97-.17.39-.42.7-.73.98l-.67.61c-.14.13-.26.27-.37.42-.24.35-.3.7-.21,1.11.07.31.17.61.27.91l.25.75c.14.43.22.85.3,1.29l.02.13c-.14,0-.25,0-.38-.04.07-.24.08-.48.03-.72-.05-.21-.11-.41-.19-.61l-.21-.51c-.13-.32-.26-.64-.37-.97h-.06s.09.37.09.37c.12.36.26.69.41,1.04.19.46.35.89.23,1.39l-.26-.05.09-.28c.03-.09.04-.19.02-.29-.04-.19-.09-.37-.18-.54l-.22-.46c-.18-.36-.33-.73-.43-1.12h-.06c.06.38.19.73.36,1.07l.23.45c.1.21.25.59.22.79-.02.15-.08.28-.14.42l.1.07s.08-.01.12,0c.17.05.34.09.52.1.34.02.66-.09.94-.27l-.35-.64ZM158.91,174.5c-.39.34-.75.67-1.17.95-.1.09-.21.13-.31.23.51-.28,1.16-.68,1.48-1.18ZM156.24,175.88s-.05-.02-.05-.04c0-.01.02-.03.04-.03h.04s0-.05,0-.05h-.03s-.05-.01-.05-.01c-.01,0,0-.04,0-.05,0,0,.02,0,.03-.01h.05s.08-.24.08-.24l-.06-.05s.02-.06.04-.05l.06.03.09-.12s-.04-.04-.05-.05.03-.05.04-.04l.06.04.11-.11-.2-.17-.08.06v-.09s-.06-.07-.09-.06c-.03.03-.05.06-.09.04l.04-.09-.07-.02-.31.28c-.12.13-.18.29-.17.47.01.15.05.3.13.43l.24.36.06.12s.04.02.05.02.02-.03.02-.04v-.04s.04,0,.05,0c0,.02.02.06.04.06.01,0,.05-.02.05-.02v-.06s.02-.01.03,0l.04.06.13-.04-.06-.11h-.07s-.02-.04-.01-.04c.01,0,.05-.03.04-.04l-.02-.05c-.03-.08-.06,0-.12-.04-.03-.02.06-.06.05-.08l-.02-.05-.02-.05s-.04,0-.05,0ZM159.24,177.41l-.25-.24c-.14-.17-.23-.37-.22-.59l.05-.3c-.26.47.04,1.03.52,1.26-.02-.06-.05-.09-.09-.13ZM162.59,176.87h.02s-.02,0-.02,0ZM156.62,179.78h0s-.02,0,0,0Z"/>
      <path class="cls-2" d="M155.87,180.22s-.03-.12,0-.17c.08.1.16.16.28.19.42.11.98.04,1.31-.25.06-.05.11-.11.19-.15-.07.13-.17.23-.28.32-.37.29-1.24.33-1.51.05Z"/>
      <path class="cls-2" d="M155.04,166.15s.03.06.03.08-.04.06-.06.05c-.14-.09-.27-.2-.4-.31,0-.02.02-.06.03-.07.02,0,.07,0,.08,0l.31.24Z"/>
      <path class="cls-2" d="M159.04,176.19c-.04.15-.07.29-.07.43.01.4.33.63.57.87l.15.16.4.52.46.68c.12.18.2.42.11.61l-.12.24.3.08.02-.11c.05-.24.05-.47-.03-.71-.21-.63-.73-1.25-1.2-1.72-.35-.34-.51-.66-.35-1.15l.28-.88c.13-.42.21-.85.3-1.28.04-.2.07-.39.16-.58.02.04.02.08.02.13-.05.41-.13.8-.22,1.2s-.22.77-.34,1.15l-.12.4c-.06.19-.03.4.07.58.07.12.16.23.26.33l.39.41c.26.28.47.59.66.91.14.25.29.62.27.9l-.08.42c.13.03.26.04.4.02l-.08-.45c-.12-.69-.47-1.3-.91-1.84l-.28-.33c-.3-.36-.48-.68-.4-1.17l.11-.42c.23-.7.41-1.41.55-2.14.01-.07.03-.12.08-.18.01.09.01.15,0,.22l-.13.71c-.1.43-.22.84-.35,1.25l-.16.56c-.09.47.13.82.43,1.16.21.25.42.49.6.77.35.55.6,1.17.59,1.84.14,0,.27-.04.4-.09-.13-.25-.23-.5-.32-.75l-.17-.45c-.15-.4-.35-.76-.61-1.1l-.36-.47c-.23-.29-.31-.64-.24-1,.04-.2.1-.39.16-.58l.3-.87c.14-.45.22-.91.25-1.39-.42.16-.85.28-1.28.21v-.08c.56.02,1.1-.14,1.6-.4.19-.1.37-.22.54-.36-.04-.11-.08-.19-.17-.27l.08-.06c.14.13.15.31.28.3.2.19.3.46.3.74,0,.3.03.58.11.87.03.13.06.26.05.4l-.11-.46c-.09-.25-.13-.49-.14-.75s-.08-.5-.25-.69l-.1.03c-.15.12-.3.23-.47.33.24.93-.11,1.71-.55,2.52l-.27.5c.07-.28.21-.5.32-.75l.3-.73c.17-.49.23-.99.16-1.52l-.37.17c.08.4-.04,1.04-.18,1.43l-.27.76c-.08.23-.17.44-.21.68-.07.42.04.73.32,1.04.37.42.66.88.87,1.4l.21.55.28.74.33-.14c-.32-.35-.53-.73-.66-1.17-.08-.28-.18-.55-.3-.82-.1-.22-.23-.42-.4-.59l-.32-.33c-.12-.13-.15-.31-.07-.47l.19-.3c.24-.32.45-.64.63-1,.27-.53.46-1.13.39-1.73l-.05-.41c.29.63.11,1.39-.18,2-.15.31-.31.59-.52.86l-.35.46c-.12.15-.14.36-.04.52l.38.34c.14.16.26.31.36.5l.19.48.21.62c.09.27.24.5.4.73l.21.31c-.51.33-1.04.44-1.62.22-.02,0-.07,0-.09,0l-.11-.07c.06-.12.16-.21.19-.34.03-.18-.04-.37-.14-.53-.27-.41-.53-.81-.84-1.19l-.36-.37c-.12-.12-.22-.25-.29-.4-.08-.19-.09-.4-.04-.6l.15-.54.2-.68c.11-.38.19-.75.26-1.14.03-.17.06-.34.15-.5l-.1.76c-.05.35-.14.68-.24,1.01l-.29.97Z"/>
      <path class="cls-2" d="M158.13,178.53l.35.64c-.29.18-.61.29-.94.27-.18,0-.35-.05-.52-.1-.04-.01-.08,0-.12,0l-.1-.07c.06-.14.12-.27.14-.42.03-.2-.12-.58-.22-.79l-.23-.45c-.17-.34-.29-.69-.36-1.07h.06c.1.39.25.75.43,1.12l.22.46c.08.17.14.35.18.54.02.1.01.2-.02.29l-.09.28.26.05c.12-.5-.04-.93-.23-1.39-.14-.35-.29-.68-.41-1.04l-.09-.36h.06c.11.32.23.64.37.96l.21.51c.08.2.15.4.19.61.05.24.04.48-.03.72.13.03.24.05.38.04l-.02-.13c-.08-.44-.16-.87-.3-1.29l-.25-.75c-.1-.3-.2-.6-.27-.91-.09-.42-.03-.77.21-1.11.11-.15.23-.29.37-.42l.67-.61c.31-.28.56-.59.73-.98-.03.34-.33.74-.58.97l-.64.6c-.16.15-.32.3-.46.48-.22.28-.3.63-.23.98.05.29.14.55.24.83.16.47.32.93.44,1.41.07.27.12.54.13.81v.14c.14,0,.27-.02.4-.07-.25-.45-.36-.94-.46-1.43s-.24-.96-.41-1.44l-.09-.35c-.04-.21.02-.42.15-.59.09-.12.2-.23.31-.34l.66-.57c.2-.17.36-.36.54-.56-.11.23-.28.39-.45.57l-.73.65c-.12.1-.23.2-.31.33-.17.27-.11.55,0,.85.13.32.24.63.31.97l.17.74c.06.28.14.55.24.82l.12.34.29-.11-.32-.53c-.09-.15-.13-.31-.15-.48l-.06-.52c-.03-.27-.07-.53-.16-.79-.07-.21-.18-.39-.28-.58.06.05.1.11.14.17.16.23.26.48.32.75l.08.69c.01.24.05.46.17.67Z"/>
      <path class="cls-2" d="M156.24,175.88s.05,0,.05,0l.02.05.02.05s-.09.05-.05.08c.05.04.08-.04.12.04l.02.05s-.03.03-.04.04c-.01,0,0,.05.01.05h.07s.06.1.06.1l-.13.04-.04-.06s-.04,0-.04,0v.06s-.02.01-.04.02c-.02,0-.03-.04-.04-.06,0,0-.04-.01-.04,0v.04s-.02.03-.03.04-.05,0-.05-.02l-.06-.12-.24-.36c-.08-.13-.12-.27-.13-.43-.01-.18.05-.34.17-.47l.31-.28.07.02-.04.09s.06,0,.09-.04c.03,0,.1.04.1.06v.09s.07-.06.07-.06l.2.17-.11.11-.06-.04s-.04.03-.04.04.01.02.05.05l-.09.12-.06-.03s-.04.04-.04.05l.06.05-.08.23h-.05s-.03.01-.03.02c-.01,0-.01.04,0,.05h.05s.03.01.03.01c0,0,.02.03,0,.03h-.04s-.03.03-.04.04c0,.01.03.04.05.04Z"/>
      <path class="cls-2" d="M156.65,174.94l-.06-.03.17-.2c.18-.22.4-.39.61-.57l.6-.51c.19-.17.33-.36.43-.6,0,0,.03-.04.03-.03l.02.04c-.05.19-.14.34-.26.48-.19.21-.4.39-.62.58-.32.27-.63.54-.93.85Z"/>
      <path class="cls-2" d="M156.77,174.3l-.4.37-.04.04s-.04-.02-.05-.03c.35-.37.72-.71,1.11-1.03l.59-.5.15-.32.06.03-.15.34c-.15.15-.29.28-.46.42-.28.22-.55.44-.81.69Z"/>
      <path class="cls-2" d="M158.91,174.5c-.32.5-.96.9-1.48,1.18.09-.1.21-.15.31-.23.42-.28.78-.6,1.17-.95Z"/>
      <path class="cls-2" d="M159.24,177.41s.08.07.09.13c-.48-.24-.77-.79-.52-1.26l-.05.3c0,.22.08.43.22.59l.25.24Z"/>
      <rect class="cls-9" x="160.32" y="172.51" width="0" height="0" transform="translate(-75.03 163.9) rotate(-45)"/>
      <path class="cls-2" d="M156.46,165.37c-.11-.02-.21-.15-.34-.13-.12.02-.24.18-.29.09-.02-.04,0-.08.03-.1.08-.04.15-.1.24-.11.16,0,.3.11.36.25Z"/>
      <path class="cls-2" d="M156.35,165.45c0,.21-.27.29-.27.23v-.05s-.08-.14-.08-.14c-.01-.02-.01-.04,0-.08l.13.17.21-.14Z"/>
      <path class="cls-2" d="M157.33,165.02c-.08.07.12.15.04.28,0,0-.03.02-.04.02-.03,0,.02-.08-.06-.16-.03-.03-.04-.08-.04-.12,0-.03.03-.09.07-.1.06-.02.11.04.12.1l-.09-.03Z"/>
      <path class="cls-2" d="M153.12,168.25l-.03-.08s.04-.06.06-.06l.09.19.2.05s-.01.06-.03.07c-.04.02-.13-.03-.12,0l.02.04.02.07s-.04.05-.06.05l-.09-.19-.21-.07s.02-.07.04-.07.06,0,.08.01h.02ZM153.11,168.27h.02s-.02,0-.02,0Z"/>
      <path class="cls-2" d="M153.46,168.34l-.09-.19-.2-.06s.01-.06.03-.07.05,0,.07,0h.04s-.04-.07-.03-.1c0-.02.04-.04.06-.05l.08.19.2.06s-.02.06-.03.07-.05,0-.07,0h-.04s0,.02,0,.03l.02.07s-.03.04-.05.06Z"/>
      <path class="cls-2" d="M153.67,167.94s.05.08.03.11c0,.02-.04.04-.06.04l-.08-.19-.2-.06s0-.05.02-.06c.02-.01.05,0,.08,0h.03s.02.01.02,0l-.02-.04-.02-.06s.05-.05.06-.04l.08.17.21.06s-.03.07-.05.06h-.08s-.03-.01-.03-.01Z"/>
    </g>
  </g>
</svg>