<?xml version="1.0" encoding="UTF-8"?>
<svg id="Layer_2" data-name="Layer 2" xmlns="http://www.w3.org/2000/svg" viewBox="0 0 288.58 248.66">
  <g id="Layer_1-2" data-name="Layer 1">
    <path d="M80.48,67.65l-.1-.47c-.11-.33-.19-.57-.4-.5l-1.29.45c-.22.19-.35-.18-.38-.92l2.86-3.17.72.69c.14.14.84-.41.71-.56s-.58-.72-.63-.93c-.36-1.33,1.72-2.85,3.24-2.68-.09-.77-.25-1.24-.02-1.41l1.05-.77c.59-1.05,1.95-2.67,3.34-2.67l-.75-.82c-.12-.13.68-.42.79-.56l2.15-2.68c.22-.27,1.1-.64,1.04-.96l-.23-1.14c.84.11,1.69-.33,1.92-1.21.4-1.58,1.31-2.3,2.23-3.48l3.89-5.01c.89.34,1.34-.11.45-.59l1.09-.73c1.35-.38,1.93-1.54,1.62-2.75l-.42-.36.54-.23.11.32c.1-.02.65-.24.5-.35l-.7-.52,1.85-2.05,2.17-3.35,5.45-7.2c.36-.48,1.94-.57,1.28-2.05,1.68-1.2,3.01-2.62,4.09-4.39l4.55-4.34c.6-1.31,1.78-2.07,3.2-2.41.36-1.58,1.83-2.04,3.33-1.67,2,.02,3.88.43,5.21,1.75l-.13,2.25c-1.79.14-2.29,1.19-2.91,2.55l-1.12,1.63-1.87,2.73-.86,1.17c-.81,1.85-2.34,2.76-4.07,3.37l-1.56,1.19c-.06,0,.02.94.32.88.23-.05,1.04-.23,1.24-.37l3.35-2.27,1.16.78c.16.11.63-.39.81-.46l.97-.41c.21-.09.55.48.52.6-.82.31-.72.48-.06.41.71-.02,1.93.21,2.08.69.13.41-.24,1.25-.53,1.59l-1.98,2.3,1.49.12.22,1.61.57-1.55.85-.44c.2-.12,0-.64-.14-1.18l1.23-.39c.23-.07.83-.18.84-.39l.05-.9-.33-.1.08-.84c.02-.16.88,0,.75.09l-.46.38.18.17c.85-1.21,2.13-2.25,3.48-2.93.21-.68.64-1.64,1.06-2.07l1.78-1.83,3.11-3.98,1.67-2,1.95-2.29c.33-.39,1.66.48,2.08.98l2.18-1.24c.07,0,.29.71.12.87l-.73.69,2.24.34-.72,3.95c-.15.8-.51,1.49-1.27,1.89l-1.85.99,3.08,1.01c1.51-.96,2.35.54,4.28-.44l1.56,1.95c-.41,1.39-1.54,2.22-2.96,2.67l3.31.25-.52.6c-.19.22.62.49.51.64-.16.22-.65.63-.59.88l.32,1.26c.06.24-1.05.55-1.05.3v-.58s-.13.04-.13.04l-1.26.9c-.53.38-1.15.67-1.92.97l.39.28-.82,1.45-1.97,2.52-.69-.87-.56,1.25-.16.05-1.33,2.04c-2.15,1.32-3.62,3.93-4.23,6.68l-1.12-.25c.63-1.32.74-1.92.36-3.11-1.23.85-1.8,1.96-1.77,3.1.66-.08,1.46-.02,1.35.26-.2.47-.44.9-.32,1.03l.54.59-2.17.41c-2.31.44-.99,2.52-3.4,3.54-.04.31-.27,1.05-.48,1.29l-2.04,2.36c-.55.63-.9,1.2-1.24,1.97-.17.28-.88.75-.85,1.07l.15,1.44c-.07.02-.64-.02-.67-.16l-.16-.75c-.17.02-.91.23-.79.45l.59,1.1-1.91,2.42,1.7-.13.45.85c.11.21-.67.52-.91.66l-2.04,1.22c-.02.47-.1,1.53-.44,1.67s-1.02.1-1.45.01l-.85-.18c-.15-.03-.19.56-.15.53l1.7.69c.31.13.33.94.16,1.18-.52-.23-1.39-.64-1.45-.3l-.24,1.26c-.04.19-.76.59-.77.4l-.03-.89c0-.28.09-.87-.15-.89l-1.36-.1,1.19,2.44-2.05-.19,1.1,1.39c.15.19.21.85-.04.87l-1.24.1.15,1.22c.03.26-.53.56-.7.65l2.01,1.01c.5-.61,1.43-1.77,2.06-2.09,2.08-1.04,4.51-3.77,6.31-5.69l3.67-3.9,1.12.05c.26.01.21-1.22.41-1.38l3.42-2.7,3.06-2.49c.17-.14,1.02.04,1.05.25l.14,1.04c1.84-.18,3.18-1.36,3.06-1.49l-.47-.52,2.64-2.53-1.47.26c-.2.04-.66-.45-.65-.65,0-.31.42-1.19.73-1.24l.91-.13c.82-1.64,3.16-2.29,4.57-4.8,1.13-2.01,2.02-2.91,4.21-3.63l-.31-1.13c-.04-.16.59-.34.7-.21l.36.46c.52-.62.87-1.03,1.27-1.36l3.01-2.43,2.16-1.75c.76-.61,1.17-1.16,1.46-2.18l2.01-1.78,2.05-.79,1.03-.92c.21-.19.87.04,1.04.27.29.35,1.32.26,1.87.05l-1.05-3.16,2.5-2.17c2.58,1.7,5.39-1.53,8.63.31.07,1.03.51,2.09,1.26,2.69l.76,1.13c1.09,1.62-.55,3.87-2.25,4.94l-3.21,2,.63-2.17-4.2,4.07c-.67.65-1.59.88-1.41,2.17l-1.37,1.13-1.92,1.27-1.76,2.54c-.37.54-1.09,1.3-.61,1.74.51.48.96,1.02.77,1.54-.12.36-.71.55-1.11.7-.48.65-1.14,1.19-2.08,1.55-.61,3.99-5.01,3.3-4.83,3.94l.34,1.18-2.78.31-.41,1.97c-.04.17-.78.28-.8.1l-.05-.53-.02-.72-.34-1.81-.35,1.81-.61,1.99-2.27.52c.39.38.97,1.08.98,1.54.01.38-.42,1.22-.67,1.49-1.04-.2-1.13.27-.41.65l-1.35,1.63c-.76.92-.68,2.41-.08,3.19l-1.94,1.79-.26-2.12-.53.14c.95-.25-2.28,2.78-3.37,4.64.53,1.14-.39,2.86-.61,2.71l-.85-.59-3.69,3.9c.77,1.13.6,2.09.03,2.9-.39.55-1.71,1.17-2.25,1.03l-1.57-1.29c-.83,2.11-1.32,3.23-3.03,4.33-.28-1.56,2.17-3.21,1.81-3.42l-.87-.52c-.15-.09-.44.45-.56.6l-2.34,2.8c-.87-.29-.83,0-.11.52l-2.72,1.63c-.08,1.7-1.29,2.91-2.37,4.17l-1.91,2.2-2.04,2.46c2.7.77,2.66-2.11,3.17-1.44l.27.35c.32.47.66,1.33.73,1.87-1.06-.14-2-.26-2.71.11-.56.3-1.04,1.44-1.3,2.19l-1.39.88c1.05.32,1.51,1.7.74,2.78l-1.01,1.43-2.78,1-.38-1.82-1.78,1.54c-.32-.06-1-.16-1.07.09l-.24.76.1.49c.24.3.92.84.72,1.13l-1.24,1.76,1.59-.42c0,.15-.66,1.15-1.07,1.13l-1.69-.09c.46-.64.92-1.35.97-1.57-.79-.23-1.74-.1-1.67.25l.29,1.3c-.11.07-.57.34-.72.22l-.65-.51-.48,1.8c-.08.31.66.47.77.47l.2,1.78c-.46.15-1.78.99-2.11,1.5-.13.2-.78-.22-.59-.38l.63-.56-.07-1.31c.24-.56.59-1.48.57-1.55l-.83,1.09c-.16.21-.72.11-1.04.06l-.7-.1c-.13-.02-.36.35-.26.43l.64.51c.4.32-.33,1.51-.73,1.78l1.35-.41-.9,1.16,1.21-.15c.18-.02.18.84.12.66l-2.31.63.55,2.47-1.76-.52.54-.8c.06-.09-.49-.05-.59,0l-.46.24-.19.2c.05.19.2,1.28-.04,1.53l-.93.95.6.6c.09.09.03.12-.1.19l-.75.37c-.19.09-.48-.15-.44-.34l.2-.93-2.86,3.39-.6-.37c-.91.44-1.51.59-2.36.71l.44,1.51c.07.52.2,1.28-.14,1.32l-1.43.13.06,1.98,1.55-.28c.15-.23.3-.08.44.44l-1.97,1.39c-.04.5,1.48,1.11,1.62.71l.53-1.48c.08-.23.99-.37,1.21-.48.17-.08-.04-.57-.07-.71,1.59-1.54,3.03-3.22,3.96-5.02l.86-.34c.14-.05.23-.06.23.05l.03,1.13c.67.17,1.7-.68,1.81-1.59.35-.29.61-.39.57-.63l-.19-1.09c1.03-.31,1.56-.79,1.75-1.98l.51,1.03c.12.24,1.13-.18,1.09-.44l-.13-.86c-.03-.17-.12-1.15-.12-.98.02.78,3.33-.66,4.31-2.58.52-1.02,1.44-1.56,2.56-2.06l.77-.34c.4-.18.59,1.69,1.47,1.87.32.07,1.35-.01,1.6-.22l2.65-2.14c.14-.11.28-.63.31-.8s-.49-.24-.59-.09c-.07.1-.25.59-.36.63l-3,1.28-2.16-1.22,1.16-1.03,2.11-2.15c.63-.65,1.08-1.2,1.6-1.99l1.79-.95c.11-1.28,1.45-1.75,2.42-1.9.89-1.39,1.88-2.89,3.59-3.45l1.36-.93-.65-.66c-.39-.4,2.04-1.25,3.12-2.82l.95.12c.07,0,2.04-1.35,1.69-3.11l1.54-1.76c1.04-.86,1.81-2.12,2.12-3.5l3.86-3.64,2.5-2.01,1.4-1.47c.32.29,1.04,1.15,1.48,1l2.1-.73-1.68-.37c-.08-.38-.1-.62-.23-.74l-.63-.57,2-.28v-.38s-1.48-.09-1.48-.09l2.05-2.85,1.78-2.48,2.52-3.49,1.57-2.07c.5-.66,1.72-1.55,2.5-2.11.82-1.99,2.37-3.35,3.59-5.26l1.65-2.57c.21-.33.95-.79,1.33-.76.3.03.54.84.64,1.37.72,1.94.12-1.86,2.75-2.47l-.93-1.51c.88-.83,1.89-1.05,2.71-1.04l1.81-2.21c.38-.46.54-.88.43-1.7h.73c.16-.01.12.3.14.46l.18,1.4,1.66-2.43c.07-.11.64-.38.76-.42s-.2-.33-.29-.42l-.56-.62c.91-.04,1.9.32,2.44.84l.5-2.56c.03-.18-.1-.74.08-.78l1.1-.21v-1c2.51-.8,2.08-2.65,3.65-3.25.43-.16,1.61.06,1.67.49l.11.85c.02.15.48.12.56-.01l.28-.52,2.94-2.42,2.27-2.21.85,1.13c1.62-.27,3.21-.4,4.83-.03.84.19,1.2,1.33.81,2.08l1.43,1.73c.18.21,1.1.15,1.2.41l.4,1.03,3.69-2.11,3.02,1.12c.33.12.78,1.08,1.11,1l1.16-.26,1.9.81-.07,2.01c.67.19,1.79,1.57,1.34,2.09l-.82.95c-.12.13.08.52.23.87.13.3-.29,1.34-.6,1.23s-.52-.31-1.06-.74l.16-.78c.04-.19-.82-.4-.87-.21l-.26,1.02-1.56-.35,1.34,1.96c.12,1.89-1.63,3.29-3.27,2.97l.84-.45c.11-.06-.12-.49-.22-.42l-.51.38-.69.52c-.15.11-.51-.1-1.09-.36v2.39c1.87-.36,2.6.7,3.04,2.01l-2.69,1.45c-.31.17-1.08.73-1.07,1.07l.03,1.19.18.11c.83.19,1.67.59,2.68,1.27-.13.32-.6.97-.95.92l-1.36-.22c-.4-.07-.63,1.1-.7,1.61l-2.71-.55.77-1.21c.17-.27.63.06,1.12.33l.88-1.89-.19-.3c-.94-.3-2.25.26-3,1.05-.29-.03-1.31-.13-1.29.19l.11,1.7-2.11,2.38-.74-.62-2.01,3.43c.82-.29,1.11-.51,1.75-.91l2.18-1.4c.91-.58,1.69-1.76,1.83-2.88l1.79,1.97-.77,3.06-2.04-.26.5,2.28-1.65-.2c-.33-.04-.38,1.18-.05,1.18h1.42s-.22.96-.22.96c-.27.08-.67.61-.91.75s-.82.02-1.19-.04l-1.1,1.94c1.14.83,2.04-1.58,3.52-1.06.85,1.93-2.24,2.85-5.07,3.46l.82.46c.12.07-.09.22-.53.57-.65-.05-.65.09.02.35-2.34.59-1.07,3.24-4.74,3.81l-2.09,3.66c-1.45,2.54-1.92-.22-4.16,1.05l.93.85-1.07.28c.16-.04.07,2,.76,2.23.26.09.86-.27,1.07-.44l2.27-1.88c.37.86.52.91.46,1.11l-.31,1.13,3.09-2,.78.37c.13.06.44-.42.33-.5l-.64-.42c-.21-.14-.35-.95-.1-.97l.74-.03.76.3c.22.09.86-.49.7-.66-.12-.13-.51-.77-.37-.87l1.04-.75c.18-.13.03-.74.1-.91.27-.19.69-.37.7-.57l.05-.87c1.31-.41,2.41-1.75,2.35-2.84l1.97-.2.21,2.28c.52-.74.6-1.28.93-1.39l1.44-.47-1.45-.86-1.33-.72,5.03-5.35,1.61-1.63,1.6-1.64,1.62-1.18c.6-1.25,1.58-1.8,3.14-1.18l-.41,1.13c1.49-.24,2.46-.54,3.53-1.24l1.86-.81-.22,1.71c-.04.3.54.53,1.14.56.08.21.15,1.14.51,1.19l1.92.26-.65,2.6c-.12.49.14,1.26.56,1.89l-2.28,1.38.31-1.75c-.95-.08-1.47,1.06-1.53,1.85l.63.21-.74,1.9.61.31-.68.34-.15-.33c-.54-.05-1.94.03-2.14.58l-.88,2.38c.16.32.45,1.54.07,1.84-.6.46-1.62.61-2.14.38s-1.14-1.18-1.38-1.7l-.47-1.04c-.07-.16-.64.29-.65.46v.77c-.02.39-.59.96-.96.94l-1.67-.1,1.06.86c.17.14-.36.65-.76,1.08-.25-.09.63.21.87.3.64.23.11-2,.65-1.6l.42.31c.1.08.16.74.29.71l1.1-.22c.25-.05.58.41,1.07.94l-2.38,2.72-.23-1.02c-.03-.15-.54-.15-.52,0l.15,1.15c-.71.74-2.33,1.61-3.57,2.01l-.58,2.01-1.4-1.54-.75,1.17-.14.16,1.34.29c-2.1,2.13-4.68-.77-4.75-.12l-.13,1.1-.11.84c-.01.12-.1.1-.19.01l-.54-.49-1,1.34,1.08.21c.3.06-1.02,1.29-.9,1.39l.63.54,1.17-1.25-.64,2.04-2.24-.09c.57-.54.95-.89.8-1.08l-.48-.6c-.1-.13-1.44.91-1,1.46.19.24.84.9.63,1.1l-1.06.98,1.8.95c.4.21,1.38-.54,1.59-.79-.49-.14-.96-.2-.94-.45.02-.18.1-.88.06-.59l2.1.56.07-2.61c0-.24.38-.76.61-.79s.84.39.66.53l-1.04.84,1.19.39c.25.08.56-.33,1.07-.7.44.17.35,1.21-.03,1.53-.3.25-1.01.12-1.57.03-.47.88.46,2.6,1.37,2.88l3.09-1.88-3.15-.1,1.92-.91-.44-3.04.64,1.07c.13.21.82-.03,1.27-.1.49-.02.78.06.09.46l1.31,1.4-.46-2.88.93,1.28c.59-2.12,2.34-3.35,4.37-4.32.7-.84,1.62-1.77,2.53-2.45.68-1.16,1.48-2.1,2.65-2.62.13-1.1.96-2.03,2.01-2.57,1.02-1.35,2.03-2.4,3.49-3.42-.58-1.99.96-3.6,2.64-4.18.15-.48.5-1.02.9-1.36l6.77-5.79,4.78-4.34c1.04-.94,2.27-1.83,3.6-1.89.39.76.97,1.47,1.54,1.42.71-.06,1.28-.26,1.77-.6.24,1.28,1.68,2.19,2.88,1.79-.27.87.38,2.36.79,1.99l.87-.78c.1-.09.09.49.16.6l.4.61c-.38,1.2.37,2.92,2,2.92.42,1.37,1.33,2.09,3.09,1.76.19.27.49.68.49.68-.86.13-1.09.14-1.14.33s.23.65.42.6l.77-.22-1.44,2.55-3.12,1.81c-.27-.28-.71-.91-.92-.79l-.96.57-2.06,1.11-.36-.19-.61,1.21.84.57c.83-.34,1.56-.53,2.26-.5l-1.87.89h2.38c-.68.79-1.26.92-1.99,1.08-.03.42-.21,1.38-.49,1.8-.25.37-1.12.54-1.47.37l-1.75.94c-.19.1-.77.19-.97.19-.14,0-.29-.43-.5-.86-.17.11-.71,1.31-.43,1.61l1.24,1.33c-.96-.06-1.44-.14-1.93.23-.35.26-.01,1.09.32,1.58l1.04,1.55c.24.35-.63,1.55-1.05,1.38-2.42-.98-2.96,1.63-4.28,1.25-.23-.07.06-.79.28-.86l.94-.3c-.97-.34-1.78-.16-2.73.48-1.26.84-3.12.93-2.13,1.53l1.12.67-1.29.52c-.25.1-.66.82-.43.97l1.13.77c-1.39.81-2.83,1.95-3.63,3.57-.39.78-1.45,1.24-2.46,1.58.76,1.69-.29,2.77-1.93,3.89l-1.09-2.2-1.97,1.23c-.64.4-.95,1.32-.91,2.09-.77.23-1.2-.11-.47-1.07-.81-.18-2.02.05-2.96.53l2.26.26-.63,1.33,2.84-.15c.21,0,.7.95.46,1.21-1.12,1.21-2.84-.67-3.93,1.94l-1.63.47-.22,1.46c-.04.27-1,.24-.99.24-.08-.48-.22-.96-.52-1.79l.62-2.16c-.95.6-2.07,1.08-2.48,1.57l-1.65,1.92-2.5,2.77c-.39-.2-1.24-.52-1.22-.24l.12,1.45c.02.3.95-.37.87-.31l.64,1.95,1.56-1c.28-.18.31-.81.63-1.83l1.24,3.11c-.34.27-.99.8-1.25.67l-1.18-.58-2.81,1.95.54.47c.15.13-.05.62-.13.81l-1.06,2.52-1.79-.58-.24,1.02c-.94-.3-1.75.05-2.61.9-.05.13.32.87.6.87l1.33-.02c.37,0-.03,1.3-.39,1.39l-1.28.29.84,1.33c-.88,1.03-1.9,1.93-3.15,2.16l-1.71,3,.3.27c.2-.18.56-.42.54-.22l-.08.74c-.01.14-.48.29-.55.18l-.29-.46-.09-.2-1.46.11c-.2.02-.5.5-.34.62l.75.55c-.1.99-.44.78-.74.19l-1.61.55c-.02,1-1.2,1.98-2.31,2.07.32-.31.74-1.28.58-1.75-.14-.4-1.22-.6-1.57-.55l-.31,2.74c-.98-.93-1.49-1.18-2.18-1.15.42,1.16.39,1.54.3,3.01l1.4-.97c.78.05.9.9.17.98-1.8,0-2.88,2.78-2.65,3.25l.75,1.62c-.57.12-1.47.18-1.56.52l-.35,1.35,1.87-.72c-1.26,1.91-3.13,3.2-4.86,4.4l-.84-1.56c-.17-.32-2.58.25-2.86,2.9l-.77-.67c-.65-.57-1.42,1.86-2.07,1.9l-1.96.13c.73,1.25,1.14,2.51-.14,3.89l-.2-2.14c-.56-.41-2.59.77-2.59.7l.1,1.14-1.25.14c-.61.07.53,2.16-.1,2.31l-1.17.29-.68.18c-.59.16.73-1.63-.25-3.25-.12-.19-1.05.24-.92.43l.42.59-.85,1.01-.99,1.35c-.33.45.99,2.5.41,2.77l-1.3.6c.93.34,1.52,2.1.81,2.66-.29.23-1.42.14-1.52.48l-.41,1.4-1-1.21-3.04,3.1-.62-.56c-.73-.66.84,1.81.23,3.46l-1.52-1.34c-.19,1.23,1.21,2.6.68,2.92l-1.22.74c.12,1.77-1.79,3.29-3.68,3.92l-.9,1.2c-.59.49-1.52,1.51-1.5,2.22.02.83.38,1.79.72,2.84l-1.55-.48.84,2.1.15.23-.14.29-.38-.45-1.99.75c-.01-.32-.29.39-.14.52l.56.47c.06.05.22.09.7.26l-.6.21-.23-.36-1.64.5-.59-2.47-.8,2.49c-.14.43-.61,1.08-.99,1.25l-1.16.49c-.23.1-.11.71.11.81l1,.47-3.16,1.61c-.62.32-1.77,1.04-2.2,1.51l-2.98,3.26c1.1-2.16-.13-3.02.57-4.38-1.7,1.24-3.24,3.05-3.45,5.12l1.58.44c-.44.54-.84,1.01-.65,1.1l1.31.62-2.17,3.12c-.37-.41-.59-.76-.44-.88l.94-.74c-.87-.12-1.7.22-2.75.95l.97.34c-.1.32-.47,1.17-.9,1.23s-1.4-.26-1.8-.52c-.8-.53-1.94-.77-2.38.6l1.85-.52-.94,1.72-1.1-.08c-.14-.01-.16-.27-.28-.88l-.96-.04c.28.62.45.95.29,1.03l-.64.33c-.52.27-1.52.79-1.49,1.31s.38,1.68.54,1.8l1.99-.88-.37-.4-1.16-.19c.55-.37.96-.64,1.04-.46l.23.48.34.4,1.84-.75.71,1.31,1.71-.4-1.26-.66c-.13-.07-.19-.31-.37-.7.02,0,.27-.01.38.01l.46.11.2-.05-.59-1c.82-.57,2.2-1.11,3.12-1.19l.06,1.38c0,.22.45.35.69.42l.24-.3c.1-.12.36-.41.49-.33l.81.5c-.35-1.24-.66-2.73-.3-3.37l3.64.99,1.6-1.82s.33.4.5.34l.51-.17.72.74c.11.11.69-.3.63-.44s-.15-.34-.26-.44l-.65-.64,2.17.45-.03-1.55,2.22-1.93,2.05-.48.17-1.75,1.16.48c.13.05.48-.41.39-.51l-.77-.86,2.67-1.93-1.6-.06,2-1.5.93-.48c.18-.09-.16-.77-.33-.74-1.39.97-3.57,2.28-5.16,2.81-.17-2.16,3.71-3.15,3.58-3.3.1.13.46.62.38.52l1-1.47.04-.2c.03-.17.12-.71.29-.7l.73.03c.2,0,.78-.41.61-.53l-.65-.45c-.38-.26-.27-1.63-.07-1.92.71.06,1.33.26,1.63.04l1.3-.97c.12.16.28.74.21.95l-.48,1.42,2.28-1.6c-.31-.42-.56-.73-.49-.91l.24-.62-.2-.7c-.05-.16.55-.24.72-.23s.07.45-.09,1.12l.75.4.29-1.39c.37.72,1.04,1.43,1.55,1.41l2.46.32c-.78.06-2.68.97-2.61,2.17.08,1.35.5,2.53.96,4.01l2.03-.94,1.43-.6c.12-.05.53-2.37.25-2.74l-.63-.82-.33-2.2.26-.7.16-.15.59-.59c.07-.07.07-.21-.03-.23l-.75-.09-1.29-.12c-.26-.02-.32-.98-.09-1.11.38-.2,1.08-.74.95-1.06l-.55-1.32s-.11-.05-.3-.14c-.04.05.28-.33.33-.39l.54.06c.58-.47,1.32-1.26,1.74-1.86l-1.32.41c-.15.05-.15-.74,0-.75.79-.01,2.55-.44,2.83-1.18l.41-1.11c.08-.22,1.66,1.17,3.89-1.17l1.38.98.15-.26v-1.47s-2.87-.21-2.87-.21l2.11-2c-1.02.01-.95-.3-.33-.54.4.02,1.13.05,1.08-.14l-.23-1.01,1.88-.64-1.35-.75,1.81-1.4c1.22-.04,2.05-.63,2.84-1.47.15.93.33.92.6.59.94-.8,1.29-1.17,1.9-1.92l2.06-1.44c.13-.09.28.07.3.22l.15.86,2.56-2.8-.58-.8c-.09-.13.62-.52.75-.43l.82.52c1.33-.99.7-3.01,1.19-3.16l1.34-.4c.42-.13.23-1.28.18-1.89-.04-.56,1.09-1.24,1.71-1.51l-.64-1.3.4-.35,1.48,2.22c.09-1.03.36-.98.72-.36l3.15-.96-.17-1.34c.53-.12,1.23-.26,1.55-.47s.08-1.51-.08-1.69l-3.49,1.72c0-.44,0-.79.16-.89l.43-.28c.47-1.78,2.16-3.57,4.07-3.6s3.33-.9,3.58-2.96c1.53.13,2.96.16,4.2-.07l-1.08-.7c-.15-.1.06-.61.21-.65,1.23.16.76-.58.17-.61l-.99.06c-.14,0-.3-.25-.23-.35l.42-.61c.36-.52.88-1.4,1.37-1.59.43-.16,1.44-.11,1.87-.12l1.62-1.08-.5,3.65c.76-.25,1.31-1.14,1.08-2l2.83-1.99-2.4.12-1.59-1.1,2.91-2.1,5.58-4.36,9.09-6.69,2.83-2.67,4.03-3.19,1.44-1.73,3.21-2.19,3.42,1.74.59-1.08,1.46.23c-.08.16.07,1.5.45,1.85s1.3.62,1.79.81c.18.07.46.8.29.87l-1.05.43,1.94.61c-.98.36-1.32.44-1.54.81-.19.31-.06,1.58.25,1.44l1.11-.5c.17-.08.13.55.08.73l-.28.94.88-1.02.69,2.72,1.2,2.1c-.1-.02-1.26.36-1.1.63l.92,1.54c-2.16.29-3.67,1.41-4.03,3.68-.4-.28-.98-.74-1.22-.58l-1.11.69c-2.05,1.28-3.78,3.06-3.26,3.74.16.22.94.47,1.01.21l.44-1.56,1.29,1.03c.33.26.78.69,1.05.55l1.01-.53c.78,2.07-1.66.65-2.62,3.28l-.54,1.48c-.1.28-.72.51-1.24.02-.45.12-1.23,1.29-1.39,1.85l-1.62-.84-1.07,1.11c-.41.43-2.13-1.7-3.47-.32v2.11s-2.4.82-2.4.82l.11.4-.15.31-.38-.26c-.19.05-.3.07-.28-.06l.18-.94c.08-.02-.64.16-.96.23-.21.05-.21.15-.25.9-1.23,1.62-2.87-.1-3.98,1.81-.14-.29-.45-.81-.57-.65l-.6.82c-.13.19-.97.35-.91.57l.38,1.26,1.96-1.51c.43-.33,1.3-.85,1.88-.78.82.09.92,2.12,1.67,2.1l.71-.02c-.87,1.44-2.39,1.45-3.55,1.04l2.25-1.2c-.92-.13-2.18.32-3.28.7-.64.22-2.39.27-2.18,1.27.28,1.36,2.13,1.24,2.74.5l.4,2.75c-.8.06-1.72.46-2.14,1.15-1.15,1.91-2.44-.25-4.82,1.05l-.67.37c-.09.05-.09.14-.01.21l.39.32c-1.21,1.17-2.11,2.25-3.01,4.03l1.58-.74c.34-.16.41-1.13.58-1.75.17.11.92.96,1.15.75l1.17-1.05c.3.52-.72,1.41-1.16,1.83l-1.82,3.1-1.64,2.32c-.32-1.11-.62-2.1-1.15-2.35-.47-.23-1.62.21-2.26.53.23.2.86.59.83.89l-.12,1.26c-.02.18.85.61.71.73l-.7.6c-.22.19-.92.37-1.2.34-.21-.02-.39-.61-.43-.8l.86-2.41c-.56.47-1.16,1.18-1.49,1l-1.6-.91c-.26.2-1.06,1.27-1.28,1.81l-.84,2.12c.73-.86,1.23-1.78,1.63-2.63l1.44.2-1.48,2.04.86.76-1.3,1.04-1.87-.2c.52.45,1.35.88,1.34,1.34l-.04,1.69c-.02,1.1,0,1.58-.59,2.77l-.31-1.37-2.08.16-.38-.55c-.07-.11-.57.05-.52.17l.3.79c.55,1.44-.63,2.63-.79,2.58l-1.07-.29c-.17-.05-.77-.25-.78-.08l-.04.91-.5-.74c-.07-.11-.16-.13-.22-.03l-.33.69c-.52.48-.68.6-.87.87-.39.54,2.78,1.69,1.62,2.24-.58.28-1.46.57-1.51.99l-.18,1.65-1.52.39c.5.4,1.01.68.9.92l-.46,1.04-3.28.4c-.62,1.38-1.56,2.49-2.92,2.58l-.35-.97c-.06-.16-.78.29-.78.45l.04,2.78c.38.36,1.52-.08,1.87-.62l1.89,1.32-1.21.29c-.2.05-.31.66-.46.8l-1.31,1.21c.29.28.68.66.54.93l-.55,1.07-.29.86c-.05.16-.75-.14-.68-.29l.4-.83-1.27-.4c.28,1.43-.99,3.05-2.4,2.71-.24-.06-.67-.51-.86-.43l-1.02.43-.15.55c.61.35,1.04.59.93.78l-.49.85-.57.98-4.21.87c.88,1.38,1.62,1.26,2.6,1.09,1.03-.17,1.35-.71,1.89-1.85.55.07,1.43.77,1.3,1.2l-.63,1.99,2.45-.05c.32,0,.84-1.06.54-1.17l-1.22-.45,2.58-.38.85-1.34c2.14-.54,1.05-2.74,1.78-2.77l.73-.02,1.04-1.98.16-.17-1.25-.08c.82-.83,2-.99,2.54-.19,1.1-2.68,2.85-2.01,3.38-2.88.17-.28.08-1.01.13-1.44l.14-1.11c.02-.17.67-.05.55,0-.19,1.03.72,1.35,1.79,1.48s2.64-2.01,2.79-4.16l1.05.15c.49.07.3-.89,1.32-1.81.19-.17.58.18.97.59-.02.05.43-.35.4-.54l-.11-.68,1.52-.62c-1.22-.2-1.52-.03-2.85.72l-.29-.82c.85-.25,1.45-.51,1.27-.67l-.93-.87,1.86-1.14c4.42.48,4.62-4.07,6.9-3.01,2.72,1.26,3.56-.44,4.08-.75l2.59-1.55c-.67-.67-1.02-1.07-1.34-1l-1.18.24c-.77-.6-1.37-.83-2.36-.96l3.91-2.42,4.02-2.93c.37-.27,1.7.46,1.59.89-.13.54-.53.92-1.41,1.25l.32,2.22c.91-.14,2.06-.24,2.25-.7l.68-1.71c1.31-.27,2.56-.81,3.23-2.04l.63-1.16c.13-.24-.66-.58-.92-.71l-.61-1.74,1.76.12c.22.02.33-.71.44-1.24-.05-.03.52.3.76.43,1.05-1.11,2.43-2.4,3.78-3.32l3.42-2.33,5.53-3.43,2.47-1.74,2.5-1.44,2.62-1.53c1.41-.82,2.23-1.93,3.63-2.18l-1.11,2.4,2.62-1.65,1.79-.77c-.57-.39-1.09-.75-.45-.31l2.06-3.14,4.51-2.53c1.97-1.1,3.58-1.38,6-1.03l2.51.37c.19.03.65.34.82.42s.53-.46.62-.59l1.27.87-.82,1.19c-.16.23.32.61.64.88l-1.57.15.31,1.36-1.3-.11c-.19-.02-.17.62.02.6l1.11-.12,1.71,1.2-1.88,1c.26.27.69.66.6.78l-.52.65c-.5.62-1.27,1.14-2.11,1.51l1.19.74c-1.3.46-2.43.75-4,.84l.26-3.68-2.34,1.17,1.06.06c.12,0,.14.54.1.61-.91-.15-2.58.74-2.6,1.6,0,.17.52.59.5.43-.02-.11.19-.7.3-.71l2.02-.19,1.42,1.56-2.69-.39c-2.03-.29-1.53,3.69-4.69,4.23-.06.64-.64,1.37-1.28,1.42-.45.04-.72-.26-1.17-.82l-.14.25-.65.51c-.13.1-.35-.59-.34-.76l.15-1.5-1.52,2.45,2.93.21-.91,1.63c-.48-.5-.64-.78-.88-.77l-.8.04-.22.27c-.01.12-.25.89-.45.78l-.8-.46c-.38-.22-.97-.56-.81-.81l.61-.98h-2.1s.68.67.68.67l-2.76,2.2.63,2.3-1.03.15c-.11.01-.33-.2-.49-.34l-3.01,2.28c-.87.66-1.38.86-1.79,1.98l-2.18.3-1.47,2.1c.19.03.92,1.03.62,1.17l-1.06.52-1.44,1.02-.64-.89c-.17-.24-1.26-.08-1.2.05.21.31.74.95.56,1.01l-1.15.4,1.33,1.82.78-1.9,3.54-.99c.27-.08,1.08-.31,1.25-.1l.81.98c2.55-.71.83-3.26,3.14-4.24l-1.31-1.07,2.93-.53c.81-.14,2.17-.73,2.71-1.21.21-.19.15-1.28-.13-1.34l-1.12-.24.78-1.45,1.89-.98,1.89-.29c-.2.45-.15.32,0,0,1.09.31,2.51.39,3.22-.3l1.55,1.3c1.51,1.27,4.69.53,3.89,1.55l-1.22,1.56,2.34-.23c.66,1.23,1.16,1.68,2.44,2.34l-1.7,1.43c-.14.15-.45.56-.58.44l-.6-.56c-.37.31-.27,1.18.15,1.27l1.69.37-1.77.64-1.51,2.22-.91-.23c-.11-.03-.21.44-.2.44l.23.21,1.94.42-2.08.83-.17-1.03-.05-.26-.69-.56c-.15-.12.4-.49.57-.58l1.06-.56c-1.99-.04-3.75,1.97-4.27,3.73-.5-.08-1.34-.04-1.63.12s0,.86.11,1.32l-2.5.69.09,1.02c.01.15-.45-.08-.59-.11l-2.07-.4,1.44,2.01,1.57.14c-.09.19-.39.61-.59.62l-1.03.06c-.57.03-.96-.03-1.79-.42l-4.97,2.35c0,.94-.33,1.6-1.31,1.87l-.59,2.65-1.29-1.78-.31,2.05-1.54-1.36-1.27,2.08-.07-1.6-1.83,2.24-.51.21-.28,1.19c.44-.15.47-.15.55-.23l.69-.7-.14,1.53.14.09,1.72.4c.24.06.89-.84,1.04-.64l.63.84-1.66,1.26-.25.27-.75,1.66c-.12-.24-.33-.89-.43-1.24l-.57-2.2-.06-.42-.81-.18c-.13-.03-.28.45-.17.51l.69.38-.42,1.82c.13.17.68.87.44.95l-.97.35.2,1.94c-1.02-.19-1.86-.27-2.38-.22l1.38,1.24c.05.05.16.26.24.27l2.3.43-.15,1.35c-.02.17.22.34.53.86l-2.27-.43c-.07-.48-.12-1.23-.37-1.35l-1.07-.5.87-.25-.31-.31c-.07-.01-1.1-.04-1.06.22l.17,1.01c.03.39-.31,1.41.06,1.55l1.83.7-.94.33.35.39,1.9-.95-1,2.67c-.2.53-1.66-.04-2.16-.68-.64,1.74-2.24,1.99-3.71,2.29l-1.71.35.78-.6c.11-.08-.02-.43-.15-.39s-.69.23-.82.24l-3.64.06.79-.48-1.93-1.55c-.38-.22-.79-.46-.87-.68l-.91-2.47c.9-.02,1.07-.81.32-.93-.47.06-.94.08-.99.22l-.23.53-4.01.31-2.28-.81c-.46.5-.77.78-.64.96l.68.95c-1.23.88-2.93,1.01-4.6-.08l-.2.93,1.48.43-2.09.96c-.24.11-.69.72-.8.54l-.49-.83c-.67.77-1.26,1.22-2.01,1.52l1.21.52c-.55.81-.99,1.68-1.45,1.67l-2.03-.04c-.31.03-.25,1.34.11,1.33l1.17-.04c1.96-.07-.52.69-1.68,2.97l-.26.47,1.68-.75.42,1.15c.06.15.7-.25.65-.28-.11-.37-.2-1.73.14-1.7l1.5.16c.39.04,1.26.54,1.18.93l-.28,1.36-1.45-.45-2.36.74-1.04,1.49.18.11,2.6-.37.7-1.62.15,1.85c.02.25-2.52,1.4-4.52,1.39l.94-.95-.22-.23-2.72.28-.28.26.33.74c.05.11-.36.1-.47.06l-.7-.26c-.37-.14-1.27-.3-1.62-.13-.29.15-.6.68-.89,1.33l2.08-.65,1.1.98h.08s1.01,2.07,1.01,2.07c-.58-.11-1.69-.25-1.59-.57l.31-1.06-.25-.29c-.42.09-1.09.38-1.54.77-.28.24-.58,1.35-.23,1.47l1.27.44-1.25,1.52-2.61.21c-.71.82-1.02,1.01-2.22,1.68l1.25.92c-.76.9-1.81,1.75-2.87,2.17l-.94.85-.37.11-1.56,3.47-.33-1.49-2.62,1.67.37-1.14c.04-.12-.37-.12-.49-.07l-.63.22c-.24.09-.83.81-.59.9l1.01.38c-.05.1-.65.72-.84.56l-.7-.59-1.15,1.56,2.15.69c.14.05.03.81-.12.76l-.67-.23-1.7-.57c-.03.66-.01,1.44-.31,1.56s-1.2.01-1.23-.06c.17-.52.37-1.02.17-1.04l-.97-.08c-.39-.03-1.18.2-1.61.36l-.93-.57c-.29.71-.37,1.01-.58.92l-1.07-.44c-.22-.09.56-.83.8-1.03l-3.65-1.53.15-1.85-2.51.23c0-.22.12-.63.34-.7l1.12-.4-1.17-.38c.16-.54.61-1.83,1.02-2.26.9-.82,1.87-1.95,2.37-2.9,1.47-.31,2.45-1.34,2.44-3.01l2.82-1.69-.07-1.66.86.72c.09.08.33-.21.41-.32l.55-.82c.08-.12.57.2.55.34l-.12.73c-.02.16-.03.58.12.6l.68.11.67,1.55.19-1.43c.18-.07.51-.18.54-.38l.13-.86-.68.1c-.16.02-.32-.46-.17-.51l.78-.31.97-.54c.19-.11-.21-.7-.43-.64l-1.01.27-.55-1.6-.47-.33.68-.18.05.15.78.61-.19-2.63c.24-.08,1.13-.27,1.51-.29s.84.57,1.29,1.03c.17-.26.41-1.5.12-1.74l-.99-.78c.82-.66,2.24-2.36,2.1-3.34-.4-1.17-.44-1.87.05-3.03l-1.99.44-1.41,2.85c-.1.21-.6.62-.49.78l.42.7c-.07.34-.17.65.02.75l1.03.55-1.66,1.63-1.05-1.1c-.73.12-1.19.37.02.92l-2.14,1.09c-.01.62-.15,1.4-.53,1.58l-1.51.72c-.15.07-.31.74-.37.91-.06.16-.23.11-.78.02l-2.38,3.02c-.83-.82-1.08-2.2-.67-3.3l-1.11-.7.36,1.55-3.16,1.59.23.25,1.43-.38-.29,1.78c-.04.22-.88-.48-1.06-.36l-3.04,1.91c-.18.11-.51-.72-.33-.82l.81-.44-.4-2.12-2.27.98-.83.71c-.12.1-.36-.57-.23-.66l.73-.51c-.58-.08-1.66-.08-2.12.2l-1.97,1.21c.54.82.77,2.19.34,3.49l-.81-.93c-.8.62-1.59.62-2.72.09-.61.2-1.01,1.82-.31,2.57l-1.58,2.9-2.6.93c.1-.82.44-1.58,1.14-2.85l-2.12.78.13.96c.02.16-.8.11-.96.24l-3.23,2.56c1.04.29.85.63.13.8-.27.18-.72.46-.64.57l.35.45c-.18.28-.4.9-.19,1.03l1,.63c-2.2.26-4.44,2.34-4.41,2.59l.16,1.31c-.61-.19-1.09-.44-1.3-.29l-.79.58c-.2.15-.83.12-1.1.08-.25-.04-.44-.62-.25-.78l.73-.62-2.63.09c-.22-.4-.56-.87-.68-.69l-.46.67-.37.54c-.07.1-.5,0-.45-.12l.41-.98s-.27.12-.86.37l-1.47,2.68c-.48-.59-.69-.99-.91-1.01l-.89-.08-1.48-1.72c-.57-.66-.5-1.77.14-2.16l-.68-.41-.24.44c-.32.58-1.67.77-2.36.23.47-.89,1.3-2.08,1.96-2.45,1.45-.31,2.89-1.26,3.37-2.42-1.54-.66-2.02-.86-3.36-1.82l2.11.04c-.14-.22-.66-.8-.54-1.04l.55-1.06-.27-.38c.09.21.07.17-.03-.06l.53.21,1.83-1.3c-.09-.38-.24-.81-.1-.93l.55-.46c-.41-.09-1.22-.26-1.02-.22l1.76-1.63c.19-.18.85-.69.65-.87l-.77-.73c-.17-.16,0-.73.17-.89.12-.1.42,0,.51.12l.61.91.3-1.74c.18-1.03,2.47-.56,2.46-.54l.3-.82.36.05c1.12-1.44,1.08-3.41-.42-5.18l2-.32.28-3.2-1.76.49.1.74c.07.5-1.7-.33-2.85.27-.54.72-1.53,1.22-2.41.68l-2.09,2.22-1.04-1.74-.44,2.92,2.14-1.02c-.6,1.59-3.58,2.12-3.68,1.91l-.47-1.03-2.79.16c-.55.03-1.6.9-2.08,1.31l-.43-.94-.82,1.86c-.25.56-.78.96-.85.47l-.12-.88c-.06-.39-.15-1.11.02-1.36l.63-.95-1.85.89.42,1.27c.07.2-.92.36-.94.14l-.1-.97v-.97c.01-.11-.39,0-.45.09l-.36.62-.64.21c-.49-.67-.94-1.17-1.37-1.34-.35-.14-.97.41-1.18.73l.22.16,1.68-.22-1.7.96-.17-.48-.27-.39-3.23,3.8-2.58.32c.67.63.89.73.95,1l.23,1.13.77-.56c.13-.09.56.44.39.3l-1.58,1.73c2.15-.09,2.49-1.5,2.99-2.85l-1.52.25.85-.91c.18-.19.8.09,1.05.13.73-.9,1.75-1.91,2.64-1.97l-.62.96c-.11.16.2.46.43,1l1.89-.59.83-1.28c.19-.3,1.46-.07,1.45.05l-.31.97c-.04.14.38.12.7.14.29.92-1.33,1.17-1.7,1.67l-2.18,2.94,1.74-.15-.66,1.66,1.9-1.32-.06.56c0,.08.13-.04.33-.13l1.63-.75.56-2.96.29,2.33c.22-.68.67-1.63,1-1.46l1.5.77-2.54,1.3,1.36.25c.21.04.17.45.16.97l1.73-.65.6,1.09c-1.28.9-2.81,1.69-4.72,1.91l2.08-2.62-2.49,1.3c-.23.12-.57.79-.8.77l-.94-.06-1.68,2.44,1.11.36-3.85.56c-.22-.16-.21-2.17.31-2.49.72-.44,2.04.48,2.18,1.16.29-.67.65-1.7.28-1.96l-1.32-.94c-1.24,1.39-2.67,1.82-4.46,2.22l-.83,3.14c-1.43.04-2.44,1.16-2.68,2.43l-1.36-.11c.44-.88.21-1.19-.7-.51l.99-2.43-2.38.51,1.2.65c.22.12-.42.69-.57.89l-1.2,1.61-.44.64c-.12.17.67.74.73.54l.39-1.11,1.87.97,1.45-1.32.44,2.06,1.56-.38c-.2-.51-.28-1.58.18-1.7.49-.13,1.64-.25,1.6-.17.27.96.34,1.21.62,1.26.22.04.81-.02.88-.22l.36-.97.94,1.15c.5.62-1.78.32-1.99.56,0-.01.41.8.32.9-.55.69-2.17,1.08-3.23,1.38-1.17.33-1.96.64-3.04-.02-.39-.24-.86-.57-1.09-.39l-.94.77-1.01-2.11c-.66,1.58-1.16,2.34-2.38,2.8l1.04.34c.19.06.09.63-.07.76-1.11.89-.85,2.84-2.34,2.9-1.22.04-.26-3.13-1.12-3.27-.29-.05-1.05-.18-.88-.15-.16,1.38-.4,2.01-.99,2.63l.29,1.68c.19,1.08-2.87.32-3.54,3.19l-.47-1.95c-.75.15-1.72.7-2.12,1.29l.95-.16c.17-.03.37.42.23.51l-.79.49c-.57.35-1.9.46-2.02-.09-.03-.12.09-.65.1-.77s-.37-.36-.44-.26-.35.55-.46.59c-.56.18-1.44-.61-1.94-1.4l-1.42,1.87-1.64-2.92c-.41-.41-1.6-.78-2.45-.42l-.36-1.7c-1.06-.53-2.13-1.86-2.16-3.27.14-.16.53-.51.42-.62l-.75-.7c2.47.33,3.15-1.13,3.73-2.83l.99-2.92,1.38-.39.45,1.95c-.34-.05-1.37-.07-1.35.27l.07,1.06c.31-.45.69-1.05.77-.9l.26.48c.05.1.25.47.21.4l2.6-.73c.65-.18,1.12-1.63,1.38-2.46.44-.5.29-.89-.38-.25l-2.14-.55,1.47-.54-1.19-1.22-.96,1.12c-.59-1.28.02-2.58.84-3.59l.62-.76c.1-.13.77.09.8-.06l.63-3.2.68.56c.16.13.87.04.86-.02l-.63-.83c-.1-.13.13-.32.43-.66l-.98-.83,2.96-1.32.89-1.66c.14-.27.45-.98.3-1.22l-.46-.72-.52,1.25c-.09.21-.71.13-.97.04l1.45-2.71c.2-.37,1.08-1.19.92-1.57l-.52-1.24,1.06-.09c.14-.01.39-.45.26-.51l-.89-.39c-.53.12-.72.03-.02-.48-.04-.34-1.18-.51-1.42-.15l-1.15,1.73-.87-1.23c-.16-.23.18-.68.29-.93-.22-.41-.53-1-.49-.92.58-.09,1.18-.16,1.19-.36l.04-1.11c0-.16.57-.34.66-.2l.35.47.78-.8c.13-.13.09-.84-.09-.79l-1.33.33,1.07-2.84-2.97,1.17.48-2.15c.17-.21,1.43-.32,2.03-.25,1.24-.3-1.5-1.14-.84-1.7l.97-.81-1.01-.7,1.03-.47c.21-.09,0-.76-.12-1.1l-1.33,1.58-.53-1.44,1.38-.87-2.38-.09-3.73,3.67c-.94.93-1.6,1.81-1.57,3.01l-1.77.03.71.8c-.24-.27-1.72,1.18.1,4.62l-.88,2.53c-.84.22-1.56.39-1.65.78l-.32,1.47-1.92.42,1-1.59-.31-.75c-.06-.14-.41.27-.51.41-1.61.78-2.01,2.16-2.28,3.92l-.72-.95-.71,1.42-1.21-1.14c-.26-.25-1.57-.1-1.57.02l.36,2.9c.04.33-.21,1.27-.52,1.23-.33-.04-.88-.12-.87-.12v-1.24s-1.67,1.96-1.67,1.96l1.55,1.27c-1.16-.13-1.71-.64-2.17-1.3-1,.23-1.55.4-2.5.88l-1.17-1.39c-.4.12-1.09.3-1.05.11.03-.13.05-.41.17-.46l.59-.23c2.5-.95-1.27-.98-3.16-3.55l-2.05.16c-.46.04-.58-1.15-.6-1.81-3.79-.1-3.64-2.92-5.34-4.1l2.2-1.01-.58-.98c.6-1.11,1.12-2.67,1.4-4.41h1.77s-.44-.47-.66-.7l-.65-.68c-.1-.1.22-.33.35-.38l1.05-.41-2.21-.15.9-.9-1.87-.11c.69-.87,1.24-1.93,1.05-3.05l1.57-.93c-1.11-.74-.97-1.46-.97-2.53v-1.06c0-.18.56-.38.68-.43.36.27.83.66,1.18.6s1.23-.81,1.16-.85l-1.1-.45c-.12-.05.49-.59.62-.61l1.36-.23c.32-.06.65-1,.42-1.24l-.78-.8c.6-.62,1.44-2.1,1.12-2.77l-1.12-2.37c.03-.78.4-1.74.03-2.61l1.66-1.1c.15-.02.39-.35.25-.46l-.58-.45c1.09-.17,2.09-.72,2.7-1.53-.35-.42-.68-.82-.49-.93l.76-.42.83-.45c.18-.1-.26-.9-.15-1.06.4-.56,1.4-1.28,2.26-1.85l-.66-1.77,1.74.39-.33-1.74c.59-.13,1.58-.35,1.49-.68l-.39-1.32,2.54-2.02c-.53-.48-.96-1.19-.71-1.51.9-1.15,2.37-.53,2.32-1.16l-.08-.94,2.2-.51,1.07-2.52,2.29-2.6c.61-.7.95-1.33,1.49-2.14l1.69-2.51c.58-.87,2.44-1.81,2.72-2.8.34-1.16.64-1.76,1.4-2.7-.1-.3-.19-1.5.19-1.66l1.55-.65c.3-.97,1.56-1.95,2.17-2.85l2.61-3.87c.23-.34.45-.85.72-.91l1.37-.3c-.02-2.19,1.26-3.53,3.09-4.59.35-.9.85-1.88,1.4-2.58l2.76-3.52c0-.46-.02-1.06.29-1.12l1.5-.32-1.16-.55c-.2-.1-.33-.96-.11-.97l1.24-.1c.39-.03.95-.23,1.03-.54s0-1.22-.31-1.25l-1.24-.09c-.95-.07-1.76.07-2.89.29-.55.07-.69-.03.04-.48l-1.59.08.92-.76c.09-.07,0-.43-.11-.4l-.63.13-1.64,2.13.26-1.15c.05-.21-.36-.58-.41-.42l-.55,1.79c1.07.33,1.66.52,1.95.69-.72,1.72-2.42,2.48-3.92,1.83-.47-.2-1.02-.42-1.34-.46s-1.03.57-.95.87c.15.54.29,1.57-.03,1.83s-1.12.45-1.43.45c.19-.49.33-.86.32-.84,0,.02-.7-.18-.48-.12-.12,1.13-.66,1.98-1.53,2.48l-1.12.64.68.49-.5.15-.22-.4-1.52,1.03c-.19.13-1.1.09-1.04.31l.26.97c.04.14.62-.12.72-.23l.89-1.09.44,1.29c.05.14.47-.09.54-.22l.34-.63.83-1.4c.16-.27,1.09-.13,1.39-.21.54-.15,1.11-.33,1.51-.3s.7,1.18.71,1.58l.23,1.74c-2.09-.47-2.89,1.32-3.56.8l-1-.78-.69,2.17c-1.18,2.57-5.26,3.01-4.95,5.25-.58-.04-1.32-.08-1.65.25-.47.5-.53,1.32-.08,2.22.01-.01-.59.54-.71.65l-3.25.32c.32-.63.23-.91-.26-.44l-1.64,2.2h2.18s-2.39,2.41-2.39,2.41c-.62-.89-1.18-1.58-1.7-1.53-.48.04-1.06.88-1.32,1.43l-.62-.55-1.41,3.49c.33.36.66.66.58.88l-.32.97,1.32-.78-1.2,2.97-1.19,1.84c1.02.19,1.92.51,2.21,1.09-.48,1.63-1.88,2.58-3.35,2.35l1.39.59-2.54.21c.14-.33-.11.26-.21.49l-.26.62c-.05.12-.45.11-.48-.02l-.1-.55-.21.2.28,1.67-2.5,1.12,1.09-.2c.15-.03.37.53.25.61l-.69.39c-.42.24-1.09.46-1.13.82l-.17,1.32c-.02.13-.77.11-.72-.01l.34-.78-2.31.1,1.5,1.09-1.84,1.65c-.36.32-.87.74-.76,1.06l.52,1.44-2.56.02c-.23.14-.33.09-.44-.66-.24.02-.72.16-.86-.01l-.9-1.07c.04.84.24,2.27.61,2.89l.77,1.3.31.35-.44.17-.15-.26-.83.15c-.21.04-.29.62-.36.84l-.19.64c-.04.14-.57.13-.57-.02v-1.17s-1.23,2.14-1.23,2.14c-.42.73-1.18,1.71-1.75,2.22-.84-1.14-1.23-1.63-1.97-2.32l-1.68,1.34c-.21.17-.62.75-.39.82l.78.24c.52.16,1.42.56,1.65.97.19.35.33,1.33.19,1.63l-2.12,1.46.46,1.79c.16.65-2.48.99-2.46,3.09-.66.12-.73.26.01.34l-1.24,1.59-1.99,2.46-.87-.82c-.35-.33-1.16,1.12-1.64.95l-.83-.28-.15,2.28-.83-1.13c-.12-.17-.96.14-1.01.23l.95,1.63-2.42.2-1.09-1.65c-.3.29-.77.73-.94.56l-.54-.58c-.07.22-.73,1.3-.95,1.09l-.87-.88-1.08-.72c1.75-.43,1.64-1.56,2.12-2.69.44-1.05.73-1.81.77-2.84,1.23-3.04,5.27-3.37,4.7-7.2l2.22-1.18c-.34-.25-.66-.45-.6-.6l.2-.53.57-1.49s-.67-.54-.51-.6l.91-.33,2.1-2.6c.7-.86,1.43-1.59,2.25-2.13-.14-.25-.72-1.31-.72-1.3l1.6-1.87c.12-.14.56-.64.55-.65l-.72-.67,2.01-1.07-.07-3.43.58.63c.12.13.48-.07.87-.26.31-.16.48-.85.36-1.3-.07-.28-.63-.23-1.21-.21l1.2-1.53c.11-.14.69-.51.58-.64l-.6-.68,2.31-1.65.67-.53c.14-.11.11.51.04.72l1.67-.06,1.74-2.32c.27-.36.45-1.21.57-1.65l.42-1.64-.33-.17.17-.37.32.35.47.07c.55.08-.6-2.2.9-3.69.71-.71,1.73-.93,2.97-1.14l.16-3.16,1.96-1.27c.05-1.06.63-1.64,1.14-2.21.11-.33.02-1.39.32-1.57l1.18-.72-.3-1.28,1.5.71.04-2.64,2.29-.8c.3-1.36.77-1.87,1.59-2.76l1.81-1.97c.18-3.4,2.45-3.7,4.1-6.21.85-2.19,3.42-4.55,5.23-5.95-.19-.1-1.02-.6-.84-.69s.73-.48.83-.65l1.06-1.77.32-.27,1.88-2.36,1.66-.89c.3.15.77.39.74.22l-.11-.72c-.02-.12-.09-.08-.22-.05l-1.13.24,1.64-1.68-1.34-.4,4.01-1.27,1.78-1.85-2.49-.46,1.35-.8c1.11-1.3,2.36-2.13,3.98-2.86l-.75-.51,2.8-.51-1.41-1.46,2.07-2.25,2.38-2.59c.27-.74.64-1.29,1.21-1.92l1.38-1.51c0-.37-.04-1.58-.03-1.39,1.19-.3,1.65-.49,2.24-.93l1.05-.78c.24-.18-.58-1.15-.84-.99l-1,.65c-.15.1-.54-.37-.66-.48s-.33.04-.43.17c-.07.09-.16.8-.27.83l-4.19,1.24c-.27.08-1.08.77-.85.93l1,.71-1.11.86c-1.08-.77-2.4-1.11-3.77-.82l.35,2.67c-.16.25-.7,1.1-.7,1.09l1.31,1.42-2.55,1.77-1.83.99-.3-1.01c-.06-.21-.95.11-.83.13.31.33.85.85.68,1.01l-.93.87c-.7.05-.71,1.24.21.88.74-.23.93.03.4.42-.32.2-.6.37-.58.36.02,0,.32.24.73.54l-3.32.94-.49,1.86-3.79,1.53c.7-.72,1.26-1.7.54-2.24-.39-.17-.95.65-1.05,1.39l-2.55.14.49,1.24c-1.57.43-2.63,1.7-3.12,3.18s-2.28,1.5-2.82,2.16c-.78.95-1.28,1.88-2.2,2.59-1.13.88-1.76,2.58-2.03,3.85l1.86-1.34c-.15-1.19.72-2,2.1-2.15l1.96-1.69c-.01.92-.02,1.64-.36,1.75l-1.38.48,2.45.76-2.55,2.07,1.71.33-1.39.6c-.17.07.05.36.4.78-.59,1.4-1.76,2.55-3.45,3.43l.63,1.04-1.92,1.48c-.15.11-.5.62-.61.77s-.68-.5-.53-.62l.65-.52.49-.39c.1-.08.41-.43.28-.46l-.81-.19c-.33.44-.61.98-.98,1.01l-1.35.12.23,2.02-1.14-.7c-.2-.12-.51.59-.51.83v1.33s-1.69,2.44-1.69,2.44l.11-1.72-1.5,1.47c-.83.33-1.37.65-1.85,1.05-.23-.33-.46-.19-.78.24l-.19.93c-.03.15.52.3.61.17l.39-.62,2.81-1.12-1.22,1.86c-.47.71-3.22.5-2.45,1.01l.88.59-2.3,1.45-1.93,2.76c-.62.89-1.35,2.23-2.22,2.58-.63.25-1.19.48-1.43.88-.18.3.24.9.71,1.52-.7.27-2.06.17-2.76-.72l-1.29,1.98.41.31-.36.35-.26-.36-1.62,1.29-1.58.81c-.36.18.06,1.32-.06,1.7l-.65,1.99c-1.2.47-2.96,2.42-3.26,3.88l-1.42.37.9,1.09c.14.17-.47.63-.69.64l-.94.05-1.5,2.4c-.08.13-.33.86-.18.85l1.04-.07c-.17,1.48-.98,2.42-2.62,2.99.21.61.68.92.91.58,1.01-.56,1.34-.92,1.94-1.89l1.39,1.92-1.26,1.37-2.63-.81.22,1.21-1.97,2.27-.35-1.79c-.39.29-.73,1.31-.58,1.8.13.43,1.03.83,1.46.95.18.58.13.53.27.64.22.17.41.28.5.13l.52-.93,1.01,1.35c-.61,0-1.5-.02-1.41.18l.49,1.11c.14.31-.65.82-.97.7-.23-.09-.59-.42-.61-.66l-.15-1.57-2.84,4.06c.12-1.38.54-2.12,1.17-3.76-.49.24-1.21,1.04-1.75,1.71l-2.98,1.98.06,1.58c.01.31,1.08.51,1.21.23l.45-.97-.43-.34.45-.28.11.33s.5.09.62.11c.11.02.07.1,0,.19l-.58.7c-.11,0,.43.13.56.07l.79-.39-.09.68c-.02.14-1.76.55-1.76,1.03v1.22s-1.02.34-1.02.34c-.19.06-.34-.65-.4-.85-.06-.19-.81-.22-.78-.03s.18.81.35.9l1.64.86-5.51,1.34c-.18.04-.43-.69-.32-.83l.73-.97-1.85-.06c.38.95.53,1.4.52,2.14-2.37.81-5.95.59-5.94.52l.32-1.35-1.75.54.66-2.74,1.19-1.14-.9-.52c-.16-.1-.12-.71-.07-.6l1.29-.17c.19-.03-.2-.62-.32-.77l-.54-.72,3.44-1.42c-.53-.2-1.47-.74-1.25-1l.81-.92c.61-.69,1.39-1.39,2.05-1.88.73-.55.45-2.57.18-3.32,3.1-.56,2.96-2.81,5.2-1.97,0-.21-.03-.81-.02-.63l-.96-.19c-.13-.03-.01-.62.11-.57l.65.3c.13.06.49-.35.37-.43l-.86-.61,1.67.02,1.31-1.28-1.37-.63,2.9-3.84c.2-.26.56-.55.43-.69l-.7-.72c1.9-1.32,3.59-2.39,2.98-4.72l1.2.65c.02-1.05,0-1.51.13-2.05s1.95-1.47,3.21-1.1c.04-.26-.38-1.14-.75-1.7l1.37-1.57-.17,1.2c1.82-.66,2.9-2.33,2.88-4.02-.35-.09-1.11-.99-.81-1.21,1.12-.82,2.43-1.02,2.51-.69l.28,1.25,2.84-1.5-1.46-1.58c-.18-.2.3-1.05.56-.99l1.26.3,1.35-2.47-1.7,1.07.16-1.39c.04-.39,1.1-.38,1.63-.45.54-.26.65-.67-.1-.55l-1.38-1.96,1.96.57c-.47-1.42-.77-2.71.77-3.54l-.14,1.58c.33-.24.49-.44.72-.42l.88.07c-.03-.25-.11-.91-.07-1.23l.43-3.3,1.46-1.5c-.24-.41.34.59.49.85.24.41,1.53.18,1.75-.24l.85-1.58,2.28-3.3c.23-.34-.28-1.65-.43-1.73-.9-.49-1.12-1.01-1.68-2.2l-.03,3.44-.81-1.21-1.42,1.32-.76-.8c-.15-.16-.8.33-.9.54l-1.58,3.33-.75,1.81-1.38.15c-.78.08-.57,1.73-1.81,2.57l-.66-2.05-1.89,1.66-.58-1.45c-.33.44-1.16,1.22-.89,1.49l1.2,1.2-2.38,1.75,3.36.27-1.14,2.3-.48.84c-.09.16-.48-.38-.44-.56l.17-.77s-.46.01-.55.16l-.31.47-.32-1.43c-.45,1.04-.82,1.93-.78,2.23.72.47,1.27,1.09,1.07,1.42-.7,1.13-3.91,1.73-4.38-.19-.05-.07-.83.9-.94,1.14.56.44.89.77,1.32,1.48.3.5.47,1.56.06,1.89-.31.24-1.02.42-1.43.42l-1.45-.14c.69-1.23,1.06-1.34,2.34-1.99l-1.45-.94c-.56,1.76-2.29,1.43-3.75,3.22l-1.62.85,1.08.38-.47.94c-.07.14-.51.34-.54.19l-.18-.78c-.06-.24-.41-.59-.59-.72s-.66.6-.7.82c-.04.18.44.57.34.73l-.73,1.14,3.04-.37c.64-.08,1.72.63,1.47,1.17-.4.85-.8,2.08-1.3,2.42l-1.87,1.24c-.2.01-1.03-.34-1.07-.7l-.17-1.71-2.38,1.97c-.71.59-1.58,2.3-1.63,3.22-.01.18.68.71.85.77s-.37.45-.5.58c-.1.1-.25.63-.12.7l.49.25c.12.06.19-.57.29-.72l2.14-3.39c.63-.14,1.99.48,1.66,1.07l-.92,1.62-1.07,1.8-.52.76c-.11.16.49.06,1.16.12-.25.48-.72,1.11-1.17,1.49l-1.88,1.59c-.07-1.29-.08-1.27-.12-.4-.84,1.46-1.14,2.26-2.54,2.5l.69-1.45c-1.19.67-1.97,1.2-2.48,2.11l-1.82.1-1.03,1.63c-.1.16-.1,1.02.06.94l.5-.26.02,1.18c-.3-.39-.53-.73-.6-.59l-.52.95-.42-1.2c-1.11,1.15-.33,2.64.64,3.16-1.06.11-1.79.22-2.3.88-.36.46-.71,1.6-.43,2.15.09.17.52.4.7.44s.49-.61.32-.69l-.79-.37c-.21-.1.28-.74.52-.72l.79.07,1.7-1.38c0-.21-.15-.87.09-.91l.98-.19,2.13-1.68-.02,1.68c0,.28-1.07.4-1.24.6l-2.23,2.52,2.19-.05c-.49,1.67-.9,2.68-2.1,3.51l-1.29,3.1c-1.17,1.96-2.49,2.92-4.64,3.47-.55.15-1.27.52.17.65l-1.1,1.11c-.25.25-1.15-.14-1.39-.33l-1.91,1.24.27,1.53c.06.34-1.13.67-.93.49l-.08-1.53c-.01-.27-.84-.65-1.06-.55-2.43,1.75-4.6,3.55-3.25,5.91l-1.4.06c-.55-1-1.48-1.9-2.58-2.33-.62.65-1.85,2-2.65,1.86l-3.17-.53,1.18-1.79c.15-.22.47-.66.3-.73l-.94-.4,2.07-1.28-.16-.42c-.19-.03-.73-.27-.6-.45l.36-.49c.09-.12.71-.08.66.06l-.21.71.22.25,1.15-.49c-.41-.33-.77-.6-.65-.7s.76-.58.64-.69l-1.32-1.17,2.2-1.13c.2-.1,1-.56.82-.69l-1.01-.75c2.03-.76,3.28-2.63,3.76-4.69-.46-.22-1.02-.86-.74-.94l.9-.25,1.86-.52-1.95-.55,3.79-1.55c-.34-.36-.87-.83-.69-.98l.86-.66-2.15-.59.75,1.57-1.27.71c-.21.12-.98-.24-1.04,0l-.22.85-1.09-1.11c-.34-.35-3.19,2.44-5.23.21l-.92-2.05,2.94-1-.58-1.45,2.05-.39-1.36-.68,1.56-1.34.71,1.44,1.05-2.72-.9-.89c.94-1.02,2.05-1.68,3.58-1.43-.47.47-1.03.64-1.53.71-.38.06-.61,1.24-.24,1.36l1.42.46,2.05-2.04-.12.98c-.02.14.13.33.45.78l.82-2.37.77.91c.15.18.76,0,1.01-.12-.35-.31-.96-1.36-.7-1.78l.92-1.49c-.3-.83-.56-1.76-.19-3.02l.67,2.29,1.98-3.73,1.72,1.27-.57-1.82,3.34-1.53c-1.84-1.3-2.69-.35-4.85.45l2.38-2.14-.94-1.63-1.86,2.28-1.02,1.33c-.24.31-1.38.43-1.51.22.63-1.5.99-2.46,1.09-3.49l1-.4c.39-.15.98-.13,1.76,0l.08-1.4c.02-.32-1.07-.32-1.45-.36l2.1-2.06c.97-.16,1.49-.55,1.81-1.22.16-.04.86-.13.82.03l-.2.8c-.25.66-.77,1.24-1.45,1.84-.44.4.74,1.53,1.31,1.45l.25-.13,1.56-.2c.31-.04.28-1.12.24-1.23l-.22-.16-1.09-.39c-.26-.09.02-.92.23-1.34l1.1,1.42.18.22,1.75,1.79c.38-1.81-1.25-2.17-.3-2.33l.81-.14-1.46-.43,2.47-1.77c.43-.31,1.14-.66,1.54-.81l-.05-.17,1.07-2.02,1.53-2.84,2.45-2.5c.24-.24,1.26-.31,1.29-.64l.13-1.17,1.55,1.13c.34.25,1.48-.75,1.26-.91-.85-.08-1.84-.34-2-.68l1.8-1.4-1.11-1.41-.19-.4.43-.23.21.23c.31.08,1.15.17,1.4-.09l.84-.87,2.72-1.22c.71-.32,2.48-.46,2.78-1.51.43-1.52,1.46-3.54,2.29-4.62.16-.21-.24-1.24-.43-1.11l-1.17.82c-.56-1.86,1.14-2.15,2.48-3.59.09-.1-.49-.12-.62-.1l-.87.19,1.71-1.74,1.23.9c.23.17.86-.9.62-1.05l-1.11-.67,2.35-2.49,1.27.3.23-.28-.89-.75,2.19-1.4c-.23-2.12,1.33-4.06,3.3-4.24l-.3-1.04c-.03-.12.43-.35.49-.25l.5.78,2.67-.97-1.27-.24,1.99-1.53c-.23-.12.55.3.9.49l.05-2c1.29-.07,2.19-.2,3.01-1.1l-1.82.24c-.16.06-.63-.87-.38-1.09l.97-.87-.43-1.35c1.52-.76,2.45-1.46,3.45-2.51l1.35-1.43c-.42-.37-1.04-1.01-.81-1.24s.87-.69,1.19-.83l2.55-1.09-1.06-.68c-.18-.11.26-.72.45-1.05-.82-.79-2.2-.96-3.14-.25-.46-.31-.73-.54-.92-.37l-.74.68c-.35-.8-1.1-1.82-1.75-1.85-.93-.04-1.66.48-2.57.95-.6.31-2.06.81-1.85,1.41.11.31.73,1.15.77.92.03-.16.3-.78.45-.84l1.43-.67c.26-.12.62.82.67,1.06.61-.32,1.65-.59,2.22-.44l-1.72,1.69-.38.18-.93,1.52c.38-.01,1.15-.04.97-.03s-.02.92-.18.85l-.77-.34c-1.84-.82-.96,3.23-2.86,3.71-.26.07-1.07-.36-1.23-.14l-.76,1.04c-.87.31-1.85.81-2.37,1.71-1.16,1.96-2.02,1.71-2.2,3.06-.03.21.48.52.69.56v-1.03c0-.16.62-.46.69-.32l.32.73-.57,2.31c.34-.28.58-.59.81-.52l1.25.33-1.1,1.71-1.51-.81-.16,1.7-.89-.19c-.18-.04-.11.53-.03.69l.38.86c-1.05-.55-1.99-.39-3.16.22-.68.36-1.42,1.8-1.79,2.46-.94.04-1.86.09-2.55.46-.48.26-.74,1.02-.58,1.79-1.54.64-2.43,1.86-2.5,4.09l1.86-2.1.86.76.73-1.7c.27.59.15,1.63-.25,1.88l-1.49.94-2.49,2.37.15-2.23c-.98.96-1.16.15-.92-.39l.59-2.36c-1.02.32-2.03.32-2.67-.24l-.84,1.11.63.38c-.8,0-.88,0-.46,0l-.38-.22c-.79.02-1.21.21-2.06,1.21l.24,1.25,3.3-1.06-1.36,1.15,1.42,1.3-1.56,3.13-1.02-1.12c-.2-.22-1.01.36-1.3.44l-.92.26c-.2.06-.34-.63-.18-.76l.77-.62c-.08-.09-.9-.12-.99.11l-.38.96c-.16.63-.41.71-.49-.35l-4.03,3.12c.42,1.41-.53,2.27-1.53,3.11-.05.57-.35,1.77-.51,1.71l-.04-1.44c0-.27-.91-.5-1.01-.24l-.4,1.03-1.11-1.65-2.11,1.73-.43,2.6c1.11.29.11,1.76-.49.54-1.01.43-1.72.87-2.73,1.89h1.76c.55-.01,1.48-.93,1.91-.72.38.18,1.21.84,1.43,1.06-.87.32-1.65.46-1.62.84l.14,1.82,1.04-.97c.25-.23.81-.91,1.12-.76l1.05.51,1.69.62-.76.46s.34.29.43.39c.23.23,0,1.12-.31,1.24-.34.13-1.03.23-1.36.22l1.4-.77-.36-.36-2.86.47.12-1.07-1.56.43-.74-1.84.16,1.91c-.78-.32-1.73-.89-2.34-.67-.7.25-1.64,1-2.01,1.58l1.14-.28c.14-.03.2.43.14.56l-.3.7.61.03c.16,0,.08.61-.08.64l-.62.12-1.06.21c-.13.03.4.33.56.44l-1.08,1.79,1.9-.65-.41,2.52-2.3.24-1.61,1.01-3.04,1.71.78.79c-1.08.15-2.63.43-2.91,1.1-.36.88-.83,1.77-1.35,2.36-.71-.91-1.51-.84-1.9-.33-.23.29-.03.83.08,1.26l-.29,2.19c.89.26.93.26.92.47-.01.14-.08.96-.04.48l-.95-.38c-.2-.08-.22.71-.18,1.03.25,1.75-2.13.88-3.07,2.82l-.34-1.22-.8,1.71-1.94-.84-.67.8c-.2.24-1.49-1.26-1.72-1.14l-1.23.64.27-2.86,2.39-2.79-.57-1.75c.93-.46,1.44-1.37,1.25-2.2l-.28-1.24c-.03-.14-.42.14-.5.26l-.37.57.02-1.26c0-.25-.45-.64-.67-.57l-1.04.31c-.18.06-.34-.64-.19-.76l.86-.68-1.65-1.14,1.76-1.71,3.16-2.92-.58-.72c-.12-.14.7-.35.95-.42.67.02,1.42-.26.06-.89l2.25-1.98-1.02-.83c-.18-.15.12-.55.37-.9-.28-.24-.36-1.22.03-1.34.35-.11,1.15-.08,1.77-.03-.63-2.62,2.83-3.79,1.99-4.53l-1.41-1.25,1.06-.19-.8-1.12c-.16-.22.64-.74.89-.89.3-.19.48-1.31.16-1.44s-.82-.19-1.45-.21c-1.02-.02-1.71-1.11-2.07-2.25l-3.02.21c-.23.02-.78.51-.9.34l-.56-.81c-.77.1-1.72.03-2.28-.21l-1.21-.5-.45-1.04-4.1-1.65-.02-1.9c0-.37-.97-.9-1.3-1.17l1.41-.66c.25-.12.26-.55-.08-1.08l1.96-2.21c.56-.63,1-1.37,1.28-2.03.07.15.48.78.6.63l.48-.59c1.11-1.37.46-2.32,2.27-3.95.49.11,1.48.08,1.6-.29l.43-1.39c.64.28,2.18.13,1.93-.31l-.63-1.09c-.08-.14.17-.47.23-.63,0-1.21.25-2.24.9-3.49.88-.21,1.6-1.16,2.26-2.08.43-.26.92-.42,1-.66l.4-1.3,1.89-2.05-1.5-1.23,1.19-.13c.15-.02.4-.42.27-.5l-.7-.46c.15-.18.87-.68,1.04-.4l.74,1.26,1.91-2.24c.21-.24-.28-1.03-.45-1.08l2.14-.99c-.34-.26-.82-.59-.67-.68l.8-.51c.56-.36,1.15-1.48,1.7-2.16.74-.91,2.24-1.63,3.09-2.49.46-.46,1.11-1.89,1.71-2.18,1.84-.91,3.16-2.24,3.51-4.24l2.81-1.97c.27-1.04,1.33-2.54,2.16-2.83.28-.1.96.65,1.05.83l.14-1.46c.03-.32.96-.3,1.51-.31.73-.01-.29-2.65,4.66-4.41.74-2.01,2.28-3.23,4.37-3.37.57-1.23,1.71-1.91,2.91-2.29l2.52-.79c.92.11.94.11.04,0l-1.04-.61c-.17-.1.32-.45.51-.5l.47-.14,2.57-.62.77-1.23c.18-.28.69-1.15.96-.97l1.34.88-.88-2.22c.68-2.04,3.39-1.28,3.14-4.37.97.02,3.34-.29,3.77-1.23.35-2.14,1.5-2.61,3.2-3.52,1.53-.82,3.02-2.69,4.42-4.01,1.84-1.72,4.22-2.59,6.65-3.56,1.43-.57,2.46-2.09,3.47-3.29l3.09-3.67c1.08-1.28,2.23-2.58,3.81-3.3.98-.98,1.82-2.59,3.96-2.03l1.22-1.05,2.48.57-.64.84c-.15.19.56.68.79.85l-1.37,1.2c1.48.52,2.72-.15,4-1.07l-.04-1.87c-.14-.19-.59-.65-.42-.79l.87-.75c.17-.15.94-.22.96-.43l.09-.96c1.94-1.24,3.5-2.97,4.76-4.84l2.13-3.17c.96-1.42,2.11-2.35,3.8-1.97.1-.76.26-1.46.54-1.68.8-.64,1.36,2.17,3.85,2.03l1.64,1.63-1.72,1.89c-.31.01-1.49.4-1.36.65l.44.8-2.96,2.66-1.44,2.43-2.36,2.98c-.23.3-.76,1.17-1.06,1.02l-1.35-.68c-.14-.04-.8.51-.71.79l.37,1.15c.14.44-.15,1.18-.45,2.05-.1.4-.21.64-.98-.12-.27.6-.53,1.69-.72,2.71l-1.4-.25c.62,1.26.09,2.01-.6,3.16l-1.85,3.07c-.89,1.49-1.68,2.62-3.5,3.33l.53.51c-.09-.08-.68,2.14-1.34,2.26l-1.74.31c-.97,1.8-2.15,3.97-3.78,4.89l.53.63c-.4-.78-.52-.6-.48.07l-.31-.56-1.14-.13-2.23,1.13c-.03-.1.56.98.35,1.23l-.9,1.08-1.94,1.98-.93,1.99c-1.44,3.09-.83,4.23-2.77,4.55.02.32.14,1.01-.09,1.22l-.79.75.76.96c.12.15-.71.35-.89.42l-.91.34c-.49.18.37,3.74-1.9,4.33-.19.23-.46.76-.69.69l-1.06-.3-1.05,2.22c.39.45.74.84.64,1.03l-.34.62c.14,2.06-.77,3.76-2.95,4.38l-1.09-1.38.64,2.24-1.46-.36c.26.46-.94.75-1.43.61.53.4.95,1.03,1.01,1.83.03.49-.76,1.63-1.04,1.23-.09-.13-.48-.83-.51-.85-.02-.01-.46.26-.61.36-.22-.15-.47-.4-.59-.27-.94,1.03-2.25.52-2.01,1.36l.8,2.85c.09.03-.83.16-.89-.07l-.3-1.11c-1.48,1.57-1.83,2.94-1.93,5.09l-.84-1.22-1.16,1.78-1.6,1.86.77.5c.12.07-.03.3-.14.38l-.67.43c-.65.42-1.34.97-2.11,1.35,0-.02.14.9-.13.89l-1.37-.04.41,2.63.06.9c0,.14-.71,0-.71-.15l-.03-.69c-.01-2.26-1.16.55-4.63,1.3-.37.08-.96.85-.7,1l1.07.63c-.21,1.57-2.35,1.73-3.24,3.44l1.35-.26c.28-.05.51.78.69.99l.62.69c.13.14-.16.6-.35.62l-1.17.16.89,2.28.8-.92c.13-.15.69.16.91.28l3.06-3.3-1.08-.69,2.69-1.83c.52-.35,1.44-1.44,1.81-1.97l1.5-2.16,1.85-1.68,3.53-4.25,1.54-1.81,3.06-3.08c.18-.18.52-1.14.71-1l.64.49c.52-1.63,2.35-1.24,2.44-1.93l.15-1.13,1.17-.57c.19-.09.14-.22-.22-.77l1.22-1.58c2.19,0,1.8-2.22,3.06-3.42.5.42.96.83,1.05.66l.33-.67ZM153.25,11.87c.13.14.32-.71.14-.77l-.79-.28c-.18-.06.05.4.18.55l.46.51ZM97.34,18.22c0-.17-.14-.31-.31-.31s-.31.14-.31.31.14.31.31.31.31-.14.31-.31ZM96.65,23.32c-.62-.29-.95-.39-.93-.54l.07-.78c-2.28.18-1.6,2.45-2.28,3.23-.09.1.47-.12.6-.21l2.55-1.7ZM97.05,22.64c-.21.04.28.68.48.6l.57-.21c.13-.05-.06-.6-.2-.57l-.85.18ZM155.59,26.06c.57-.23,1.02-.4.98-.56l-.22-.85c-.07-.28-.23-.63-.13-.78l.62-.85c.06-.16-1.12-.18-1.28.08l-.39.65.42,2.31ZM157.85,24.04l-.09-.66c-.02-.15-.51-.35-.56-.21l-.22.71-.19.6c-.03.1.23.16.32.11l.48-.25.25-.32ZM154.4,24.26l-.18.18.18.18.18-.18-.18-.18ZM157.99,24.24l-.14.25.34.29.31-.07c.07-.16.14-.25.01-.3l-.52-.18ZM152.15,27.04l-1.63.67,1.69-.26c-.1.34.77.91,1.11.74.4-.2.89-.77,1.55-1.62-1-.25-2.08-.1-2.73.47ZM189.56,27.81l-.18.18.18.18.39-.18-.39-.18ZM151.56,28.52l-.18.18.18.18.18-.18-.18-.18ZM151.23,31.12l1.23-2.01-1.92,1.71.49.5.2-.19ZM102.99,47.89l1.3-.11c.13-.01.05.16-.01.26l-.23,1.25c-.04.25.76.34.99.24.58-.25-.58-1.97.28-2.25.37-.12,1.16-.16,1.53-.16l1.03-1.71c2.06-3.44,4.06-2.74,4.32-5.34l.85-1.42c2.25-2.43,4.74-6.01,5.01-8.61l-2.11,1.21-.63,1.98c-.71.48-.94.77-1.28,1.69-.26.7-1.13,1.97-1.57,2.5-1.56.04-2.09,2.64-4.7,4.41l-1.23,2.54c-1.45.33-2.61,1.03-3.31,2.08l1.66.08-1.89,1.37ZM146.83,30.95l1.49-.92-1.92.04c-.57,1.14-.9,1.43-1.9,2.02-.5.3-.2,1.25.45,1.34.41.06,1.06-.35,1.21-.73l.68-1.75ZM88.75,34.84l1.66-2.01-2.87,1.12c-.28.11-.55.77-.4,1.02s.61,1.08.79.86l.82-.99ZM144.81,33.85l-.18.18.18.18.18-.18-.18-.18ZM82.25,37.88l2.31.92c1.76.7,2.69-2.93,2.28-3.15l-1.29-.71c-.19.66-.25,1.12-.44,1.16l-1.1.24c.01.05.08.19.16.24l.6.42-2.47.74-.05.13ZM82.03,37.49l1.22-1.21c.16-.16-.63-.39-.81-.26l-.54.38c-2.14-.09-.79,2.23-3.93,3.81.32.2,1.55.77,2.13.93.49.13,1.44-.62,1.8-.96l1.46-.32.16-.17-.53-.75c-.12-.17-.73.35-.92.32l-1.44-.21,1.2-1.27.21-.29ZM83.76,39.8l-.22.28-2.52,3.15.38.41,3.52-3.49-1.16-.35ZM77.38,40.77h-.23s.23.01.23.01h.47s-.23-.01-.23-.01h-.24ZM142.68,41.67l-.18.18.18.31.18-.31-.18-.18ZM209.12,44.83c.04.3.06-.47-.11-.55l-.78-.37.47-1.03c.83-1.84-1.18.97-2.44,2.15-.16.15.08.8.25.65l.7-.59c.33-.27,1.09-.32,1.91-.25ZM187.08,43.09l-.18.18.18.18.18-.18-.18-.18ZM80.8,45.59c0-.3-.75-1.03-1.03-.94l-.97.33-.97-.82c-.39.24-1.21.85-1.13,1.23l.38,1.77,3.71-1.56ZM200.31,46.06c-.64.05-.99.14-.95.03l.29-.92c.13-.14-.39-.74-.51-.56-.12.83-.21,1.59-.5,1.75l-.89.47c-.02.55-.21,1.22.11,1.33s1.3-.08,1.58-.28l1.02-.72c.22-.16-.15-1.24-.15-1.1ZM99.2,51.07c.08.17.56.68.8.58l1.16-.49c.59-.25,1.76-.38,1.91-.92s-.52-1.5-1-1.94l-1.6,1.35c0,.23.1.8-.12.9l-1.15.53ZM153.69,49.12l-.22.18.22.18.18-.18-.18-.18ZM215.27,50.49c.21-.23.21-.83-.02-.7l-.89.47c-.15.08.17.11.91.23ZM213.48,50.72l-.93.48.93-.48ZM98.47,51.76l-.54-.15c-.15-.04-.34.51-.19.55l.57.17.17-.58ZM98.61,52.31l-.17.58.54.15c.15.04.34-.51.19-.55l-.57-.17ZM161.5,53.74l-.18.18.18.18.28-.18-.28-.18ZM79.48,56.97c0-.15-.12-.27-.27-.27s-.27.12-.27.27.12.27.27.27.27-.12.27-.27ZM212,56.76h-.23s.23.01.23.01h.47s-.23-.01-.23-.01h-.24ZM55.1,63.51l2.47-4-2.75,1.11c.32,1.28.3,1.62.28,2.89ZM95.65,64.27l3.06-1.57-.97-1.78c-.21-.39-1.73-.1-2.09.29l2.02.73-1.94,1.26-.1,1.06ZM67.31,63.69l1.66-1.96c.07-.26-1.27-.61-1.5-.24l-2.09,3.28c.5-.23,1.63-.71,1.94-1.08ZM187.61,63.79c-.51.96-3.07-.38-2.87.41l.36,1.42-1.44.83,2-.16.02-1.45.64.79c.08.09.2.13.29.04.12-.12.5-.54.5-.53s.2.36.44.79l.82-1.49c.57-.16.99-.71,1.63-1.67-.63-.25-2.17.08-2.39,1.02ZM102.81,66.11l-2.18-.53.08,2.38c1.03-.63,1.6-1.18,2.1-1.85ZM183.39,67.91l1.63-.72c-.51-.37-1.67-.94-2.01-.58l-1.3,1.39-.65-1.61c-.44,1.01-.65,1.58-.39,1.92.22.29,1.2.42,1.57.41l1.51-.03c.17,0,.67-.33.84-.44.09-.06-.38-.1-.49-.13l-.71-.22ZM124.27,68.48h-.23s.23.01.23.01h.47s-.23-.01-.23-.01h-.24ZM185.35,74.92c2.71-.3,4.29-2.84,5.31-5.5l-1.12.86c-.19.14-.85-.02-1.15-.02-.26,0-.61.74-.38.86l.99.48c-1.42.72-2.57,1.66-3.65,3.32ZM182.63,73.24c.08-.89.63-.87.73-.2l-.2.57s.52.34.36.24l3-2.91-2.06-.18c-.59-.49-1.37-.8-1.82-.64l1.04.94c.16.15.03.96-.02,1.08l-1.18-.34c-.5-.14-1.01,1.61-3.3,1.61-.05.01-.09.64.08.61l.85-.12,2.52-.67ZM151.07,70.82c0-.23-.18-.41-.41-.41s-.41.18-.41.41.18.41.41.41.41-.18.41-.41ZM82.08,75.91l2.87-2.63c-.54-.12-.83-.06-.89-.21l-.36-.97-.56,2.27-.76-.67-.3,2.21ZM129.21,79.79c.17-.58.24-.99.45-1.02l1.11-.15,1.33-1.92.7,2.01.46-1.61c.16-.55.63-1.84.55-2.44-.07-.57-.91-1.18-1.37-1.64l-.3-.67c-.06-.14-.43.16-.59.29l-2.91,2.16.52.6c.1.12-.33.86-.46.95l-3.15,2.17c-.67.46-2.07.76-2.17,1.66l2.18-.53c.36-.09.97.79,1.24.99l2.41-.83ZM40.3,73.91l.17-.2-.17.2ZM86.56,73.63l-.18.18.18.18.18-.18-.18-.18ZM40.74,73.98l-.21.22c-.06.02.32.69.46.55l.45-.44c.09-.09.12-.23,0-.25-.15-.02-.78-.1-.7-.09ZM80.9,79.52c.34-.18.73-.38.77-.17l.18.99.94-1.6c.23-.39,1.35-.25,1.88-.24.45,0,1.09-.95,1.16-1.46l.36-2.63c-.49-.16-1.18-.38-1.3-.16l-.55.95-3.07,2.89c-.22-.64.05-1.23.65-2.13.25.02-.8-.54-.98-.34l-.78.88c-.33.19-1.13,1.11-.8,1.39l1.42,1.19-1.2.13c-.21.33-.05.75.3.85l1.02-.53ZM100.92,75s-.21-.19-.63-.57l-.9.72c-.18.14.44.86.61.71l.92-.86ZM204.48,74.63v.26s0,.26,0,.26v.26s.01-.26.01-.26v-.26s0-.26,0-.26ZM95.19,81.56c1.48-.65,2.61-1.57,3.44-2.74l2.09-2.95-2.57.87c-.09.36-.35,1.07-.53.95l-.95-.68c-.43-.45-1.47-.02-.22.62l-1.26,3.94ZM179.37,79.19c.25.26.61.13,1.08-.26.29-.25.07-.67-.34-1.07l1.32-.7c.3-.16-.07-1.3-.4-1.19-.58.18-1.44.35-1.43.64l.02.82c-.67-.14-1.56,0-1.78.39-.16.29.12.85.25,1.23l.1,1.4c.02.32,1.34-.1,1.2-.2l-.65-.78c-.12-.14.56-.37.64-.28ZM252.9,79.08c.4-.51.64-1.04.74-1.97l-1.56,1.41c-.14.13.09,1.05.27.97l.4-.17.15-.25ZM209.51,78.42h-.23s.23.01.23.01h.47s-.23-.01-.23-.01h-.24ZM37.54,78.96l-.18.18.18.18.18-.18-.18-.18ZM61.12,79.67c0-.17-.14-.31-.31-.31s-.31.14-.31.31.14.31.31.31.31-.14.31-.31ZM37.12,80.19l-.67-.62-1.47,2.08c1.32-.05,1.21-.11,2.14-1.45ZM205.96,79.83h-.23s.23.02.23.02h.24s.23,0,.23,0h-.23s-.24-.01-.24-.01ZM152.62,80.53l-.18.38.18.18.18-.18-.18-.38ZM34.22,81.91c.01.2.12.63.23.49l.4-.47c.08-.09-.64-.14-.63-.02ZM126.34,82.16l-.18.18.18.18.18-.18-.18-.18ZM71.99,82.87l-.18.18.18.18.18-.18-.18-.18ZM75.32,83.18c-.31-.42-1.38-.3-1.86.1-.35.29-.89,1.16-1.07,1.63-.07.18.46,1.03.56.87.07-.1.2-.33.2-.45l-.02-.51,1.96-1.24.24-.39ZM125.89,83.13l-2.17-.13c-.5-.03-1.44.18-1.73.37,1.73.67,3.2.85,3.9-.24ZM227.63,84.87l-.26-.78-.92.73c-.09.07-.08.64.02.59l1.16-.54ZM134.28,85c0-.17-.14-.31-.31-.31s-.31.14-.31.31.14.31.31.31.31-.14.31-.31ZM214.07,85l-.18.18.18.18.18-.18-.18-.18ZM55.43,86.78l.02-1.45c-.19.11-.72.41-.63.55l.61.89ZM129.53,85.28l-.46.45-1.62,2.01c2.52-.32,2.34-2.71,2.08-2.46ZM92.43,91.18c1.86-.31,1.58-1.49,1.33-2.54-.15-.64.43-1.84.75-2.6l-2.01,1.95c-.38.37.13,1.65.57,1.97l-.64,1.21ZM94.16,93.51c.71-1.04,1.75-1.68,2.96-2.12-.14-.86-.05-1.86.67-2.52l-.52-2.66-.48.17.21,1.38c-.7-.38-1.05-.56-.68-.34.15,1.01.32,1.66.06,1.81l-1.08.58c.28.18.72.46.57.53-.1.05-.33.25-.44.22l-.7-.14-.58,3.09ZM53.88,87.13l-.18.18.18.18.18-.18-.18-.18ZM90.11,87.13l-.18.18.18.18.18-.18-.18-.18ZM228.64,87.13l-.18.18.18.18.18-.18-.18-.18ZM87.52,96.38l1.86-4.28,1.34.2c.27.04.3-.98.23-1.52l-2.81,1.27c.97-1.46,1.27-2.09,1.41-3.57l-.2-.55-1.87,1.69-1.87,1.69,1,.78c.2.16.67-.35,1.03-.72.11.08.58.97.39,1.24l-.83,1.17c.01.7.09,1.64.3,2.61ZM229.72,90.44l-.6-2.63-2.14.96c.85.74,1.49,1.25,2.74,1.67ZM209.16,91.15l.6-1.25-1.06-.49c-.13-.06-.42.47-.36.6l.56,1.29.26-.14ZM244.19,89.62c0-.23-.19-.42-.42-.42s-.42.19-.42.42.19.42.42.42.42-.19.42-.42ZM242.25,91.97l2.81-1.48c.26-.14.66-.56.79-.81s-.69-.77-.89-.56l-.69.73-2.02,2.12ZM112.13,89.97l-.18.18.18.18.23-.18-.23-.18ZM190.2,95.22c-.05.39-1.87.22-1.14,1.38l2.89-1.52-.37-.94,2.87-2.23-1.97-.8-1.55-.63c-.19.41-.98,1.03-1.43.99-.55-.05-1.24-.09-1.37.17l-.58,1.16c-.48.62-1.27,1.56-1.09,2.23.22.81.99,1.33,1.87,1.27l-.97-.91c-.21-.19.38-1.08.62-1.23l2.53-1.58-.31,2.63ZM128.27,91.99c.06-.37.04-1.16-.11-1.07l-.9.56c-.15.44.2.67,1.01.51ZM178.06,91.39c0-.22-.18-.4-.4-.4s-.4.18-.4.4.18.4.4.4.4-.18.4-.4ZM177.56,93.58l.05-1.3c.01-.32-.98-.22-1.38-.11-.57.16-1.04.57-.82.86.4.53.61.81.59.78l.54-1.24c.07-.17.44.13.54.28l.48.73ZM89.74,97.09l1.77.56c-.14.39-.23.7-.37,1.37l1.82-2.9.39-.87c.07-.17-.88-.4-1-.25l-1.26,1.53.34-2.64,1.18.27c.19.04.29-.59.34-.79l.18-.72c.04-.15-.51-.35-.56-.19l-.29.92-.39-.3c-.54.6-1.19,1.04-2.04,1.49l.73.85c.12.14-.52.55-.7.69-1.52,1.22-1.75.54-2.9,1.43-.1.07.31.11.43.08l.73-.14.59,1.86,1-2.25ZM84.07,92.81l-.18.18.18.18.18-.18-.18-.18ZM30.97,97.57l.16,1.38c.72-.83,1.74-1.99,2.15-2.93l1.09-2.51-3.19,1.28c.46.28,1.03.77.86.96l-.55.62c-.13.14-.54-.47-.69-.68l-.43,1.13c-1.52-.39-2.95-.37-4.07-.06,1.78,1.71-.95.98-1,3.31l1.64-1.3c.18-.14.9-.42.99-.2l.46,1.04c.76.47,1.98-.81,2.2-1.58l-.39-.37.54-.15c.11.03.22.04.23.07ZM84.71,95.11l-.1-1.16c-.02-.27-1.02-.27-1.2-.07l-.79.85c-.95,1.01-2.18,1.83-2.58,2.99.61-.22,1.38-.56,1.45-.29l.37,1.61.7-1.14,1.76.73-.8-1.05c-.17-.22.24-.85.39-1.1l.39-.67c.15-.26-1.03.38-1.2.11-.22-.34.85-.76,1.27-.65l.34-.16ZM224.69,95.82l1.34-.85.79-.51c.12-.08-.37-.68-.5-.61l-1.69.82c-.68-.61-1.15-.8-1.63-.48-.63.42-.62,1.09-.19,1.91l1.47-.74c-.67.49.37.93.41.47ZM152.87,98.19c1.14-1.05,1.77-1.88,2.11-3.26-.69-.2-1.4-.18-2.01-.03-.4.1-1.12.92-.83,1.2.43.41.91.69.88.94l-.15,1.15ZM84.8,95.82v-.36c0-.3,0-.07,0,.36ZM179.82,96.9l-.55-.92-1.7,1.56,2.03-.35c.07-.01.12-.1.23-.29ZM106.14,98.55c.34-.94.71-1.23,1.62-1.74l-.62-.73-2.64,2.65,1.64-.17ZM157,105.36c.06.33.16.87.38.79l1.09-.4c.22-.08-.73-.78-.64-.67l1.15-.84c.19-.14.07-.77.08-.99.77-.38,1.75-1.05,2.01-1.74.38-.99.83-1.22,1.46-1.81l2.41-2.27-1.53.54-.12-1.48-2.11.1-1.48,1.82-.55,1.75-.09.67c-.02.13-.36.16-.54.17l.07-2.14c-.87,1.05-.83,2-.79,3.34-1.52.33-3.06,1.08-3.48,2.72l1.17.25-2.55,1.22c-.11.05-.21.52-.09.51l.71-.03c.15,1.46-1,2.48-1.89,3.6l-2.12,2.65.67-3.1c-.71.61-1.28.89-1.28,1.26l-.02,1.96-1.14-.93c-.14,1.27-.72,2.53-1.98,2.43l.52,3.18-.74-.73c-1.11,1.29-3.1.68-3.03,1.33l.09.84,1.99.15-1.89,2.54-3.93,2.16c-.09-.12-.46-.56-.54-.36s-.44.72-.28.77l1,.3c-.75.38-1.68.79-1.28,2.41l.98-1.91.89,1.21,1.6-1.01c.09-.4.36-.93.59-1.11l2.02-1.59c2.05.29.64-3.49,3.44-3.36-.83,1.22-1.03,1.71-1.35,3.31-.11.03.67-.19.97-.27.18-.05.14-.24.09-.7l3.1-4.12-.66-.12-2.35,1.68c-.68-1.36,1.95-1.71,1.79-2.29l-.38-1.39c.23-1.01,1.9-.44,2.17-1.08l.5-1.21c.17,0,.8-.02.7-.21l-.61-1.25c1.13-.06,2.83-.55,3.26-1.31l-.08-1.18s1.42-1.87,1.72-1.41l.69,1.04,2.26-1.33c.64-.29.6-.28-.3.1-.11-.12-.36-.48-.25-.56l.76-.55c.19-.2-.12-1.37-.35-.19l-3.11,1.36,1.03-2.38-.48-.46.54-.06.15.4ZM45.51,99.24l-.68.53c-.1.08.3.61.43.57l3.25-1.02-.29-2.58-1.5.96c-.35.23-.75.85-.85,1.25l.39.3-.46.28-.3-.28ZM179.96,97.39c-.75.88-2.68.79-2.43,2.58l1.66-1.69.08.92,1.74-.86c0-.26-.03-.68.11-.87l.61-.82-1.81.27.03.46ZM235.32,99.23c.8-.62,1.07-.82,1.26-.65l1.07.92.36-3.2-1.9,1.91-1.9-.79,1.11,1.8ZM176.76,98.53c.21-.03.86-.83.68-.96l-.71-.52-1.62,1.68,1.66-.2ZM201.88,97.45l-1.33.38c-.32.09-.06,1.44.18,1.49l1.14-1.87ZM152.14,99.54c-.04-.28-.1-1.22-.37-1.23l-1.11-.03.87,2.24c.08.22.83.43.8.21l-.18-1.19ZM87.62,98.5l-.18.18.18.31.18-.31-.18-.18ZM86.55,100.74c.44-.08,1.18-.15,1.17-.36l-.05-1.4c-.49.11-1.42.69-1.56,1.21-.16.58.03,1.94.27,2.04.79-.5,1.15-.77.95-.91l-.78-.57ZM141.99,99.21l-.62.84c-.08.1.59.36.63.24.17-.47.29-.84-.01-1.08ZM176.64,99.92c0-.22-.18-.4-.4-.4s-.4.18-.4.4.18.4.4.4.4-.18.4-.4ZM179.45,105.75c.11.09.62.51.33.27-.35.7-.58,1.14-.63,1.49s1.15.82,1.11.57l.64-3.27c.4.41,1.05,1.1,1.16.85l.45-1.04c.34-.77,1.11-1.89,1.08-3.07l-2.07.46-.18-2.32-2.89-.13c-.71,1.71.63,2.29-1.28,3.13-.29.13-.88-.93-.63-1.12l1.07-.81c.12,0-.2-.59-.38-.48l-.55.35-1.03.49c-.16.08.11.76.12.93l-2.7,1.58-.55,1.41c.77-.3,1.76-.64,2.06-.28l1.2,1.45c.39.47,1.55-.92,1.73-1.45l.38,1.09c.13.37,1.23-.37,1.55-.1ZM189.98,111.5l.16,1.58c-.01.37-.07,1.48.27,1.53l1.15.17c.2.07.62.38.8.28l.81-.44c.31-.17.78-.69.87-1.03.07-.27-.5-.56-.96-.84-.35-.25-.56-1.35-.24-1.66l1.38-1.3c.07.09.16.65.04.82l-.76,1,1.51-.21c.55-.07-.96-2.91.06-3.4l1.73-.83c-.28-.17-.69-.42-.55-.52l.67-.42,2.7-1.07-.23-1.89,1.22.08c.22.02.47-.58.59-.85.36-.24.8-.44.72-.72l-.39-1.29-.24-.81-.56,2.59-.88.61c-.18.13-.54-.61-.72-.99l-.75,2.15c1.88,1.54-1.47.03-2.42,2.31-.4-.58-1.01-1.32-1.45-1.45-.38-.11-.97.64-1.28.97l-1.89,1.99h-.71c-.17,0-.18.65-.01.62l.8-.16c.18-.04.58.04.77.09.18.04-.26.49-.42.6l-.96.66c-.19.13.48,1.7.19,1.65l-.67-.1-.34.29ZM44.54,105.99l2.19-1.75c.33-.26.9-1.1,1.1-1.51.18-.37-.44-1.07-.71-1.33-.64.74-1.33,1.27-1.9,1.25l.45-1.17c.06-.16-.13-.39-.44-.89l-.78,1.69-1.96,3.38c-.46-1.1-.52-.54-.35.1.62,1.01.71,1.2.75,2.57-.19.21,1.17-.27,1.25-.65l.38-1.7ZM141.26,100.63l-.18.18.18.18.18-.18-.18-.18ZM150.44,102.94l.44-2.5-2.58,2.6,2.14-.09ZM138.63,104.43l2.59-2.07-.33-1.03c-.05-.15-.67-.17-.7-.01l-.14.74-3.17,3.97,2.48-.79-.73-.79ZM233.78,101.48l-2.17.44c.78.03,1.53-.01,1.98-.11.07-.01.09-.08.18-.33ZM233.76,101.88l.22.47c.06.12.53,0,.66-.05l1.24-.87-1.94.16-.18.29ZM134.63,102.84c.15-.27-.72-1.07-.88-.83-.42.59.57,1.4.88.83ZM231.74,102.67l.19-.18-.19.18ZM100.05,102.76l-.18.18.18.18.28-.18-.28-.18ZM232.1,103.03l.18-.19-.18.19ZM134.13,103.6l-1.45-.22-1.95,1.93c1.37-.38,1.98-.75,3.4-1.71ZM196.35,104.14c.14.15-.2-.44-.29-.36l-.59.58c-.05.05.05,0,.88-.22ZM153.91,105.3c0-.19-.16-.35-.35-.35s-.35.16-.35.35.16.35.35.35.35-.16.35-.35ZM228.33,106.18l-.2-1.4-1.46,1.7,1.66-.3ZM64.9,105.86l.05-.31-.05.31ZM198.2,110.02l3.06-1.98.42-1.42c.07-.22-.5-.64-.69-.5l-.74.55c-.15.11-.7.29-.62.45l.41.83-3.49,1.89.77.9c.14.17.59-.52.87-.7ZM186.24,109.31l.78.12,2.1-2.14-.18-.62-2.71,2.63ZM81.35,113.2l1.47-3.59-1.3.35-.76-2.8c.21-.26-.8.33-.84.69l-.13,1.11c-1.24.28-1.85,1.43-1.38,2.6.33.81,1.52,1.54,2.15,1.43-.12-.96-.13-1.2.04-1.89l.76,2.1ZM197.66,107.83c-.13.14-.64.73-.51.79l.58.27c.26.12.25-1.4-.07-1.06ZM155.82,108.8l-.18.18.18.18.18-.18-.18-.18ZM190.07,111.12l-.05-1.39-1.7-.7c-1.04,1-.23,2.39-1.39,4.08l2.23-1.3.62-.36.28-.34ZM175.49,109.41c-1.27.35-1.94.75-2.66,1.43,1.36.27,2.24-.27,2.66-1.43ZM186.01,109.86l-.18.18.18.18.18-.18-.18-.18ZM170.95,110.9l-.26.84c-.06.19.65.37.75.21.12-.18.39-.66.21-.73l-.71-.31ZM172.51,110.93l-.18.18.18.18.18-.18-.18-.18ZM196.87,110.96l-.37.82c-.08.19.67.31.75.12l.3-.74c.05-.13-.63-.31-.68-.19ZM119.57,118.72l.39.78c.28.55.36-1.09,2.24-1.43,1.72-.31,2.23-1.75,3.74-1.68-.02-.06-.12-.47-.03-.67l.54-1.14-1.77.4-.68,1.99-.24-1.38c-.04-.22-1.96-.45-1.59-.84l.57-.59c.13-.13.45.58.51.65l1.87-2.41-.93.2c-.09.02-.03-.13.03-.2l.66-.77-1.33.67c-.27.14-.04.9.01,1.18l-3.01.27.33,2.64,2.42-.14c-.01.27-.25,1.02-.49.99l-1.12-.19-1.96,1.36-.16.3ZM49.62,112.35v.23s0,.24,0,.24v.23s.01-.23.01-.23v-.47ZM166.92,112.64c.15.07-.45-.19-.45-.19-.16.1-.25.3-.19.52.24.28.29.4.64-.32ZM102.16,113.38l.1-.35-.1.35ZM124.92,113.77l-.18.18.18.18.18-.18-.18-.18ZM134.53,119.19l1.13,1.97,1.47-.79-1.59-1.71c2.07-.74,2.9-1.6,3.79-3.1l1.08-1.81-2.78.49c-.51.09-1.2.71-1.33,1.29l-.68,2.99c-.78-.81-.79-1.12-.76-1.86-.09-.18-1.23-.09-1.37.22s-.46,1.04-.44,1c.78.56,1.26.93,1.48,1.31ZM164.34,120.28c.65.64.95.93,1.39,1.1.29.11.73-.57.45-.91l1.03-1.45-2.54-1.31,1.18-2.01.88-1.93c-.41-.18-1.74.33-1.83.78l-.25,1.36c-1.72.29-2.24,1.66-3.07,2.77-.63.84-1.47,1.55-1.63,2.57l2.29-.65-1.39,2.35c-.38.65-.77,1.33-.65,1.82.18.75,1.09,1.22,1.67,1.06.83-.23,1.36-.97,1.19-1.59l-1.71.94c.33-1.69,2.25-4.42,3.01-4.89ZM110.97,114.86l.15-.32-.15.32ZM110.36,115.55l-.18.18.18.18.18-.18-.18-.18ZM172.92,117.27l1.84-.88c.18-.07-1-1.07-1.28-.82l-2.41,2.07c.88.01,1.36-.13,1.85-.37ZM189.8,121.62c.17-.14.66-.58.48-.69l-.87-.53,1.73-2.04c.51.75,1.3,1.9,1.78,1.64l1.6-.88-2.12.04-.26-.25,1.36-.46-1.61-.88c.36-.84.4-1.24.33-2.05l-1.95,2.34-1.54,1.75-.71,1.35c-.05.09.16.11.28.09l.84-.21c-.3.41-.69.83-.96.75l-1.29-.42-2.25,2.76c-.6-.37-1.41-.77-1.59-.48l-.65,1.09-2.07.6,1.01.22c.11.02.14.21.13.37l-.06.7c0,.11-.31.37-.36.27l-.43-.85c-.11-.21-.5.29-.54.53l-.19,1.02-.9-1.78c-.52.02-1.23.09-1.47-.1l-1.2-.96c.25.9.57,1.23,1.2,1.72l-2,1.39-.97-.75c-.21-.16-.81.43-.76.68l.16.99c.04.25.43.8.32,1.03l-.34.68.77.57c.13.09.69-.04.66-.2l-.23-1.12c.87-.51,2.43-.87,3.5-.91-.12.66-.25,1.19-.05,1.23l1.15.23-.44.35.98.53c.19.1.76-.52.69-.72l-.37-.97c-.11-.29-.43-.92-.73-.94l-1.13-.11.81-.79,2.27-.17c.31.03,1.06.47,1.25.21l.91-1.19.96-.16c.05.45.13.9.35.81l1.16-.48-.72-.77,3.44-1.46-.32-2.21.68-.15.29-.24ZM186.31,120.6c1.11.99-.29-1.6-.17-1.81.14-.26.78-.84,1.03-.68l.81.52.52-1.84c-.15-.94-1.23-.98-.88.39l-3.09-.64c-.12.07-.23,1.3.1,1.59,1.44,1.26.68,1.56,1.69,2.45ZM91.17,117.68c.5.05.62-.75.19-.68-.23-.14-.54-.09-.74.14-.52.89-.33.97.55.54ZM174.29,116.8l-.18.34.18.18.18-.18-.18-.34ZM123.85,120.37l1.81-1.86c.21.03.86.25.93.07l.4-1-3.22.09,1.08.47c.1.04.19.14.08.16l-.79.12c-.71.11-1.3.49-1.29,1.17,0,.48.68,1.09.99.77ZM204.19,118.99h-1.46s.95-1.63.95-1.63c-1.54-.13-2.53.66-2.62,2.12l1.59-1.24-.25,1.11c-.04.16.59.43.73.34l1.06-.69ZM119.64,118.03l-.97.08-.24,1.64.82-1.35.39-.37ZM158.66,118.03l-.18.18.18.18.18-.18-.18-.18ZM171.07,117.78l-1.92,2.03c1.2-.05,1.93-.49,1.92-2.03ZM215.49,118.04v.23s0,.24,0,.24v.23s.01-.23.01-.23v-.47ZM129.53,123.66l-.24.84c-.03.19-.47.62-.59.48l-.56-.63-1.6,2.16-.03.53-.48.61,1.44-.07c.21,0,.13.48.07.83l.24.38c.1.15.15.72-.02.65l-1.04-.44-.78,2.16,1.91-.17c0-1.59,1.38-2.41,2.75-2.56l-.8,1.66c-.14.28.62.98.8.8l.8-2.19c.99-2.71,3.25-3.41,3.57-7.05l-1.92-.14-1.05.08c0-.18-.11-1.16-.28-1.16-2.02-.01-2.12,2.79-3.25,1.22l2.06-1.98c.23-.25.04-1.54-.28-1.41-1.24.51-.9.97-2.38,1.76l-.62.33c-.1.05.03.28.14.3l.74.19-2.24,2.04c-.26.23.74.3.74.29l-.38.61-.51.83c-.11.17.6.5.7.39.16-1.12.82-2.78,2.14-2.78l-.3,1.3c-.06.25,1.07.28,1.26.12ZM132.15,119.1c0-.17-.14-.31-.31-.31s-.31.14-.31.31.14.31.31.31.31-.14.31-.31ZM158.31,118.74l-.18.18.18.34.18-.34-.18-.18ZM158.74,122.96l-1.76-.17c-.19-.02-.79-.16-.68-.31s.46-.59.63-.72l2.79-2.22c-2.21-.54-4.2,1.56-3.99,3.38l.31,2.68-1.83.78c.83.29,1.53.03,2.13-.5l3.77-3.32-1.38.4ZM179.42,119.69l2.16,2.05c.73-.63,1.11-.96,1.15-1.32.07-.73-1.62-1.56-3.31-.73ZM156.53,119.81l-.18.18.18.24.18-.24-.18-.18ZM87.94,121.65c-.04-.39-.05-.53-.01-.15.09.92.09.98.01.15ZM136.06,122.3c0-.17-.14-.31-.31-.31s-.31.14-.31.31.14.31.31.31.31-.14.31-.31ZM189.93,121.92l-.26.19-.29.39c-.08.11.15.71.23.6l.72-.95c.17.1-.16-.09-.4-.23ZM206.24,129.7c.04-.98-.13-1.7.13-1.9l1.38-1.06,1.84-2.72-2.78.07.34,1.9c.04.21-2.4.29-2.09.69.1.14.42.61.48.78l.7,2.24ZM153.28,124.81l-2.22,1.92c1.23-.1,2.33-.3,2.22-1.92ZM137.23,129.14l-.24-2.22-1.26.38,1.5,1.84ZM149.84,127.08h-.23s.23.01.23.01h.47s-.23-.01-.23-.01h-.24ZM249.57,129.72c.06-.6.12-1.38.32-1.49l1.25-.67-2.15-.27-.77,2.67,1.36-.24ZM148.72,127.62l-.18.18.18.18.18-.18-.18-.18ZM161,130.81c-2.22,1.16-3.8.34-4.88,2.8-.01.24.27.99.06,1.11s-.86.41-1.11.44c-2.57.38-2.82,1.28-3.22.8l-.48-.58c-.38-.46-1-1.11-1.09-1.58s.41-1.42.67-1.79c-.38.11-1.02.26-1.3.06l-.97-.7,1.97-.69c1.51-.53,2.8.48,4.33-1.95l-1.6.51c-1.02.33-2.16-.83-3.14-1.75-.31.29-.42,1.24-.39,1.8l-1.24.86c-.31.21,0,1.45-.16,1.81-.51,1.18-.56,2.58.82,3.34-.85.78-1.41,1.07-2.5.94l-.58,2.11c-1.59,0-2.65.41-3.76,1.44l1.01,1.05,2.4-2.25.48,1.34,1.68-1.69c.46,1.23,1.44,2.37,3.1,2.39.06-.33-.03.4.14.41l1.21.06-.63.65c-.09.1.2.69.16.51,2.01-1.11,2.89-2.67,2.87-4.69l2.42-2.6c.27-.3,1.68-.14,1.67.24l-.04,1.55c1-.25,2.25-1.28,2.01-2.35-.61.54-2.69.54-2.76-.29-.17-2.03,2.46-2.78,3.67-3,.15-.03.19-.67.04-.67l-.73.02c-.07.23-.1.31-.15.33ZM102.19,127.98l-.18.18.18.18.18-.18-.18-.18ZM181.27,128.8c.01.2.12.63.23.5l.4-.47c.08-.09-.64-.14-.63-.03ZM175.94,130.05l1.21-.2c.12-.02,0-.37-.09-.6l-1.13.79ZM134.85,131.29l1.2-1.52c-.67-.03-1.28.87-1.2,1.52ZM160.7,130.38l.19-.18-.19.18ZM43.93,130.82l-.18.18.18.18.18-.18-.18-.18ZM126.55,133.81l.54-1.65c-1.32-.56-2.16-.98-3.15.46l1.81.51-.26.8c-.04.13.4.23.52.17l.54-.28ZM128.12,131.53l-.18.18.18.18.18-.18-.18-.18ZM59.56,131.89v.23s0,.24,0,.24v.23s.01-.23.01-.23v-.47ZM119.12,134.25c.21-.02.79-.19.71-.32-.08-.13-.23-.36-.34-.42l-.36-.19.31-.9c.05-.14-.37-.29-.46-.17l-.42.56c-1.09.12-1.78.14-1.75,1.82.02.16.47.62,1.11,1.17l1.2-1.56ZM155.36,132.43c-2.11-.25-2.86.53-3.47,1.96,1.04.14,1.97.22,2.33-.15.48-.49,1-1.36,1.14-1.81ZM95.42,137.5l2.27-1.99-.79-1.91c-.06.03-.35.42-.32.59l.2,1.27-.65-.87c-.11-.15-.55.01-.8.11-.87.49-1.38.86-1.36,1.37.02.65,1.04,1.79,1.46,1.43ZM168.89,137.27l2.02-1.91c.14-.18.41-.55.24-.62-.11-.05-.59-.29-.7-.27l-2.17.44c.5.52.81.73.78.98l-.17,1.38ZM103.54,135.85c.19-.24.02-1.14-.28-1.09-.47.08-1.11.31-1.17.6-.09.44-.2,1-.01,1.08l.79.33c.19.08.35-.52.66-.91ZM92.47,136.8l.96-.56c.12-.07-.02-.61-.07-.82l-1.28,1.15-.97.26c-.17.04-.09.69.08.75.22.07.67.32.77.12.08-.15.38-.82.51-.89ZM129.87,137.55l1.91-1.55-1.53-.71-1.33,3.07.34.27.62-1.08ZM40.99,136.05l.2-.18-.2.18ZM122.02,137.19l1.64.55.18-1.37c.03-.2-.39-.05-.64.05l-.51.2c-.67.09-1.67.28-2.09.63-.37.3-.41,1.39-.29,2.23l1.72-2.29ZM65.6,136.51v.23s0,.24,0,.24v.23s.01-.23.01-.23v-.24s0-.23,0-.23ZM101.25,137.28c.11-.06.6-.6.45-.63s-.41-.1-.55-.06l-.68.18c-.11,0-.83.49-.63.59.14.07.39.2.53.16l.88-.24ZM163.4,140.16l-.06,1.35-1.81-1.68c-.03.05-.49.69-.65.54s-.69-.71-.93-.83c-.84-.42-2.68,1.18-2.37,2.38l1.12-.47c.21-.09.85.37.74.57l-.56.95c-.54.92.05,2.73,1.55,2.96-.18-1.42.46-2.76,1.69-3.88l1.41,1.48-1.42.37c-.26.07-.3.62-.37,1.41l1.94-1.09c.44-1.3.98-2.39,1.86-3.36l.29.3c.14.15.55-.43.44-.62.67-.37,2.88-2.73,2.46-3.22-.37-.43-1.21-.68-1.64-.53l-1.1.38c-.19.06-.41-.44-.63-.87-.07-.06-.67.22-.75.45l-.27.78c-.03-.14-.75-.98-.94-.77l-.88,1c-.15.17.4.65.44.7l-.46,1.26c-.1.27.69.65.87.43ZM158.07,137.07c-.83-.08-.77-.07.15.01.38.04.24.02-.15-.01ZM221.81,137.42l1.12.68c.14.09.55-.35.55-.4-.34-.45-.76-.91-1.01-.74s-.86.59-.66.45ZM94.81,138.48c-.26-.12-.62-.24-.67-.4l-.26-.85-1.03,1.74c.69.14,1.13.31,1.29.16l.67-.65ZM90.97,138.53c.4.38-.43-.41-.49-.47-.76.58-1.1.81-1.45,1.36-.26.4.19,1.26.52,1.02l1.42-1.92ZM97.79,141.29c.78-.44,1.9-1.85,1.95-2.59.02-.32-1.33-.46-1.5-.2s-.22.42-.43,1.03l-.57.75c-.14.18.35.89.55,1.02ZM127.42,140.98l.79-1.12-1.59-.96c-.43-.26-1.42.5-1.74,1.19l1.02.29c.22.06.16-.6.46-1.35l1.06,1.97ZM128.83,138.99l-.18.18.18.18.18-.18-.18-.18ZM92.72,139.7c0-.17-.14-.31-.31-.31s-.31.14-.31.31.14.31.31.31.31-.14.31-.31ZM116.25,147.13c-.23-.07-.48-.62-.61-.85-.08-.16.81.02.96-.08l.91-.59c.21-.14-.32-.71-.56-.64l-.75.24c-.05-.27.78-.88,1.11-.76l1.33.5c-.46,1.06.03.55.24.58l1.42-.13c.25-.02.41-.87.46-1.13l.58-2.53-1.54-.48.99-.29c.14-.04.06-.56-.08-.54l-.66.11c-.21-.15-.93-.47-1.02-.19l-.49,1.58-.92-.82-1.32,2.19.62.61c-2.71.76-3.33,2.13-4,3.9-.42,1.1-.85,1.77-.15,2.7l1.19,1.59,2.65-3.42.77-1c.17-.22-.84-.46-1.14-.55ZM82.29,140.23l-.35.36.35.18.18-.18-.18-.36ZM193.91,142.99l2.02-2.04-.66-.6c-.39.91-1.74,1.59-2.76,2.04l-.66,2.28c.77-.44,1.39-1.02,2.05-1.69ZM125.98,141.01c-1-.25-2.03-.12-1.9.21l.39.99,1.51-1.2ZM142.57,141.25l.09-.63-.09.63ZM34,141.06l-.24.33c.11.45.86,1.15,1.36,1.13.58-.02,1.44-.23,2.39-.57l-3.51-.9ZM143.1,141.15l-.44.57c.38.27,1.33.73,1.8.79.4.06,1.13-.67,1.29-.9-1.17.05-1.94-.06-2.65-.46ZM215.85,141.12l-.18.18.18.18.18-.18-.18-.18ZM218.25,142.86c.47-.36.26-1.54-.36-1.67-.12.37.07,1.37.36,1.67ZM126.34,141.85q0-.43,0,0,0,.83,0,0ZM165.53,142.76c-.83-.08-.77-.07.15.01.38.04.24.02-.15-.01ZM157.84,145.92l.16-.88c.03-.16-.52-.24-.7-.27-.63.12-.91.17-1.19.32s-.19,1.6.1,1.49l1.42-.53.21-.14ZM124.07,148.89l.89.65c.05-.55.34-1.71.79-1.95l1.39-.75c.25-.13.12-1.11,0-1.02l-1.18.74c-.25.15-.6-.72-.65-.95l-1.57-.07-1.05,3.1-3.29,1.07.39.88c.08.17.3-.05.63-.36.3-.22,1.02-.62,1.23-.4l.85.9,1.57-1.85ZM157.98,146.02l-.36.42.67.43c.19.12.86-.27,1.06-.49l-1.38-.36ZM157.29,151.12l1.19-.49c-.47-.52-.95-.99-.78-1.29l.76-1.32c.36-.93-1.28-1.12-.73.25l-2.8,1.11-.54.13.18,2.57c.7-.3,1.25-.49,1.81-.59l.73-.13-.23-.45-.42-.26c-.13-.08-.21-.37-.22-.52s.67-.34.69-.2l.15.94.22.25ZM152.88,152.37c.12-1.51.21-2.23.57-2.81.17-.28-.13-1.46-.39-1.28l-1.11.76h-1.54s1.71,1.89,1.71,1.89c.28.54.85,1.62.75,1.43ZM284.76,148.58v.23s0,.24,0,.24v.23s.01-.23.01-.23v-.47ZM154.22,149.45l.18-.68-.18.68ZM15.87,149.65l-.18.18.18.18.18-.18-.18-.18ZM153.69,150l-.38.18.38.18.18-.18-.18-.18ZM193.02,150.45c-.19.03-.11,1,.07.91l.76-.36c.18-.09.17-.69-.02-.66l-.81.11ZM280.72,151.43c-.52-.45-.59-.48-.66-.6l-.26-.42-.82,1.39,1.73-.37ZM112.95,152.31c.06-.14-.29-1.1-.43-1.02l-.71.39c-.25.14-1.2.15-1.2.44v1.5c.97-.03,2.07-.66,2.34-1.3ZM277.67,151.4l-.08,1.44.08-1.44ZM136.49,151.98c-.02.24.85,1.11.82.87l-.06-.66c-.02-.18-.76-.4-.77-.22ZM278.42,152.3h-.23s.23.01.23.01h.47s-.23-.01-.23-.01h-.24ZM28.08,152.84c0-.17-.14-.31-.31-.31s-.31.14-.31.31.14.31.31.31.31-.14.31-.31ZM134.63,154.14c.5-.06,1.61-.44,1.52-.86-.27-.85-1.87-.55-2.3.02l-.58.77c-.09.11.37.19.51.17l.85-.1ZM54.36,154.52c-.27-.26-.79-.6-.76-.82l.13-.98c-1.44.57-2.1,1.88-2.04,3.28.59-.96,1.34-1.27,2.66-1.48ZM103.61,153.55l-.18.18.18.18.18-.18-.18-.18ZM179.77,157.11c1.79.61,3.18-1.12,3.11-2.9-.15-.17-1.09-.61-1.35-.42s-.69.68-.81.99l-.94,2.33ZM77.54,157.07l1.63-2.95c-2.04-.26-3.54,2.31-3.09,2.46l1.46.49ZM102.87,155.76c.54-.45.6-1.03.4-1.51l-.4,1.51ZM31.73,157.62l.95-1.84c-1.24.83-2.05,1.95-2.57,3.41,1.16.19,1.78-.68,1.62-1.57ZM107.08,159.69l2.5-1.52-1.83-.1c.35-.52.47-1.68.08-2.31l-3.1,1.44-.64,3.91c1.26.02,1.8-.69,2.36-1.86.04,0,.42.67.3.85l-.54.85-1.92,2.34c2.28.26,4.03-2.65,2.78-3.6ZM143.43,167.62l-.58,2.15,2.02-.1c.22-.01.75-.34.73-.56l-.07-.83,3.24-2.3.26-1.67-.18-1.15c-.04-.27.64-.25,1.31-.11-.02.12.08-.55.12-.8.09-.62-1.33-.45-.9-1.21l.38-.68c.09-.16.43.53.58.64l.95.71c.17.12.66-.42.6-.62l-.35-1.21c-.04-.15-.49.26-.57.33-.57-.08-1.15-.16-.31-.04l.02-1.1c0-.13.37-.25.46-.15l.65.74,1.11-1.79c-.67.29-1.49.75-1.9.59l-1.36-.5,1.37-.3c.22-.05.02-.83-.18-.92l-.65-.27-1.14-.48c-.26-.11-.57.73-.7,1.17l-1.24-.48.29,1.9c-.58.15-1.51.49-1.39.78l.49,1.25c.07.18.71.49.56.6l-.68.53c-.16.13-.69.26-.89.31-.13.03-.08-.61-.08-.88-.09-.7-.39-.74-.56-.01l-2.97,1.37,1.31.39c.19.06-.22.61-.41.66l-.5.12-.7.17c-.11.03,0,.18.07.27l.58.69c.14.14.95-.04,1.11-.31l.82-1.41.72.72.91-1.34c.26.23.47.48.67.42l1.06-.32-1.35,1.16c.38.34.81.8.65.94s-.61.36-.69.16l-.3-.71-.52,2.57-.86-.73c-.36.58-.91,1.26-1.01,1.64ZM74.59,160.81l2.55-3.71-2.17,1.47c-.3.2-.82.68-1.05.95s.32,1.35.67,1.3ZM84.32,160.66l-1.9-.98c.35-.5.72-1.02.86-1.38.11-.29-.86-.9-1.05-.64-1.63,1.93-.02,2.38-.33,4.78.15-.06.73-.53.72-.8l-.04-1.01.82.48c.14.08.48-.12.61-.2l.3-.26ZM100.92,167.89c.43-.76,1.21-2.19,1.84-2.74l2.14-1.66-1.35.23s-.14-.41-.31-.86c-.12-.33-.69-.9-1.04-.9-1.44,0-.37,2.51-2.43,2.51l.48-1.54-2.14,2.67c-.1-.97.37-2.14,1.41-2.83l.96-1.37-.11.86c-.02.12.33.35.4.25l.42-.69c.13-.22.4-.95.14-1.02l-1.4-.38c0,.34.01-.72.02-1.02s.52-.46,1.25-.77c0-.25-.67-.9-1.07-.88-.32.01-1.05.23-1.31.41l-1.75,1.23s.42.35.44.54l.04.53.81-.03s0,.39,0,.6l1.25-.34c.4.98-1.11,1.55-1.36,2.17l-1.05,2.6v.32s.04.41.04.41c-.35-.44-.49-.61-.4-.5l-.81-.3c-.21-.08-.2.88-.23,1.1l-.14,1.28c.17-.05.91-.38,1.03-.18l.59.96c.06.1.44.47.45.47-.41.1-1.65,2.51-3.16,2.54-3.13.05-4.65,2.87-4.75,5.52l-1.64,1.61,1.48-.19s1.22.74,1.66,1.4c.7,1.05,2.48.98,3.11-.1l.94-1.62c-.29-2.45,1.85-3.53,4.34-4.23l-.58-1.37c-.11-.25.76-.47,1.25-.57l-.09,1.46,1.64-1.75c-.33-.2-.91-.57-.96-.84l-.11-.69,1.3-.89-1.45-.06c-.18,0-.63-.53-.51-.65l.6-.6.11-.1ZM146.23,157.82v.23s0,.24,0,.24v.23s.01-.23.01-.23v-.47ZM273.96,159.3c-.1-.97-.89-1.25-1.61-1.02l1.61,1.02ZM271.97,158.53l-.18.18.18.18.18-.18-.18-.18ZM68.09,159.97q0-.43,0,0,0,.83,0,0ZM272.22,160.52l.34-.14-.34.14ZM80.32,163.42l-1.17-2.46c-.66,1.32-.91,2.39-.9,3.79l2.08-1.34ZM135.15,163.94l-1.43-.56c.43-.81.71-1.41.82-2.06-1.83.8-2.56,1.84-2.26,3.85l2.44-.66.43-.58ZM211.93,163.34l.27.7c.03.11.17.11.19,0l.15-.66,1.37-.26c-1-.61-1.4-.95-2.12-1.74l-1.34,3.39.53-.09.95-1.34ZM24.46,162.6l-.23.02.18.19.25-.06.26-.14h-.23s-.24-.01-.24-.01ZM140.86,162.73c-.18.06.35.63.47.48l.51-.64c.08-.1-.7.07-.97.16ZM208.98,167.08c.04.09.42.58.43.57,1.09-.57,1.69-1.95,1.19-2.23-.94-.53-2-.71-3.18-.96.33-.46,1.32-.71,1.95-.44l.17-1.59c-1.51.14-2.86.92-2.89,2.67-.58-.65-.67-.81-.95-.82-.52-.02-.9.51-.88.8l.14,1.4c.02.22.54.21.71.08l.55-.44c.13-.11.57-.29.73-.35.11-.04.12.08.1.22l-.09.89,1.2-1.62.81,1.84ZM270.1,162.66c-.14.05.23-.09.34-.14l-.34.14ZM83.01,162.79l-.18.18.18.26.18-.26-.18-.18ZM134.95,164.58l1.91-.32-1.54-.31-.38.63ZM151.05,165.14c-.17-.13-.88-.63-1.08-.41l-.76.81,1.84-.4ZM77.73,165.09h-.23s.23.01.23.01h.47s-.23-.01-.23-.01h-.24ZM104.32,164.92l-.18.18.18.18.18-.18-.18-.18ZM211.1,165.17l.23-.18-.23.18ZM173.58,165.98l-.18.18.18.18.18-.18-.18-.18ZM131.04,168.24c-.91-.31-1.04-.68-.67-.88l.9-.53c.78-.46-1.21-1.75-3.14,3.36,1.06-.94,1.9-1.63,2.91-1.95ZM204.02,167.69c.43.64.81,1.25,1.02,1.01l.84-.95-1.65-1.05c-.89.42-1.43,1.82-.84,2.61l.63-1.62ZM208.01,167.32l-.49-.06-.77,1.71c-.17.09,1.21.43,1.22.12l.04-1.77ZM100.7,168.41c-.04.16.25.63.4.56s.48-.25.58-.38l.54-.66c.1-.13-.61-.43-.72-.3l-.39.48-.41.3ZM96.42,168.95l-1.75-.42c-.1.46,0,1.27.3,1.41.25.11.7.09.96.01s.66-.92.48-1.01ZM206.47,169.38c-.38-.32-1.4-.18-1.68.32l.82.4c.14.07.59-.39.86-.71ZM217.27,169.89l-.18.18.18.18.18-.18-.18-.18ZM108.44,170.65c0-.19-.16-.35-.35-.35s-.35.16-.35.35.16.35.35.35.35-.16.35-.35ZM86.91,170.6l-.45.18.45.18.18-.18-.18-.18ZM205.95,170.85c-.38-.34-1.79-.44-2.12-.1l-.88,2.36c1.48-.28,2.62-.79,3-2.26ZM105.64,173.85l.52-.87c.1-.17.79.51.58.43-1.27.65.06.93.27.56l.46-2.91c-2.36-.47-4.45,3.15-4.59,2.56l.22.9c.05.22.61.19.81.2l-1.2,1.41,1.8.63,1.15-2.91ZM72.09,171.64l-.46-.24c-.16.1-.25.3-.19.52.17.26.29.23.64-.28ZM139.55,175.86c-.12-2.13,1.42-1.44,2.04-3.37.09-.28-.92-.39-1.09-.31l-1.5,1.52.6.3c.1.05-.47.28-.52.39l-.6,1.43c-.15.37,1.09.45,1.06.03ZM136.54,175.39c.15-.38.21-1.06.45-1.22l1.15-.73-2.06.21c-.4.04-.93-.74-1.28-1.25l-.67,2.02c-.15.45-.19,1.63-.16,1.79l2.15-1-.27.91c-.03.1.35.11.39,0l.29-.74ZM272.75,176.32l.66-3.2c-2.16-.77-3.82.51-4.16,2.4l-2.77.27,1.48,1.33c1.9-1.28,3.88-2.16,4.78-.8ZM73.12,173.26h-.23s.23.01.23.01h.47s-.23-.01-.23-.01h-.24ZM133.44,173.09v.23s0,.24,0,.24v.23s.01-.23.01-.23v-.47ZM233.84,177.57c.56-.08,1.32-.55,1.59-1.23.42-1.07-2.23-2.24-2.48-2.12l-.95.43,1.55.71-1.28.83c-.26.17-.13,1.22.16,1.32l1.05.37.35-.3ZM106.3,174.68c.07.16.42.72.45.61l.1-.41c.03-.11-.6-.29-.55-.19ZM47.46,175.67c.1-.01-.1-.59-.19-.51l-.64.58c-.06.05.31-.01.84-.07ZM231.12,175.22l-.18.18.18.18.18-.18-.18-.18ZM250.41,176.14l-.32-.82c-.34-.88-1.26.79-1.71.43l-.54-.43-.83,1.28c1.59.8,3.47-.3,3.41-.45ZM236.77,176.67c.49-.59.54-.91.46-1.13l-.46,1.13ZM231.48,175.93l-.18.18.18.18.18-.18-.18-.18ZM242.68,177.94l-2.66-1.12,1.23-.39c.13-.04-.26-.36-.29-.31l-2.7.04.75,1.31c.12.22-.45.67-.67.93l2.53-.54c.53.36,1.06.38,1.8.08ZM103.62,181.22c.78-.64-1.3-2.01-.94-2.57l.53-.84c.13-.21.62-.87.39-.96l-1.04-.4c-.16-.06-.37.55-.39.71.27,3.02-1.8,2.73-1.85,4.16l.97-.54c.21-.12,1.16,1.39,2.32.44ZM183.21,176.69l-.31.13-.13,1.65c-.06.81-1.62,1.03-2.46.66l-.97,1.23c-.2.25.68.95.97.79l1.14-.64-.62-.5c1.08-.32,1.88-.66,2.5-1.14l.48.91,1.48-1.57-.47-1.29c-.14-.39-1.2-.34-1.6-.22ZM234.15,177.81l-.44.16.44-.16ZM247.58,181.27l1.26-1.36.76.69c.13.12.44-.26.42-.44-.02-.12-.09-.48-.03-.59l.49-1.01c.1-.22-.43-.77-.64-.67l-1.02.46-1.75-.35-.09,1.46.94-1.07-.32,2.88ZM268.06,177.71l-.18.18.18.18.18-.18-.18-.18ZM128.42,182.78c-.1.11-.27.3-.41.29l-.59-.05-.84,2.58c1.72-.43,2.47-1.53,3.12-3.06l.85-2,.51,1.07.44-1.51c.06-.2.6-.32,1.11-.5-.1-.21-.68-.79-1.02-.78h-1.97c-.35,1.19-1.88,2.4-3.23,2.29l-.98-.08c-.15-.01.09.53.22.59l.62.25,1.16.47c.5.2.36-.74,1.55-1.34.14-.07.34.66.26.78l-.26.38-.56.62ZM236.2,180.51c.5-.05,1.42-.51,1.25-.83l-.59-1.09-.48,1.2c-.38-.43-1.36-1.22-1.7-.94s-1.11.92-1.04.87c.19.7.2,1.23.44,1.29l.89.22c.22.05.77.37.95.25l.52-.36c-1.04-.14-.93-.46-.24-.6ZM18.75,178.84l-2.68.85.75,1.36c.16.28,1.18.2,1.28-.12l.64-2.1ZM90.46,180.2v.23s0,.24,0,.24v.23s.01-.23.01-.23v-.47ZM86.52,183.05l-.1-2.65c-.4.08-1.2.63-1.1.96l.38,1.25c.06.2-.27.84-.38,1.01s.69.08.88.03c.13-.03.32-.45.32-.6ZM267.56,180.96c.05.4.09.66.25.56l.58-.35c.1-.06.15-.2.03-.2h-.86ZM191.24,186.06c.21-.68.44-1.45.18-1.59l-1.17-.6,1.28-1.53-1.33.68c-.16.08-.4-.46-.38-.58.37-.44.55-.67.66-1.34l-4.14,1.95c0,1.34-.53,2.05-1.3,3.27l4.24-2.36,1.97,2.1ZM242.36,183.3c1.29-.92.43-1.6-.03-2.04l.03,2.04ZM248.94,181.78h-.23s.23.01.23.01h.47s-.23-.01-.23-.01h-.24ZM128.32,182.56l.14-.55-.14.55ZM174.65,181.97l-.18.18.18.18.18-.18-.18-.18ZM242.55,183.95l-.92-2-.35,1.63c-.09.41,1.27.68,1.27.37ZM196.8,183.39c0-.17-.14-.31-.31-.31s-.31.14-.31.31.14.31.31.31.31-.14.31-.31ZM126.26,183.66l.17-.2-.17.2ZM84.4,185.52l1-.53c.14-.07-.4-.7-.33-.55l-1.53.29c-.33.06-.74-.69-1.15-1.29-1.09,1.31-1.68,2.24-2.49,4.17l4.5-2.08ZM121.08,184.72l.9,1.17c.31-.55.58-1.12.96-1.24l1.62-.52c-1.31-1.26-2.43.76-2.75.58l-.45-.24-.28.24ZM126.6,184.02l.17-.2-.17.2ZM192.08,185.31l1.24-1.54c-.86-.05-1.4.8-1.24,1.54ZM120.96,184.37l.13-.21-.13.21ZM174.52,186.92c.41.64,2.29.42,2.61-.15l.35-1.52c.06-.13-1.13-.44-1.29-.06l-.55,1.31-.98.15-.15.27ZM122.36,189.58l.36,1.24c.13-1.6,2.16-2.78,2.48-2.71l1.11.22.11-2.09-2.68-.93.09,1.9c.02.32-.94.62-1.38.73-.78.2-.55.5.3.54l-1.19.5c.25,1.55-.18,2.52-.96,3.69l2.17-.98c-.45-.57-.78-.83-.71-1.07l.3-1.05ZM138.36,188.89l-1.13,1.37c.37.47.82,1.17.56,1.36l-1.2.89,3.44,1.31c.25.1,1.24-.36,1.19-.62l-.22-1.1c.49-.63.65-1.42.67-2.26l.9-1.35c.19-.28-.55-1.09-.55-1.43v-1.84c-.98,1.03-1.25,2.5-1.13,3.93l-1.23,1.33-.59.99c-.11.19-.84-.25-.69-.46.33-.44,1.38-1.3,1.28-1.81l-.24-1.25c-.05-.27.55-.57,1.14-.91l-.85-1-2.47,2.55,1.2-.12c.12-.01,0,.33-.08.42ZM82.29,187.3l-.18.18.18.18.18-.18-.18-.18ZM174.6,199.01l-.05.39c-.08.28-.18.83-.45.84l-1.17.04.41-1.08c.06-.16-.37-.39-.42-.41l-1.41,2,1-.11c.21-.02.7.38.55.53l-.7.71c-.24.25-.58.78-.78,1.16l-1.11,1.12c-.32.33-.17,1.54.1,1.91.18.24,1.44.02,1.5-.27l.35-1.73,1.42,1.36c.51-.68.88-1.27,1.45-2.4l1.06.34-.44-2.26c.59.56,1.61,1.38,2.33,1.25.58-.1.99-1.75.98-2.06.48.02,1.56-.09,2.05-.3l1.08-.47c.26-.11-.58-.95-.65-1.03l.47-2.28c1.26-.19,2.9-1.24,2.68-2.84.38.12.99.36,1.08.19l.61-1.1c.51-.92,1.84-1.74,2.84-2.29l-2.1.12,1.8-1.31-.14-1.32c-.03-.27-.89-.25-.93-.16,0,1.04-.32.98-.58.19l-1.18,2.59c-.16-.82-.19-1.11-.19-1.65v-1.04c0-.26-.71-.35-.9-.16-.89.88-.46,5.65-.44,5.65l-1.34.27.65-.78c-1.23-.08-2.6-.04-3.82.15l.35-.88-1.99,1.05c-.11.09-.19.15-.22.23l-.37,1.04.33.28-.2.17-.27-.25c-1.73,1.04-2.87,2.65-3.23,4.61ZM174.88,187.76c0,.19.12.64.23.5l.41-.51c.07-.09-.64-.11-.64,0ZM90.55,189.4l.61-.82c.12-.17-.36-.5-.56-.46l-.63.14-2.09,1.83,2.68-.69ZM168.76,189.79c.83-.34.94-1.2.51-1.81l-.51,1.81ZM231.15,190.69l-.27-2.09c-.25.07-1.54.4-1.45.38l-.22,2.51,1.94-.8ZM255.78,189.6c-.54-.26-1.16-.21-1.54.37l1.54-.37ZM223.14,192.26l-.24-1.28c-.03-.14-.4-.29-.48-.33l1.58-.48c-1.52-1.35-3.49.73-3.55,2,.03.36,1.06,1.07,1.39.9l1.13-.57.86-.43c.13-.07-.05-.7-.11-.85l-.58,1.04ZM183.85,192.27l-.32-1.65-1.61-.29-.68,1.68c1.09-.42,1.84-.44,2.61.26ZM176.51,193.34l.16.5c.04.13.49.35.51.22l.08-1.17.74.06c.06,0,.4-.16.4-.21l-.03-1.69c-.87-.41-2.35-.16-3.12.91l1.5.06-1.79,1.28,1.55.04ZM252.4,192.63c-.5-.65-.71.11-.45.47l.45-.47ZM218.84,195.99l1.9-1.64-.87-.33c-.2-.08-.07-.74-.16-1.19-.19-.87-2.73.86-2.52,1.27l.44.85c.18.35.85,1.34,1.2,1.04ZM249.55,193.04c-.04-.39-.05-.53-.01-.15.09.92.09.98.01.15ZM250.17,194.29c.95-.15,1.68-.38,1.55-.69l-.49-1.17-1.06,1.85ZM120.52,193.33c0-.22-.18-.4-.4-.4s-.4.18-.4.4.18.4.4.4.4-.18.4-.4ZM162.65,193.09l-.55.19.55-.19ZM84.03,200.44l1.52-1.8-.14-1.53,1.63-.07c.3-.01.46-.92.43-1.13l-1.12.59.44-1.78c.05-.21.48-.06.95.27l1.19-1.64-2.92.27c-1.39.13-2.17.73-2.37,2.12l-.14,1c-.03.22.6.23.8.16l.88-.32-1.41,1.96-1.13,1.57-.06-2.48-1.16,2.23-1.65,1.36,4.26-.78ZM200.28,193.51h-.23s.23.01.23.01h.47s-.23-.01-.23-.01h-.24ZM214.13,193.51h-.23s.23.01.23.01h.47s-.23-.01-.23-.01h-.24ZM212.05,196.75l1.88-2.57-1.2-.47c-.25-.1-.7.58-.85.82l-1.67,2.6c-.07,0,.51.41.78.56s.85-.67,1.05-.95ZM120.88,194.62c.34-.31.38-.57-.11-.24-.75.23-.6.36.11.24ZM130.35,204.88l.28.58.35.72c.06.13.81-.11,1.04-.2.03-1.19.48-3.48,1.49-4.04,2.48-1.38,1.18-1.69,2.58-3.76l-1.29-.47,2.15-1.25c.46-.27.48-1.9,0-2.24l-3.36,2c-.24.62-.85,1.6-1.45,1.86l-.79.34c-.12.05-.34-.24-.47-.35l-2,2.21,1.03,1.06c.21.21-.99.67-1.16.67l-1.2,1.3c-.41.44-.73.97-1.21,1.77l-.38-.69c-.4,1.13-.96,2.21-1.81,2.83-.77.57-2.37.22-3.49.22-.63,0-.82,1.91-.42,2.18l.76-.94c.38-.47,1.99,1.08,2.65.81,1.71-.68,1.62-1.89,3.72-.86l2.72-3.37-.3-.36c-.07.03.26-.1.38-.14.09.05.16.08.17.11ZM249.76,195.96l.66-1.04-1.26-.8-.95,1.06,1.38.99.18-.2ZM120.13,196.44c-.46-.81-.54-.88-.53-1.05l.04-.85-1.85,2.19,2.34-.29ZM249.67,196.39l.41,1.53c1.19-.87,1.31-2.8,1.3-2.8-.13-.09-.63-.43-.4-.27l-.59,2.24-.47-.94-.25.24ZM222.24,195.47l-.18.18.18.18.18-.18-.18-.18ZM164.2,196.32c.06-.02-.32-.69-.47-.55l-.45.43c-.1.1-.12.23,0,.25.15.02.76.09.7.09l.21-.22ZM197.33,196.12c-.18.05.35.63.47.47l.51-.64c.08-.1-.62.06-.98.16ZM219.38,203.1l.48.7,1.05-2.09c.19.05,1.26.3,1.21.01l-.21-1.27c.88-.19,2.12-1.06,1.54-2.12l-1.96-1.62c-.04-.15.67-.69.43-.76l-1.15-.3c-.33-.09.24,1.99-.29,2.2l-1.03.41c-.31.12-.2,1.21.11,1.35l1.21.56-1.47,1.43c-.2.2-.64.71-.88.64l-.92-.24c.12.65.16.87-.02.96-.14.07-.49.26-.49.25l-.3-.68c-.46.29-.07,1.38.42,1.65.8.45,2.05-1.43,2.29-1.08ZM240.36,195.82l-.18.18.18.18.18-.18-.18-.18ZM254.56,196.6s.65-.49.47-.61-.95-.56-.94-.34l.02,1.06c0,.14.12.11.38.12l.07-.22ZM164.25,196.81l.17-.2-.17.2ZM163.79,198.14v1.35c-.01.24.99.29,1.15.22,0-.44,0-1.45.35-1.4l1.43.21-.55-2.23-.76,1.65c-.02-.06-.51-.73-.69-.59l-.74.6-.2.2ZM239.29,196.53l-.18.18.18.18.18-.18-.18-.18ZM82.95,196.98c-.41.02-.58.08-.02.17l.02-.17ZM101,197.12c.02-.09-1.07-.49-1.29-.3l-.92.78c-.93.79-1.87,1.83-2.06,2.92l4.27-3.41ZM162.98,197.5c.13.29-.14-.86-.25-.67l-.46.79c-.08.13-.67.27.71-.12ZM172.69,198.29c.07-.4-.28-1.38-.6-1.3l-1.4.35c-.3.08-.87.66-1.03.99l3.03-.04ZM197.3,197.16l.17-.2-.17.2ZM238.95,200.74c-.03-.26-.04-.56-.14-.62l-.4-.27,2.3-.7-1.32-.33,1.8-.26c.08-.81.11-1.18.34-1.21l.9-.11c-2.18-1.73-4.84,1.79-5.53,4.64l2.09.03c.26-.45,1.38-1.27,1.73-1.09-.11.66-.12,1.43.16,1.43s.7-.04,1-.1l.79-.16c.18-.04-.28-.74-.38-.8-.44.12-1.03.34-1.05.08l-.11-1.36-2.18.82ZM83.26,197.49l.22-.18-.22.18ZM163.65,197.79c0,.37,0,.34,0-.45v.45ZM197.74,197.23l-.17.42.5.34c.13.09.35-.55.2-.59l-.54-.17ZM118.07,200.09c.15.14.43-.62.26-.75l-.81-.59,2.13-.39-5.34-.59,1.05,1.12c.16.18-.02.77-.05,1.19-.06.83,1.75-.9,2-.67l.75.68ZM169.18,197.95c0-.22-.18-.4-.4-.4s-.4.18-.4.4.18.4.4.4.4-.18.4-.4ZM204.33,197.84l.3-.13-.3.13ZM167.6,199.13c.1-.09.06-.98-.07-.89l-.57.42-.72.53c-.17.13.43.77.59.62l.76-.69ZM114.45,199.25l-.52-.58-.9.53c-.13.08.02.62.17.56l1.25-.5ZM162.55,199.15c.07.13.39.7.42.57l.12-.55c.03-.13-.6-.13-.54-.02ZM112.65,200.81l-.34-1.45-1.86,1,2.21.46ZM164.79,201.29l.96-1.52-.95.48c-.2.1-.15.9,0,1.04ZM249.95,199.73l-.18.18.18.33.18-.33-.18-.18ZM204.68,208.13c1.15-.61,1.79-1.11,2.88-2l-.55,1.19,1.86-.55-.23,1.62c.63.19,1.69-.02,2.18-.49.36-.34.33-1.16.43-1.95-.54.2-1.17-.13-1.83-.8l4.09-2.48-1.47-1.63,1.24-.59c-.45-.11-1.53-.02-1.65.28l-.47,1.13-.75,1.95-1.83-.69c.29-1.01.41-1.58.41-1.92l-1.46,1-1.26.87-1.09-.61c-.19-.1-.54.53-.56.74l-.14,1.05c-.04.29-2.17-1.39-3.6.31l2.28,1.39,2.62-.33-.35,1.38c-.33.15-.45.13-.75,1.12ZM234.86,202.58c-.08-.16-.54-.87-.57-.69l-.15.87c-.02.12.47.17.53.16l.2-.35ZM164.12,205.85l2.29-1.53c.41-.27.66-1.44.35-1.91-.64,1.35-1.44,2.26-2.74,2.39l.1,1.05ZM209.87,202.74h-.23s.23.01.23.01h.47s-.23-.01-.23-.01h-.24ZM234.95,203.23l.12-.21-.12.21ZM183.99,207.38c.36-.51.67-1,.94-.92l1.31.38c.24-.4-.22-1.09-.57-1.22-.48-.18-1.29-.16-1.58.05l-1.93,1.38,1.83.33ZM194.11,208.18l.12-2.17c-.87-.07-1.72,1.76-.12,2.17ZM161.9,211.37l1.79-.07-1.42-1.07c-.23-.17.23-1.14.39-1.3l1.49.75c-.06-1.44.1-2.48.93-3.15-.57.04-1.28.09-1.29.34l-.04.93c-.5.68-1.87,1.23-2.65,1.02-.03.95-.43,1.51-1.33,1.65-.67.44-.07,1,.63.52.77-.27.86,1.04.07.91-.5.16-.69.24-.65.37l.21.63c.04.13.54-.13.64-.23l1.02-1-.35-.14.27-.42.28.28ZM203.77,206.46l-.18.2.18.18.18-.18-.18-.2ZM158.77,209c-.39-.03-1.47-.22-1.5-.6l-.1-1.28c-.05-.15-.58-.68-.63-.5l-.21.84-.63,2.53,1.28.32c.79.2,1.91-.4,1.78-1.31ZM211.94,206.83l-.18.18.18.18.18-.18-.18-.18ZM185.06,214.02l2.1-1.16c-.21-.56-.44-1.41-.14-1.69l1.37-1.3-1.42-.84-.62-2.2-1.1,1.91c-.85.45-1.73,1.63-1.41,2.46l1.15-.62c.19-.1.5.46.47.67l-.11.68c.13.32.4.77.28,1.01l-.57,1.1ZM192.27,209.68l.48-2.11-1.36.47c-.4.14-.23,1.54-.15,1.88.22-.12.38-.22.54-.23.17,0,.86-.04.49-.02ZM158.31,207.9l-.18.18.18.18.18-.18-.18-.18ZM119.59,210.03l-.18.18.18.18.18-.18-.18-.18ZM117.8,217.86l.19.88c.03.15.39.14.8.13l-.7-2.68,2.41-1.52.59-1.07c2.91,1.33,5.46.08,6.71-2.37-.81-.63-1.39-1.13-1.84-1.32s-1.41.69-1.61,1.13l-.79,1.77c-.41-.42-.71-1.1-1.18-2.13-.54.06-1.86,1.08-2.41,1.62l-1.7.32c-.34.06-.59.89-.58,1.3-.46,1.03-.5,1.63.05,3.1l-2.15-.06c-.25.42.15,2.08.79,2.08.52,0,1.03-.12,1.11-.34l.3-.83ZM143.26,210.54l.22-.43-.22.43ZM139.82,210.96c.09.07.26.18.34.1l.63-.58c-.06,0-.38,0-.5.03l-.47.17v.28ZM172.99,210.96c-.83-.08-.77-.07.15.01.38.04.24.02-.15-.01ZM185.12,212.26l-1.43-.26c-.21-.04-.33-.5-.54-1.13l-2.65.99,1.86.18,1.41.71c.29.15.97-.23,1.35-.49ZM114.24,213.41l-2.5-.05c.24.34.99.66,1.44.65.3-.01.92-.4,1.06-.6ZM193.08,218.03c-.05.09.56-.18.55-.35l-.05-.64c-.04-.53-.29-1.54-.46-1.95l1.71-.64h-2.19c-.32-.01-.52-1.04-.68-1.43l-4.84,2.15,3.53.84-.62.81-1.29.31,1.68.91c.29-.86.72-1.43,1.22-1.48.9-.08,1.24.28,1.45,1.47ZM218.83,214.83c-.11-.14-.24-.39-.19-.56l.21-.69-1.93.87,1.66.73.25-.35ZM135.48,214.81c-.2-.12-.74,0-.82.21-.06.16-.22.55-.21.55.01,0,.63-.02.79.01l.68.1c.15.02.32-.43.19-.51l-.63-.37ZM133.44,215.01v.23s0,.24,0,.24v.23s.01-.23.01-.23v-.47ZM159.63,215.72c0-.23-.18-.41-.41-.41s-.41.18-.41.41.18.41.41.41.41-.18.41-.41ZM159.43,218.31c-.03.09,0,.57.03.67l.84,2.03-2-.2c-1.67,2.16.82,3.64.78,4.03l-.1,1.02,2.53-2.76c-.62-.44-1.13-.08-1.87.42-.61.27-1.06-1.77-.62-2.11,1.57.05,2.22-.11,3.39-.99l-1.58-.83c.64-.35,1.19-.53,1.28-.88.16-.58-.1-1.33-.48-2.05l-.38.54c-.08.11-.45.48-.46.35l-.11-1.1-.19-.79c-.04-.16-.69.04-.65.2l.18.7-.58,1.78ZM188.54,216.38c.15.16-.21-.43-.3-.35l-.6.59c-.05.05.07,0,.9-.24ZM188.44,217.47l-1.89.29.82-.52c.14-.09-.28-.54-.43-.48l-.79.26c-.1.03-.26-.2-.63-.63l-.35,1.49c-.25,1.09,2.11.44,3.08,1.22l.19-1.64ZM215.99,218.34l.83-.82-1.23.08c-.24.02-.29,1.03.03.94l.37-.21ZM185.76,219.56l-1.15-1.13-.68,2.3.71.72c.11.11.54-.18.49-.34-.09-.32-.38-.94-.18-1.06l.81-.49ZM83.72,219.26l-.3.18.3.18.18-.18-.18-.18ZM115.25,219.54l.17-.2-.17.2ZM115.59,219.9l.17-.2-.17.2ZM156.69,220.22l.67.38c.16.09,1-.72.83-.73l-1.27-.09-.22.44ZM163.28,219.97l-.18.18.18.18.18-.18-.18-.18ZM162.57,220.33l-.31.18.31.18.18-.18-.18-.18ZM179.97,220.68l-.18.18.18.18.18-.18-.18-.18ZM155.25,222.03c-.26.28.69.86.96.61s.58-.69.82-1.07c.14-.23-.86-.83-.74-.65l-1.04,1.12ZM152.98,224.24l-.18.18.18.18.18-.18-.18-.18ZM106.77,230.47l1.13-.9,1.74.81.96-3.47-3.08.03c.61.38,1.27.63,2.51.96l-2.18,1.5.21-1.25-2.08,1.29c.23.2.45.35.52.47l.28.55ZM166.61,227.52l-1.1.56.99-.22c.06-.01.08-.06.11-.34ZM166.9,227.9l-.19.09.04,1.19,1.78-1.37-1.63.09ZM205.15,229.23c.47-.56.55-.9.46-1.06l-.46,1.06ZM206.26,229.56l-.18.18.18.18.18-.18-.18-.18ZM204.48,229.92l-.18.18.18.18.18-.18-.18-.18ZM206.19,230.79c.1-.2.24-.52.05-.55-.23-.04-.61-.09-.66.04l-.21.54c-.05.13.53.2.53.18l.29-.2ZM107.51,230.99v.23s0,.24,0,.24v.23s.01-.23.01-.23v-.47ZM163.28,233.47l-.18.18.18.18.18-.18-.18-.18ZM147.16,237.15l.22-1c.03-.14-.59.02-.66.17l-.43.92c-.07.14.54.18.59.17l.28-.25ZM123.73,237.27c-.01.35.37,1.07.65,1.06s1.03-.03.96-.3l-.27-.95c-.07-.26-1.32-.15-1.33.18ZM122.79,237.73l-.24.18.24.18.18-.18-.18-.18ZM153.69,238.8l-.18.18.18.18.18-.18-.18-.18ZM99.1,242.21c-.83-.08-.77-.07.15.01.38.04.24.02-.15-.01Z"/>
  </g>
</svg>