<?xml version="1.0" encoding="UTF-8"?>
<svg id="Layer_2" data-name="Layer 2" xmlns="http://www.w3.org/2000/svg" viewBox="0 0 205.37 247.48">
  <g id="Layer_1-2" data-name="Layer 1">
    <g>
      <path d="M61.53,234.5c-2.58.72-4.9,1.25-7.16-.19,1.33-1.71,2.92-2.71,4.77-3.22,10.78-2.98,20.65-7.48,30.28-13.17,5.85-3.45,14.71-1.66,21.44-4.17,12.7-4.72,20.26-23.38,21.26-37.31.6-8.33.34-16.36-.99-24.54-1.14-7.02-3.54-13.38-7.28-19.37-7.87-12.63-21.56-18.54-36.2-19.8-12.02-.85-23.75,1.09-34.91,5.61l-.67,1.3c-.18.36.96.77,1.41.85,8.68-3.58,17.59-5.59,26.98-5.83,19.32-.14,36.26,6.09,44.58,24.28,2.47,5.41,4.04,10.63,4.23,16.68.21,6.37.37,12.61.1,19.01-.62,14.79-6.73,30.49-20.82,36.34-3.71,1.54-7.19,1.53-11.18,1.74-2.94.15-6.29,1.72-9,3.2-12,6.52-24.33,11.62-37.66,14.48-1.98.43-3.83.27-5.82-.7,1.66-2.36,3.72-2.79,6.16-3.36,19.74-4.66,38.05-13.86,53.34-27.27,9.72-8.53,17.28-18.55,19.91-31.19,2.13-10.24.46-20.41-4.62-29.47-5.11-9.13-13.23-15.12-23.52-17.55-10.08-2.39-20.42-2.25-30.5.46-5.17,1.39-9.93,3.25-14.99,5.06-11.33,4.05-36.78,11.39-37.49-3.56-.64-13.45,12.22-24.02,24.46-28.76,20.02-7.76,47.48-6.82,67.97-.55,22.88,7,41.96,22.73,52.87,43.93,6.54,12.71,9.9,26.5,10.71,40.67.24,4.3.22,11.32-1.9,12.6-.49.29-1.86-.84-1.89-1.41l-.35-6.02c.54-15.91-3.29-31.1-10.93-45.02-11.11-20.26-29.36-35.08-51.77-41.28-18.07-5.01-37.01-5.5-55.24-1.24-11.26,2.63-23.75,9.41-28.22,20.13-.96,2.32-1.81,5.71-.68,7.91,1.68,3.26,5.64,4.33,8.95,4.75,4.79.02,9.13-1.36,13.01-4.2,2.07-4.11,5.42-6.74,9.53-8.99,26.65-12.23,64.91-9.99,79.82,17.65,4.25,7.88,6.44,16.29,7.06,25.22.34,4.93.34,9.55-.33,14.46l-2.92,21.42c-1.38,10.11-1.03,19.91,2.2,29.63.34,1.04.05,2.77-.71,3.44-2.54-1.2-3.23-4.37-5.25-4.37-2.88,0-6.07,6.23-15.91,8.35l-8.9,1.92-5.88-.24c-6.8-.27-11.36,7.16-19.98,10.31-1.54.56-3.58.33-4.58-1.07.98-1.43,2.62-2.23,4.21-3.05,9.28-4.73,11.77-11.67,23.75-10.57,8.63.79,17.4-2.86,23.31-9.17,3.14-3.35,4-10.82,1.09-12.05-1.78-.75-5.55,8.04-15.32,11.1-7.93,2.48-14.92.23-21.75,4.3-8.81,5.25-18.07,9.07-28.11,11.88ZM104.27,207.95c6.62-1.9,11.39-6.34,14.85-12.02,1.68-3.23,2.93-6.41,4.11-9.92-.39-.27-1.11-.72-1.34-.54s-.61.64-.79.95l-5.08,8.54c-1.74,2.93-4.2,5.38-7.07,7.19l-5.88,3.7c-.4.25-.72,1.34-.57,1.72s1.18.56,1.77.39Z"/>
      <path d="M79.76,71.97c.74,1.22,2.39,1.6,3.75,1.57l13.27-.29c12.95.58,25.66,3.84,37.32,9.78,6.49,3.3,12.26,7.11,18.19,11.13,16.02,10.88,25.53,27.13,31.07,45.35,1.55,5.08,3.95,14.22-.35,15.37l-1.66-7.85c-1.35-9.2-4.69-17.51-9.76-25.33-5.33-8.21-11.4-15.4-19.23-21.38-14.72-11.23-28.58-19.54-47.03-22.88l-8.83-1.6c-.26-.05-1.45.34-1.31.53l.94,1.17c7.73,1.99,15.02,4.17,22.51,6.9,17.07,7.68,33.6,18.25,44.85,33.25,9.99,13.32,15.61,29.09,17.5,45.44.16,1.37-.66,2.94-1.64,3.84-1.41-1.63-2.08-3.44-2.42-5.48-3.44-20.7-11.83-38.35-27.4-52.76-22.93-21.21-53.13-30.6-84.08-30.28-16.84.17-33.28,4.3-45.71,15.98-.6.57-2.41,1.28-3.08.94-.82-.88-.23-2.88.61-3.79,7.16-7.81,16.96-12.29,27.19-14.6,5.52-1.25,9.86-3.42,13.82-7.77,6.38-7.01,14.78-12.75,24.63-13.54,11.84-.96,23.78.96,35,4.84l29.44,10.19c7.7,2.67,14.95,5.82,21.5,10.75,12.55,9.44,22.74,21.34,30.58,34.81,2.25,3.87,2.48,8.11-.41,8.57-3.02.49-2.56-4.62-5.61-8.85-4.87-6.74-9.79-13.04-15.19-19.36-7.97-9.33-17.38-16.26-28.97-20.48l-19.42-7.08c-9.12-3.32-18.06-5.86-27.54-7.71-10-1.96-20.68-2.75-29.57,2.43-4.6,2.68-9.15,5.63-13.04,9.84,4.09.26,7.8-1.86,10.89-4.13,5.59-4.1,11.73-6.45,18.86-5.92,9.59.71,18.87,2.35,28.24,4.99,10.56,2.98,20.6,6.16,30.96,9.79,29.24,10.23,33.89,32.02,50.04,52.6.45.57.69,1.93.46,2.51-.26.67-1.75,1.55-2.56,1.37-1.64-.36-3.33-1.63-4.11-3.2-5.58-11.21-11.81-21.75-19.11-31.97-3.32-4.64-7.61-5.64-7.28-4.83l.42,1.03,10.1,11.88c4.78,7.18,8.77,14.53,12.23,22.48l5.43,12.45c.74,1.71.79,4.85-1.52,5.14-1.2.15-3.06-2.17-3.54-3.38l-6.44-16.27c-2.86-7.23-6.22-13.94-11.06-20.11-8.85-11.3-19.68-20.4-32.14-27.65-9.29-3.55-18.21-6.49-27.71-9.04-8.98-1.91-17.79-2.87-26.83-1.66-1.85.25-3.44.63-5.22,2.28Z"/>
      <path d="M68.47,140.96l-20,6.82c-5.82,1.5-11.34,2.71-17.32,3.21l-.8.7c-1.09.96,8.31,1.8,16.25-.31,5.47-1.45,10.35-3.41,15.46-5.78,7.58-3.52,15.74-5.25,24.03-4.43,6.93.69,12.39,4.7,15.1,11.05,4.47,10.46-.4,20.27-8.65,27.93-14.99,13.93-34.11,22.33-54.5,24.02-7.46.62-14.59-.16-21.65-2.38-2.83-.89-5.52-2.26-6.51-5.48,1.45-.17,3.19-.05,4.49.45,7.13,2.78,14.24,3.89,21.95,3.3,20.04-1.54,38.88-9.89,53.6-23.61,6.57-6.12,10.64-14.25,7.13-22.45-2.16-5.04-6.44-8.01-11.84-8.48-14.57-1.27-23.8,6.33-36.91,9.7-5.47,1.41-10.85,2.12-16.45.98-10.56-2.16-20.24-7.36-27.95-14.76-2.32-2.22-3.4-5.5-1.64-8.3,1.38-2.19,5.76,2.96,8.44,4.42,10.49,5.73,27.31,2.43,38.52-1.52l13.74-4.84c9.63-3.39,19.81-4.47,29.86-2.34,6.18,1.31,11.94,3.93,16.07,8.8,6.49,7.66,9.05,18.05,7.08,27.89-2.84,14.17-14.43,24.7-14.8,21.22-.53-5.05,8.81-10.53,10.62-23.6,1.2-8.62-1.58-17.96-7.97-24.08-4.28-4.1-10.16-5.78-15.86-6.48-9.9-1.22-19.35.78-28.46,4.51-7.23,2.96-14.42,4.95-22.03,6.44-5.64.92-11.01,1.3-16.67,1.05l-.8.25c-.15.05-.39.4-.27.5l.94.78c4.46.68,8.79.72,13.34.26,7.69-1.15,14.95-3.07,22.21-5.86,12.84-4.94,23.28-8.21,37.23-4.85,6.52,1.57,10.85,5.61,13.61,11.42,6.74,14.19,1.07,26.9-9.9,37.45-6.77,6.52-14.22,11.52-22.6,15.83-15.6,8.02-32.7,12.26-50.21,11.63-1.77-.06-3.66-1.07-4.21-2.56,1.48-1.54,3.79-1.48,5.91-1.38,6.86.31,13.37-.57,20.12-2.05,15.26-3.33,29.54-9.58,41.79-19.29s22.49-23.19,14.98-37.9c-2.27-4.45-5.62-7.34-10.75-8.7-7.66-2.02-15.87-1.87-23.73.81Z"/>
      <path d="M54.66,100.72c-10.27,1.81-21.44,5.71-27.64,14.07-1.16,1.57-1.58,3.53-.95,5.41.17.51,1.17,1.23,1.7,1.29.61.07,1.83-1.16,1.7-1.8-.4-2.07-.04-4.01,1.25-5.75,3.44-4.58,8.27-7.43,13.87-8.62,7.11-1.51,14.13-1.96,21.37-2.33,4.91-.25,9.52-.78,14.46-.63,9.53.29,18.79,2,27.56,5.84,1.91.84,3.58,1.77,3.95,4.23-2.3-.28-4.44-.73-6.46-1.51-15.52-6.04-30.03-5.74-46.05-2.1-6.57,1.5-12.16,4.45-17.06,9.09-4.78,4.52-11.67,9.8-17.48,7.24-2.79-1.23-3.77-4.61-3.31-7.61,1.61-10.53,15.62-17.52,26.2-20,20.02-4.69,41.01-3.19,60.31,4.16,9.29,3.54,17.3,8.42,24.71,14.81,8.77,7.56,14.92,16.93,19.43,27.47l3.83,8.96c2.2,5.14,3.98,10.17,4.85,15.75.98,6.21,1.43,12.19,1.76,18.53.04.82-.76,2.75-1.51,2.88-1.1-.06-2.11-1.86-2.27-3l-1.99-14.61c-1.83,1.04-1.8,2.68-1.83,4.34-.11,6.55,1.77,12.62,4.36,18.61.8,1.84,1.21,3.53.29,5.49-1.36-.58-2.77-1.5-3.35-2.73-2.53-5.35-4.53-10.79-5.03-16.71-1.09-13.05,3.46-22.35-3.92-38.27-6.13-13.21-15.75-24.05-28.57-31.44-19.37-11.18-42.24-14.93-64.19-11.07ZM34.26,119.04l10.6-8.95c-4.61.79-7.82,3.44-10.87,6.31-.52.97-.71,1.82.27,2.63Z"/>
      <path d="M115.36,24.89c8.81,2.83,17.55,4.89,26.67,7.03l35.21,8.26c7.82,1.83,14.86,4.87,21.29,9.59,2.23,1.64,2.82,4.9,1.2,5.9-.41.25-1.64-.07-2.02-.41-10.04-9.18-20.09-10.16-31.8-13.14l-56.71-14.44c-11.34-2.89-22.77-2.48-33.54,1.59l-1.82.69c-.52.2-1.86-1.07-1.79-1.62.18-1.49,1.82-3.08,3.33-3.75,13.83-6.05,31.47-13.76,46.26-12.32,6.47.63,12.54,2.2,18.79,4.04,9.69,2.85,19.11,4.8,29.08,6.3,6.48.98,21.08,3.31,22.09,6.82.6,2.08-2.18,2.8-3.65,2.28-4.99-1.75-9.71-3.16-14.99-3.97-9.43-1.44-18.34-3.66-27.62-5.97-15.65-3.91-34.81-8.97-49.33-.81,3.24.5,6.05-.15,8.96-.59,6.78-1.04,13.25-.7,20.03.68l24.89,5.06,29.27,5.8c4.67.93,9.07,2.39,13.23,4.58,3.31,1.75,7.16,5.27,6.92,8.21-.06.67-1.14,1.75-2.06,1.84-5.73-5.18-12.44-8.75-20.04-10.33l-24.95-5.17-31.9-6.65c-1.69.06-3.03-1.19-5.01.51Z"/>
      <path d="M27.81,188.2c-11.65-1.69-22.16-7.34-27.39-18.04-.55-1.13-.53-2.95-.05-4.15,1.18.02,2.68,1.01,3.26,2.06,3.83,6.94,10,11.76,17.7,14.09,19.77,5.99,41.13-.49,56.85-13.16,2.34-1.89,4.46-4.27,5.33-7.07.66-2.12-.89-4.68-2.08-5.93-4.34-4.57-12.63-1.06-18.73,1.54-7.57,3.23-15.38,4.9-23.57,5.85-7.59.88-14.93-.73-21.49-4.89l-15.7-9.96c-.72-.46-1.43-1.73-1.67-2.53,2.26-.7,4.39-.3,6.33.87l13.34,8.04c4.43,2.67,9.55,4.4,14.71,4.29,11.79-.24,22.6-3.9,33.03-9.02,5.22-2.57,10.76-3.66,16.41-2.95,7.56.96,13.26,7.58,12.09,15.17-.58,3.74-2.65,7.04-5.24,9.89-10.24,11.28-23.61,18.76-38.4,22.36-15.8,3.85-34.92,3.7-47.14-7.73-1.18-1.1-2.54-2.78-2.08-4.57.82-.55,2.87.05,3.76.85,5.45,4.85,11.71,7.69,19.01,8.75,11.51,1.67,23.09.1,33.99-4.13,9.46-3.67,17.73-9.22,25.23-16,2.21-2,3.94-4.37,5.46-6.86,2.51-5.3.18-10.88-5.36-12.84l-1.02.36c-1.04.37,6.75,4.84,3.13,11.9-1.32,2.59-3.15,5.05-5.42,7.03-15.26,13.31-34.09,19.7-54.27,16.77Z"/>
      <path d="M192.39,97.04c-14.3-15.83-26.25-23.45-46.31-29.98-7.25-2.36-13.94-5.12-20.93-8.16-9.75-4.25-27.72-5.63-39.06-6.01-6.58-.22-12.21,1.56-18.06,4.22-4.75,2.16-9.18,4.11-13.06,7.76s-9.27,8.52-13.98,8.75c.4-2.42,1.7-4.21,3.46-5.68,5.56-4.63,11.3-8.84,17.49-12.62,13.83-8.45,27.15-6.92,42.65-5.07,5.4.64,10.56.96,15.99.9,4.29-.04,8.34.61,12.51,1.66l18.65,4.68c7.03,1.76,13.92,3.81,20.26,7.57,11.93,7.06,22.36,15.86,31.8,25.81,1.25,1.32,2.13,4.07,1.14,5.19-4.98,1.22-6-5.2-12.27-10.2-5.74-4.57-11.3-8.95-17.37-13.14-6.64-4.58-13.98-7.41-21.65-9.67l-14.45-4.25c-1.09-.32-2.19-.36-3.35.03,2.73,1.37,5.27,2.1,8.21,2.98,9.18,2.74,18.06,5.58,26.34,10.61,8.93,5.43,16.8,11.95,24.16,19.26,5.04,5.01,10.29,12.37,8.72,19-.15.64-1.52,1.45-2.13,1.46-.7.01-1.84-1.02-2.06-1.78l-1.96-6.6c-.73-2.48-2.8-4.58-4.74-6.72Z"/>
      <path d="M15.47,132.44c7.29,2.65,21.73.8,29.29-1.52,6-1.85,8.77-.45,8.23.43l-1.05,1.69c-6.95,2.28-13.83,4.05-21.08,5.07-5.56.51-10.92.47-16.2-1.28-6.61-2.2-10.16-8.05-8.9-14.97,2.07-11.34,8.74-21.19,18.21-27.99,19.88-14.26,46.82-15.29,70.4-10.6,40.14,7.99,73.19,37.38,80.02,78.41.91,5.46,1.31,10.58.91,16.1-.1,1.4-1,2.66-2.34,3.43-1.31-1.92-1.54-3.46-1.54-5.6,0-18.92-6.39-37.11-18.08-52.11-22.48-28.86-61.11-41.96-96.86-37.37-21.23,2.73-42.24,14.77-46.33,36.67-.77,4.13,1.1,8.11,5.32,9.64Z"/>
      <path d="M96.99,196.76c17.99-14.45,28.85-35.29,16.6-55.98-3.74-6.31-9.07-10.66-16.35-12.84-10.01-2.99-20.54-2.84-30.66-.14-2.78.74-5.39,1.36-8.47.92.12-4.1,10.13-6.24,15.29-6.91,16.72-2.18,35.22,1.4,44.02,16.68,15.41,26.78-2.59,52.58-26.14,67.96-14.68,9.59-31.19,15.78-48.4,18.82-2.54.45-4.83.33-7-1.02,1.61-1.97,3.27-2.34,5.4-2.7,20.33-3.4,39.43-11.72,55.72-24.8Z"/>
      <path d="M65.32,41.6c-3.44,1.38-7.78,4.48-10.26,3.02-.26-.16.13-1.21.35-1.48,2.93-3.57,7.09-5.9,11.44-7.52,5.81-2.15,11.53-4.2,17.69-5.14,9.63-1.47,19.07-.4,28.56,1.63,10.68,2.28,20.76,4.95,31.3,7.8,10.05,2.71,19.73,4.88,29.93,6.87,9.85,1.93,18.68,6.36,26.24,12.81.91.78,1.92,2.45,1.82,3.51-.11,1.12-2.04,1.28-2.84.66-10.99-8.42-23.55-13.59-37.24-15.32-5.35-.67-10.25-1.65-15.43-3.22-13.08-3.97-25.96-7.39-39.43-9.65-5.7-.96-11.29-1.47-16.98-.67-8.64,1.21-16.85,3.39-25.14,6.71Z"/>
      <path d="M2.58,164.67c-2.19-3.65-1.97-8.47,1-9.81.92-.42,2.93-.44,4.04.19l11.14,6.33c14.33,8.14,31.58,2.83,46.34-2.8,4.93-1.88,11.51-4.27,13.87-.7,2.44,3.69-1.25,8.49-5.49,11.39-9.41,6.43-20.1,10.97-31.55,12.33-14.17,1.68-32.19-4.94-39.35-16.92ZM10.7,168.43c8.62,6.94,19.77,10.7,30.92,9.32,10.26-1.27,19.72-5.27,28.39-10.69,3.61-2.26,7.07-6.45,5.68-7.06-.25-.11-1.16-.33-1.5-.22l-9.64,3.08c-6.77,2.16-13.02,4.4-19.93,5.73-10.03,1.93-19.76.8-28.82-4.4l-8.72-5c-.48-.27-1.68.66-1.75,1.13-.36,2.35,2.78,6.04,5.36,8.12Z"/>
      <path d="M36.36,71.63c-1.82,2.02-3.58,3.31-6.14,3.52-.79-1.97,2.2-6.25,4.26-8.41,10.98-11.56,15.98-15.46,30.44-21.77,17.56-7.66,34.9-5.83,53.56-3.04,11.2,1.68,21.94,3.81,32.79,7.05,2.35.7,4.78,1.6,6.25,3.66-.67,1.22-2.63,1.56-4.03,1.17-11.61-3.19-23.07-5.38-35.05-7.06-18.49-2.59-35.84-5.05-53.31,2.82-14.6,6.57-18.29,10.42-28.77,22.05Z"/>
      <path d="M145.9,199.84c-2.16,1.51-.6,9.14.56,13.35.42,1.52.55,3.02-.06,4.49-2.66-.61-3.71-2.71-4.38-5.09-3.98-14.17,2.56-24.84,2.65-37.36.05-6.46.18-12.77-.81-19.18-1.88-12.12-8.32-22.55-17.03-31.02l-7.71-8.1c-.19-.2-.47-1-.55-1.22-.11-.29,1.3-.52,1.61-.4,1.75.69,4.16,2.47,5.9,3.81,13.84,10.67,23.08,27.19,22.8,44.79l-.27,17.15c-.1,6.54,1.03,12.91,3.98,18.74,1.07,2.12,2.39,4.3,2.81,6.62-.89.85-2.45.39-3.11-.71-1.92-3.15-4.82-6.98-6.38-5.89Z"/>
      <path d="M184.12,65.05c4.92,2.89,8.92,6.3,12.81,10.15l6.67,6.61c1.34,1.33,2.2,3.47.73,4.97-1.06.19-2.74-.71-3.66-1.54l-15.28-13.95c-4.06-3.7-8.5-6.84-13.38-9.38-4.52-2.35-11.66-6.62-10.25-9.39,1.42-2.81,11.95.07,17.21,2.39,8.5,3.75,16.32,8.71,23.46,14.57,1.92,1.58,2.72,4.07,1.87,6.2-.17.42-1.02,1.26-1.43,1.14-2.12-.61-4.05-5.73-9.85-9.47-6.31-4.07-12.62-7.51-19.41-10.87-.78-.39-2-.4-3.02-.16,1.66,1.89,3.52,2.84,5.7,4.13l7.83,4.59Z"/>
      <path d="M98.22,13.55c-1.64.38-3.9.43-4.49-1.41,1.55-2.06,4.16-2.96,6.56-3.5l11.71-2.68c6.3-1.44,12.37-1.63,18.76-.13,11.29,2.65,22.31,5.03,33.73,7.11,4.7.85,8.94,2.11,13.37,3.91,1,.41,1.5,2.25,1.21,3.01-.47,1.22-1.89,1.56-3.3,1.07-6.71-2.34-13.25-3.66-20.17-5.14l-24.59-5.24c-7.34-1.56-14.14-1.28-21.41.39l-11.38,2.62Z"/>
      <path d="M28.79,217.74c1.21-1.31,2.47-2.07,3.9-2.15,16.84-.92,35.38-8.21,49.82-16.92,3.46-2.09,6.57-4.19,9.65-6.75,1.76-1.46,3.78-2.3,6.19-1.98-.09,1.43-.75,2.75-1.83,3.73-16.5,15.1-40.07,23.63-62.17,25.71-2.05.19-3.53-.13-5.57-1.65Z"/>
      <path d="M68.18,238.98c-1.86.44-3.35.32-5.22-.61,1.5-2.12,3.39-2.8,5.64-3.6,6.57-2.32,12.78-5.37,18.62-9.23,4.61-3.04,9.39-4.25,14.92-4.43,6.51-.21,12.83-1.49,18.37-5.01,1.37-.87,2.99-1.7,4.68-1.08.27,4.27-7.68,7.81-12.53,9.01-3.86.96-7.73,1.54-11.68,1.7-4.51.18-8.17,1.67-11.98,4.02-6.53,4.03-13.2,7.41-20.83,9.21Z"/>
      <path d="M140.9,218.3c.53,1.43.25,3.6-.77,4.35-1.89-.55-3.04-2.75-3.51-4.82-2.77-12.13-2.12-24.58.88-36.73,2.19-8.89,2.4-17.53.36-26.39-.76-3.31-1.51-6.49-1.03-10.22,6.62,8.84,6.52,25.66,4.76,36.23l-2.78,16.65c-1.2,7.15-.47,14,2.11,20.94Z"/>
      <path d="M86.27,244.35c-1.56-5.17,7.47-7.61,13.02-8.53l13.88-2.32c6.29-1.05,11.35-5.98,16.7-7.39.05,1.84-.5,3.34-1.68,4.47-7.19,6.87-17.41,8.47-27.13,9.42-3.65.36-7.08,1.04-10.33,2.76-1.26.67-2.95,1.3-4.47,1.59Z"/>
      <path d="M134.43,4.28c-1.14-.14-2.17-1.66-1.99-2.39.17-.68,1.32-1.59,2.17-1.61L145.12,0c5.32-.14,13.25,2.34,14.15,7.35-.81.72-2.47.97-3.58.69-7.06-1.81-13.76-2.87-21.26-3.77Z"/>
      <path d="M108.38,244.42c-7.21,4.92-15.52,2.71-14.71,1.56l.82-1.17c4.27-2.16,8.85-2.87,13.65-2.18l.79.87c.16.18-.36.78-.56.92Z"/>
      <path d="M60.88,170.3c-30.93,12.61-52.78-2.17-49.3-5.9.27-.29,1.3-.28,1.78-.05l13.4,6.58c4.01,1.97,8.55,1.96,12.86.86l18.48-4.74c2.53-.65,4.69-2,7.61-1.37-.64,2.33-2.64,3.73-4.82,4.62Z"/>
    </g>
  </g>
</svg>